<svg width="110" height="26" viewBox="0 0 110 26" fill="none" xmlns="http://www.w3.org/2000/svg">
<path d="M5.84043 25H0.44043V0.880005H13.7604C19.7004 0.880005 23.0844 3.50801 23.0844 8.116C23.0844 12.04 20.8164 14.38 16.2804 14.812V15.1C18.4404 15.676 19.2684 16.828 20.1684 18.52L23.6604 25H17.3964L14.0844 18.736C13.1124 16.864 12.2124 16.252 9.40443 16.252H5.84043V25ZM5.84043 5.74V12.184H13.7244C16.2804 12.184 17.4324 11.464 17.4324 8.94401C17.4324 6.568 16.2804 5.74 13.7244 5.74H5.84043Z" fill="black"/>
<path d="M34.9422 25.36C28.9302 25.36 24.8262 22.408 24.8262 16C24.8262 10.24 28.8942 6.604 34.8342 6.604C40.7382 6.604 44.6622 9.7 44.6622 15.352C44.6622 16 44.5902 16.468 44.5182 17.08H29.8302C29.9742 19.852 31.2702 21.04 34.7622 21.04C37.9662 21.04 39.0822 20.212 39.0822 18.664V18.304H44.4822V18.7C44.4822 22.624 40.6662 25.36 34.9422 25.36ZM34.7262 10.816C31.5222 10.816 30.1542 11.896 29.9022 14.236H39.4782C39.3342 11.86 37.8942 10.816 34.7262 10.816Z" fill="black"/>
<path d="M59.6601 25H55.1961C50.9841 25 48.4282 23.02 48.4282 18.484V11.428H45.5841V6.964H48.4282V3.472H53.8281V6.964H59.6601V11.428H53.8281V17.872C53.8281 19.672 54.5121 20.14 56.4201 20.14H59.6601V25Z" fill="black"/>
<path d="M67.0826 25H61.6826V6.964H66.6866V11.752H67.0106C67.5146 8.836 69.4226 6.604 73.0586 6.604C77.0906 6.604 78.7466 9.37601 78.7466 12.904V15.892H73.3466V14.02C73.3466 12.04 72.5546 11.176 70.3586 11.176C67.9466 11.176 67.0826 12.292 67.0826 14.56V25Z" fill="black"/>
<path d="M90.3141 25.36C84.1581 25.36 80.0182 21.688 80.0182 16C80.0182 10.24 84.1581 6.604 90.3141 6.604C96.4701 6.604 100.61 10.24 100.61 16C100.61 21.688 96.4701 25.36 90.3141 25.36ZM90.3141 20.572C93.9501 20.572 95.2461 19.168 95.2461 16C95.2461 12.832 93.9501 11.356 90.3141 11.356C86.6422 11.356 85.3821 12.832 85.3821 16C85.3821 19.168 86.6422 20.572 90.3141 20.572Z" fill="black"/>
<path d="M109.403 25H102.455V18.7H109.403V25Z" fill="black"/>
</svg>
