<svg width="137" height="52" viewBox="0 0 137 52" fill="none" xmlns="http://www.w3.org/2000/svg">
<mask id="mask0_1979_105" style="mask-type:alpha" maskUnits="userSpaceOnUse" x="0" y="0" width="137" height="52">
<rect width="137" height="52" fill="#D9D9D9"/>
</mask>
<g mask="url(#mask0_1979_105)">
<path d="M184.496 8777H179.6L184.224 8755.38L189.256 8754.7L187.59 8762.55H187.862C189.154 8762.55 190.276 8761.93 191.228 8760.68C192.203 8759.43 192.69 8758.08 192.69 8756.63C192.69 8755.52 192.362 8754.65 191.704 8754.02C191.047 8753.38 190.129 8753.06 188.95 8753.06C186.14 8753.06 183.907 8753.81 182.252 8755.31C180.598 8756.78 179.77 8758.79 179.77 8761.33C179.77 8761.76 179.793 8762.13 179.838 8762.45C179.906 8762.77 180.008 8763.07 180.144 8763.37C180.19 8763.46 180.212 8763.53 180.212 8763.57C180.235 8763.59 180.246 8763.62 180.246 8763.64C178.977 8763.64 178.048 8763.38 177.458 8762.86C176.892 8762.31 176.608 8761.47 176.608 8760.34C176.608 8759.21 176.982 8758.07 177.73 8756.94C178.501 8755.81 179.566 8754.79 180.926 8753.88C182.082 8753.13 183.318 8752.55 184.632 8752.15C185.97 8751.72 187.273 8751.5 188.542 8751.5C190.922 8751.5 192.804 8752 194.186 8753C195.569 8753.99 196.26 8755.31 196.26 8756.94C196.26 8758.03 195.92 8759.1 195.24 8760.17C194.583 8761.24 193.699 8762.1 192.588 8762.75C193.382 8762.98 193.971 8763.38 194.356 8763.94C194.742 8764.49 194.934 8765.22 194.934 8766.15C194.934 8766.68 194.878 8767.28 194.764 8767.96C194.651 8768.61 194.402 8769.62 194.016 8770.98C193.699 8772.14 193.495 8772.96 193.404 8773.46C193.314 8773.96 193.268 8774.39 193.268 8774.76C193.268 8775.28 193.382 8775.74 193.608 8776.15C193.858 8776.56 194.186 8776.84 194.594 8777C193.937 8777.18 193.314 8777.32 192.724 8777.41C192.158 8777.52 191.659 8777.58 191.228 8777.58C190.344 8777.58 189.676 8777.39 189.222 8777C188.792 8776.64 188.576 8776.07 188.576 8775.3C188.576 8774.91 188.633 8774.45 188.746 8773.91C188.86 8773.34 189.086 8772.41 189.426 8771.12C189.812 8769.71 190.061 8768.69 190.174 8768.06C190.31 8767.4 190.378 8766.83 190.378 8766.36C190.378 8765.59 190.208 8765.01 189.868 8764.62C189.528 8764.24 189.018 8764.05 188.338 8764.05C188.248 8764.05 188.146 8764.06 188.032 8764.08C187.942 8764.08 187.67 8764.11 187.216 8764.18L184.496 8777Z" fill="black"/>
<path d="M209.302 8762.96C209.302 8764.84 208.532 8766.48 206.99 8767.89C205.449 8769.27 203.613 8770.02 201.482 8770.13C201.46 8770.52 201.437 8770.81 201.414 8771.02C201.414 8771.2 201.414 8771.36 201.414 8771.49C201.414 8772.54 201.584 8773.27 201.924 8773.7C202.287 8774.13 202.933 8774.35 203.862 8774.35C204.928 8774.35 205.902 8774.11 206.786 8773.63C207.693 8773.13 208.724 8772.23 209.88 8770.91H211.036C209.722 8773.04 208.294 8774.63 206.752 8775.67C205.211 8776.69 203.522 8777.2 201.686 8777.2C199.941 8777.2 198.615 8776.75 197.708 8775.84C196.824 8774.94 196.382 8773.59 196.382 8771.8C196.382 8770.51 196.586 8769.13 196.994 8767.68C197.402 8766.23 197.946 8764.94 198.626 8763.81C199.465 8762.45 200.462 8761.43 201.618 8760.75C202.797 8760.04 204.112 8759.69 205.562 8759.69C206.809 8759.69 207.738 8759.97 208.35 8760.51C208.985 8761.03 209.302 8761.85 209.302 8762.96ZM205.834 8761.5C205.064 8761.5 204.282 8762.19 203.488 8763.57C202.718 8764.93 202.14 8766.57 201.754 8768.5C203.069 8768.41 204.214 8767.81 205.188 8766.7C206.186 8765.56 206.684 8764.29 206.684 8762.89C206.684 8762.41 206.616 8762.06 206.48 8761.84C206.344 8761.61 206.129 8761.5 205.834 8761.5Z" fill="black"/>
<path d="M211.096 8760H212.218L213.238 8755.31L218.27 8754.63L217.114 8760H219.154L218.882 8761.36H216.842L214.666 8771.56C214.621 8771.76 214.587 8771.96 214.564 8772.14C214.542 8772.3 214.53 8772.47 214.53 8772.65C214.53 8773.1 214.632 8773.43 214.836 8773.63C215.063 8773.82 215.426 8773.91 215.924 8773.91C216.559 8773.91 217.16 8773.63 217.726 8773.09C218.293 8772.52 218.712 8771.8 218.984 8770.91H220.412C219.687 8772.98 218.712 8774.54 217.488 8775.61C216.264 8776.67 214.859 8777.2 213.272 8777.2C212.139 8777.2 211.244 8776.85 210.586 8776.15C209.952 8775.42 209.634 8774.42 209.634 8773.12C209.634 8772.83 209.657 8772.5 209.702 8772.14C209.748 8771.75 209.816 8771.34 209.906 8770.91L211.946 8761.36H210.824L211.096 8760Z" fill="black"/>
<path d="M222.575 8777H217.679L221.283 8760H226.179L225.737 8762.11C226.734 8761.27 227.516 8760.71 228.083 8760.44C228.672 8760.15 229.261 8760 229.851 8760C230.553 8760 231.12 8760.25 231.551 8760.75C231.981 8761.22 232.197 8761.82 232.197 8762.55C232.197 8763.25 231.97 8763.84 231.517 8764.32C231.063 8764.79 230.474 8765.03 229.749 8765.03C229.363 8765.03 229.057 8764.94 228.831 8764.76C228.627 8764.58 228.479 8764.2 228.389 8763.64C228.321 8763.28 228.241 8763.05 228.151 8762.96C228.06 8762.84 227.935 8762.79 227.777 8762.79C227.391 8762.79 227.029 8762.87 226.689 8763.03C226.349 8763.18 225.884 8763.54 225.295 8764.08L222.575 8777Z" fill="black"/>
<path d="M231.178 8771.76C231.178 8770.47 231.382 8769.1 231.79 8767.65C232.221 8766.2 232.799 8764.91 233.524 8763.77C234.363 8762.44 235.372 8761.43 236.55 8760.75C237.729 8760.04 239.044 8759.69 240.494 8759.69C241.945 8759.69 243.033 8760.15 243.758 8761.05C244.484 8761.96 244.846 8763.32 244.846 8765.13C244.892 8765.16 244.937 8765.18 244.982 8765.2C245.05 8765.2 245.13 8765.2 245.22 8765.2C245.923 8765.2 246.762 8765.01 247.736 8764.62C248.711 8764.24 249.618 8763.75 250.456 8763.16L250.762 8764.08C250.128 8764.76 249.278 8765.35 248.212 8765.85C247.17 8766.35 246.014 8766.7 244.744 8766.9C244.472 8769.96 243.588 8772.43 242.092 8774.31C240.596 8776.2 238.772 8777.14 236.618 8777.14C234.85 8777.14 233.502 8776.68 232.572 8775.78C231.643 8774.87 231.178 8773.53 231.178 8771.76ZM240.766 8761.77C239.678 8761.77 238.647 8762.87 237.672 8765.07C236.72 8767.26 236.244 8769.35 236.244 8771.32C236.244 8772.39 236.358 8773.11 236.584 8773.5C236.834 8773.88 237.298 8774.08 237.978 8774.08C238.817 8774.08 239.61 8773.4 240.358 8772.04C241.129 8770.68 241.65 8769 241.922 8767C241.605 8766.94 241.367 8766.79 241.208 8766.56C241.072 8766.31 241.004 8765.98 241.004 8765.58C241.004 8765.15 241.095 8764.77 241.276 8764.45C241.458 8764.14 241.718 8763.9 242.058 8763.74C242.013 8763.01 241.888 8762.5 241.684 8762.21C241.503 8761.92 241.197 8761.77 240.766 8761.77Z" fill="black"/>
<path d="M69.4964 36H64.6004L69.2244 14.376L74.2564 13.696L72.5904 21.55H72.8624C74.1544 21.55 75.2764 20.9267 76.2284 19.68C77.2031 18.4333 77.6904 17.0847 77.6904 15.634C77.6904 14.5233 77.3617 13.6507 76.7044 13.016C76.0471 12.3813 75.1291 12.064 73.9504 12.064C71.1397 12.064 68.9071 12.812 67.2524 14.308C65.5977 15.7813 64.7704 17.7873 64.7704 20.326C64.7704 20.7567 64.7931 21.1307 64.8384 21.448C64.9064 21.7653 65.0084 22.0713 65.1444 22.366C65.1897 22.4567 65.2124 22.5247 65.2124 22.57C65.2351 22.5927 65.2464 22.6153 65.2464 22.638C63.9771 22.638 63.0477 22.3773 62.4584 21.856C61.8917 21.312 61.6084 20.4733 61.6084 19.34C61.6084 18.2067 61.9824 17.0733 62.7304 15.94C63.5011 14.8067 64.5664 13.7867 65.9264 12.88C67.0824 12.132 68.3177 11.554 69.6324 11.146C70.9697 10.7153 72.2731 10.5 73.5424 10.5C75.9224 10.5 77.8037 10.9987 79.1864 11.996C80.5691 12.9933 81.2604 14.308 81.2604 15.94C81.2604 17.028 80.9204 18.1047 80.2404 19.17C79.5831 20.2353 78.6991 21.0967 77.5884 21.754C78.3817 21.9807 78.9711 22.3773 79.3564 22.944C79.7417 23.488 79.9344 24.2247 79.9344 25.154C79.9344 25.6753 79.8777 26.276 79.7644 26.956C79.6511 27.6133 79.4017 28.622 79.0164 29.982C78.6991 31.138 78.4951 31.9653 78.4044 32.464C78.3137 32.9627 78.2684 33.3933 78.2684 33.756C78.2684 34.2773 78.3817 34.742 78.6084 35.15C78.8577 35.558 79.1864 35.8413 79.5944 36C78.9371 36.1813 78.3137 36.3173 77.7244 36.408C77.1577 36.5213 76.6591 36.578 76.2284 36.578C75.3444 36.578 74.6757 36.3853 74.2224 36C73.7917 35.6373 73.5764 35.0707 73.5764 34.3C73.5764 33.9147 73.6331 33.45 73.7464 32.906C73.8597 32.3393 74.0864 31.41 74.4264 30.118C74.8117 28.7127 75.0611 27.6927 75.1744 27.058C75.3104 26.4007 75.3784 25.834 75.3784 25.358C75.3784 24.5873 75.2084 24.0093 74.8684 23.624C74.5284 23.2387 74.0184 23.046 73.3384 23.046C73.2477 23.046 73.1457 23.0573 73.0324 23.08C72.9417 23.08 72.6697 23.114 72.2164 23.182L69.4964 36Z" fill="black"/>
<path d="M94.3023 21.958C94.3023 23.8393 93.5317 25.4827 91.9903 26.888C90.449 28.2707 88.613 29.0187 86.4823 29.132C86.4597 29.5173 86.437 29.812 86.4143 30.016C86.4143 30.1973 86.4143 30.356 86.4143 30.492C86.4143 31.5347 86.5843 32.2713 86.9243 32.702C87.287 33.1327 87.933 33.348 88.8623 33.348C89.9277 33.348 90.9023 33.11 91.7863 32.634C92.693 32.1353 93.7243 31.2287 94.8803 29.914H96.0363C94.7217 32.0447 93.2937 33.6313 91.7523 34.674C90.211 35.694 88.5223 36.204 86.6863 36.204C84.941 36.204 83.615 35.7507 82.7083 34.844C81.8243 33.9373 81.3823 32.5887 81.3823 30.798C81.3823 29.506 81.5863 28.1347 81.9943 26.684C82.4023 25.2333 82.9463 23.9413 83.6263 22.808C84.465 21.448 85.4623 20.428 86.6183 19.748C87.797 19.0453 89.1117 18.694 90.5623 18.694C91.809 18.694 92.7383 18.966 93.3503 19.51C93.985 20.0313 94.3023 20.8473 94.3023 21.958ZM90.8343 20.496C90.0637 20.496 89.2817 21.1873 88.4883 22.57C87.7177 23.93 87.1397 25.5733 86.7543 27.5C88.069 27.4093 89.2137 26.8087 90.1883 25.698C91.1857 24.5647 91.6843 23.2953 91.6843 21.89C91.6843 21.414 91.6163 21.0627 91.4803 20.836C91.3443 20.6093 91.129 20.496 90.8343 20.496Z" fill="black"/>
<path d="M96.0964 19H97.2184L98.2383 14.308L103.27 13.628L102.114 19H104.154L103.882 20.36H101.842L99.6664 30.56C99.621 30.764 99.587 30.9567 99.5644 31.138C99.5417 31.2967 99.5304 31.4667 99.5304 31.648C99.5304 32.1013 99.6324 32.43 99.8364 32.634C100.063 32.8153 100.426 32.906 100.924 32.906C101.559 32.906 102.16 32.634 102.726 32.09C103.293 31.5233 103.712 30.798 103.984 29.914H105.412C104.687 31.9767 103.712 33.5407 102.488 34.606C101.264 35.6713 99.859 36.204 98.2724 36.204C97.139 36.204 96.2437 35.8527 95.5864 35.15C94.9517 34.4247 94.6343 33.416 94.6343 32.124C94.6343 31.8293 94.657 31.5007 94.7024 31.138C94.7477 30.7527 94.8157 30.3447 94.9064 29.914L96.9464 20.36H95.8244L96.0964 19Z" fill="black"/>
<path d="M107.575 36H102.679L106.283 19H111.179L110.737 21.108C111.734 20.2693 112.516 19.714 113.083 19.442C113.672 19.1473 114.261 19 114.851 19C115.553 19 116.12 19.2493 116.551 19.748C116.981 20.224 117.197 20.8247 117.197 21.55C117.197 22.2527 116.97 22.842 116.517 23.318C116.063 23.794 115.474 24.032 114.749 24.032C114.363 24.032 114.057 23.9413 113.831 23.76C113.627 23.5787 113.479 23.2047 113.389 22.638C113.321 22.2753 113.241 22.0487 113.151 21.958C113.06 21.8447 112.935 21.788 112.777 21.788C112.391 21.788 112.029 21.8673 111.689 22.026C111.349 22.1847 110.884 22.536 110.295 23.08L107.575 36Z" fill="black"/>
<path d="M116.178 30.764C116.178 29.472 116.382 28.1007 116.79 26.65C117.221 25.1993 117.799 23.9073 118.524 22.774C119.363 21.4367 120.372 20.428 121.55 19.748C122.729 19.0453 124.044 18.694 125.494 18.694C126.945 18.694 128.033 19.1473 128.758 20.054C129.484 20.9607 129.846 22.3207 129.846 24.134C129.892 24.1567 129.937 24.1793 129.982 24.202C130.05 24.202 130.13 24.202 130.22 24.202C130.923 24.202 131.762 24.0093 132.736 23.624C133.711 23.2387 134.618 22.7513 135.456 22.162L135.762 23.08C135.128 23.76 134.278 24.3493 133.212 24.848C132.17 25.3467 131.014 25.698 129.744 25.902C129.472 28.962 128.588 31.4327 127.092 33.314C125.596 35.1953 123.772 36.136 121.618 36.136C119.85 36.136 118.502 35.6827 117.572 34.776C116.643 33.8693 116.178 32.532 116.178 30.764ZM125.766 20.768C124.678 20.768 123.647 21.8673 122.672 24.066C121.72 26.2647 121.244 28.35 121.244 30.322C121.244 31.3873 121.358 32.1127 121.584 32.498C121.834 32.8833 122.298 33.076 122.978 33.076C123.817 33.076 124.61 32.396 125.358 31.036C126.129 29.676 126.65 27.9987 126.922 26.004C126.605 25.936 126.367 25.7887 126.208 25.562C126.072 25.3127 126.004 24.984 126.004 24.576C126.004 24.1453 126.095 23.7713 126.276 23.454C126.458 23.1367 126.718 22.8987 127.058 22.74C127.013 22.0147 126.888 21.5047 126.684 21.21C126.503 20.9153 126.197 20.768 125.766 20.768Z" fill="black"/>
<circle cx="26" cy="26" r="26" fill="white"/>
<path d="M28.2666 21.2C30.4444 22.9111 36.0133 25.3067 40.8666 21.2" stroke="#FF481F" stroke-width="4" stroke-linecap="round"/>
<path d="M41.0019 11H28.5981C22.7449 11 18 15.7449 18 21.5981V24.7027C18 28.8413 21.355 32.1963 25.4935 32.1963V39L36.2 32.1963H41.0019C46.8551 32.1963 51.6 27.4513 51.6 21.5981C51.6 15.7449 46.855 11 41.0019 11Z" stroke="#FF481F" stroke-width="4"/>
</g>
</svg>
