<svg width="137" height="45" viewBox="0 0 137 45" fill="none" xmlns="http://www.w3.org/2000/svg">
<mask id="mask0_2174_108" style="mask-type:alpha" maskUnits="userSpaceOnUse" x="0" y="0" width="137" height="45">
<rect width="137" height="45" fill="#D9D9D9"/>
</mask>
<g mask="url(#mask0_2174_108)">
<circle cx="20.5" cy="20.5" r="20.5" fill="#1060FF"/>
<path d="M31.2666 23.2C33.4444 24.9111 39.0133 27.3067 43.8666 23.2" stroke="white" stroke-width="4" stroke-linecap="round"/>
<path d="M44.0019 13H31.5981C25.7449 13 21 17.7449 21 23.5981V26.7027C21 30.8413 24.355 34.1963 28.4935 34.1963V41L39.2 34.1963H44.0019C49.8551 34.1963 54.6 29.4513 54.6 23.5981C54.6 17.7449 49.855 13 44.0019 13Z" stroke="white" stroke-width="4"/>
<path d="M981.284 3177H978.692L981.14 3165.55L983.804 3165.19L982.922 3169.35H983.066C983.75 3169.35 984.344 3169.02 984.848 3168.36C985.364 3167.7 985.622 3166.99 985.622 3166.22C985.622 3165.63 985.448 3165.17 985.1 3164.83C984.752 3164.5 984.266 3164.33 983.642 3164.33C982.154 3164.33 980.972 3164.72 980.096 3165.52C979.22 3166.3 978.782 3167.36 978.782 3168.7C978.782 3168.93 978.794 3169.13 978.818 3169.3C978.854 3169.46 978.908 3169.63 978.98 3169.78C979.004 3169.83 979.016 3169.87 979.016 3169.89C979.028 3169.9 979.034 3169.91 979.034 3169.93C978.362 3169.93 977.87 3169.79 977.558 3169.51C977.258 3169.22 977.108 3168.78 977.108 3168.18C977.108 3167.58 977.306 3166.98 977.702 3166.38C978.11 3165.78 978.674 3165.24 979.394 3164.76C980.006 3164.36 980.66 3164.06 981.356 3163.84C982.064 3163.61 982.754 3163.5 983.426 3163.5C984.686 3163.5 985.682 3163.76 986.414 3164.29C987.146 3164.82 987.512 3165.52 987.512 3166.38C987.512 3166.96 987.332 3167.53 986.972 3168.09C986.624 3168.65 986.156 3169.11 985.568 3169.46C985.988 3169.58 986.3 3169.79 986.504 3170.09C986.708 3170.38 986.81 3170.77 986.81 3171.26C986.81 3171.53 986.78 3171.85 986.72 3172.21C986.66 3172.56 986.528 3173.09 986.324 3173.81C986.156 3174.43 986.048 3174.86 986 3175.13C985.952 3175.39 985.928 3175.62 985.928 3175.81C985.928 3176.09 985.988 3176.33 986.108 3176.55C986.24 3176.77 986.414 3176.92 986.63 3177C986.282 3177.1 985.952 3177.17 985.64 3177.22C985.34 3177.28 985.076 3177.31 984.848 3177.31C984.38 3177.31 984.026 3177.2 983.786 3177C983.558 3176.81 983.444 3176.51 983.444 3176.1C983.444 3175.9 983.474 3175.65 983.534 3175.36C983.594 3175.06 983.714 3174.57 983.894 3173.89C984.098 3173.14 984.23 3172.6 984.29 3172.27C984.362 3171.92 984.398 3171.62 984.398 3171.37C984.398 3170.96 984.308 3170.65 984.128 3170.45C983.948 3170.24 983.678 3170.14 983.318 3170.14C983.27 3170.14 983.216 3170.15 983.156 3170.16C983.108 3170.16 982.964 3170.18 982.724 3170.21L981.284 3177Z" fill="black"/>
<path d="M994.417 3169.57C994.417 3170.56 994.009 3171.43 993.193 3172.18C992.377 3172.91 991.405 3173.3 990.277 3173.36C990.265 3173.57 990.253 3173.72 990.241 3173.83C990.241 3173.93 990.241 3174.01 990.241 3174.08C990.241 3174.64 990.331 3175.03 990.511 3175.25C990.703 3175.48 991.045 3175.6 991.537 3175.6C992.101 3175.6 992.617 3175.47 993.085 3175.22C993.565 3174.95 994.111 3174.47 994.723 3173.78H995.335C994.639 3174.91 993.883 3175.75 993.067 3176.3C992.251 3176.84 991.357 3177.11 990.385 3177.11C989.461 3177.11 988.759 3176.87 988.279 3176.39C987.811 3175.91 987.577 3175.19 987.577 3174.25C987.577 3173.56 987.685 3172.84 987.901 3172.07C988.117 3171.3 988.405 3170.62 988.765 3170.02C989.209 3169.3 989.737 3168.76 990.349 3168.4C990.973 3168.02 991.669 3167.84 992.437 3167.84C993.097 3167.84 993.589 3167.98 993.913 3168.27C994.249 3168.55 994.417 3168.98 994.417 3169.57ZM992.581 3168.79C992.173 3168.79 991.759 3169.16 991.339 3169.89C990.931 3170.61 990.625 3171.48 990.421 3172.5C991.117 3172.45 991.723 3172.13 992.239 3171.55C992.767 3170.95 993.031 3170.27 993.031 3169.53C993.031 3169.28 992.995 3169.09 992.923 3168.97C992.851 3168.85 992.737 3168.79 992.581 3168.79Z" fill="black"/>
<path d="M995.366 3168H995.96L996.5 3165.52L999.164 3165.16L998.552 3168H999.632L999.488 3168.72H998.408L997.256 3174.12C997.232 3174.23 997.214 3174.33 997.202 3174.43C997.19 3174.51 997.184 3174.6 997.184 3174.7C997.184 3174.94 997.238 3175.11 997.346 3175.22C997.466 3175.31 997.658 3175.36 997.922 3175.36C998.258 3175.36 998.576 3175.22 998.876 3174.93C999.176 3174.63 999.398 3174.25 999.542 3173.78H1000.3C999.914 3174.87 999.398 3175.7 998.75 3176.26C998.102 3176.83 997.358 3177.11 996.518 3177.11C995.918 3177.11 995.444 3176.92 995.096 3176.55C994.76 3176.17 994.592 3175.63 994.592 3174.95C994.592 3174.79 994.604 3174.62 994.628 3174.43C994.652 3174.22 994.688 3174.01 994.736 3173.78L995.816 3168.72H995.222L995.366 3168Z" fill="black"/>
<path d="M1001.44 3177H998.851L1000.76 3168H1003.35L1003.12 3169.12C1003.65 3168.67 1004.06 3168.38 1004.36 3168.23C1004.67 3168.08 1004.98 3168 1005.3 3168C1005.67 3168 1005.97 3168.13 1006.2 3168.4C1006.42 3168.65 1006.54 3168.97 1006.54 3169.35C1006.54 3169.72 1006.42 3170.03 1006.18 3170.29C1005.94 3170.54 1005.63 3170.66 1005.24 3170.66C1005.04 3170.66 1004.88 3170.62 1004.76 3170.52C1004.65 3170.42 1004.57 3170.23 1004.52 3169.93C1004.49 3169.73 1004.44 3169.61 1004.4 3169.57C1004.35 3169.51 1004.28 3169.48 1004.2 3169.48C1003.99 3169.48 1003.8 3169.52 1003.62 3169.6C1003.44 3169.69 1003.2 3169.87 1002.88 3170.16L1001.44 3177Z" fill="black"/>
<path d="M1006 3174.23C1006 3173.54 1006.11 3172.82 1006.32 3172.05C1006.55 3171.28 1006.86 3170.6 1007.24 3170C1007.68 3169.29 1008.22 3168.76 1008.84 3168.4C1009.47 3168.02 1010.16 3167.84 1010.93 3167.84C1011.7 3167.84 1012.27 3168.08 1012.66 3168.56C1013.04 3169.04 1013.23 3169.76 1013.23 3170.72C1013.26 3170.73 1013.28 3170.74 1013.31 3170.75C1013.34 3170.75 1013.38 3170.75 1013.43 3170.75C1013.8 3170.75 1014.25 3170.65 1014.76 3170.45C1015.28 3170.24 1015.76 3169.99 1016.2 3169.67L1016.37 3170.16C1016.03 3170.52 1015.58 3170.83 1015.02 3171.1C1014.46 3171.36 1013.85 3171.55 1013.18 3171.65C1013.04 3173.27 1012.57 3174.58 1011.78 3175.58C1010.98 3176.57 1010.02 3177.07 1008.88 3177.07C1007.94 3177.07 1007.23 3176.83 1006.74 3176.35C1006.24 3175.87 1006 3175.16 1006 3174.23ZM1011.07 3168.94C1010.5 3168.94 1009.95 3169.52 1009.44 3170.68C1008.93 3171.85 1008.68 3172.95 1008.68 3173.99C1008.68 3174.56 1008.74 3174.94 1008.86 3175.15C1008.99 3175.35 1009.24 3175.45 1009.6 3175.45C1010.04 3175.45 1010.46 3175.09 1010.86 3174.37C1011.27 3173.65 1011.54 3172.76 1011.69 3171.71C1011.52 3171.67 1011.39 3171.59 1011.31 3171.47C1011.24 3171.34 1011.2 3171.17 1011.2 3170.95C1011.2 3170.72 1011.25 3170.53 1011.34 3170.36C1011.44 3170.19 1011.58 3170.06 1011.76 3169.98C1011.73 3169.6 1011.67 3169.33 1011.56 3169.17C1011.46 3169.01 1011.3 3168.94 1011.07 3168.94Z" fill="black"/>
<path d="M1027.69 3164.78C1027.2 3165.04 1026.68 3165.54 1026.13 3166.27C1025.57 3166.99 1025.02 3167.92 1024.45 3169.04C1024.88 3169.13 1025.28 3169.22 1025.64 3169.33C1026.01 3169.44 1026.35 3169.55 1026.65 3169.67L1027.69 3164.78ZM1029.1 3163.5C1029.35 3163.5 1029.6 3163.52 1029.85 3163.57C1030.1 3163.61 1030.33 3163.67 1030.52 3163.75L1027.69 3177H1025.1L1026.49 3170.47C1026.07 3170.27 1025.67 3170.13 1025.3 3170.03C1024.93 3169.93 1024.52 3169.85 1024.07 3169.82C1023.39 3171.31 1022.83 3172.82 1022.38 3174.35C1021.95 3175.89 1021.73 3177.12 1021.73 3178.04C1021.73 3178.26 1021.75 3178.45 1021.79 3178.6C1021.84 3178.77 1021.9 3178.92 1021.99 3179.05C1021.07 3179.05 1020.44 3178.9 1020.1 3178.58C1019.75 3178.27 1019.57 3177.79 1019.57 3177.14C1019.57 3176.34 1019.81 3175.27 1020.29 3173.92C1020.79 3172.58 1021.43 3171.21 1022.22 3169.82C1021.61 3169.85 1021.13 3169.95 1020.78 3170.11C1020.44 3170.26 1020.22 3170.48 1020.11 3170.75C1020.16 3170.75 1020.21 3170.82 1020.26 3170.95C1020.32 3171.07 1020.35 3171.19 1020.35 3171.31C1020.35 3171.52 1020.25 3171.68 1020.06 3171.82C1019.87 3171.95 1019.63 3172.01 1019.34 3172.01C1019 3172.01 1018.73 3171.92 1018.53 3171.74C1018.33 3171.55 1018.22 3171.29 1018.22 3170.97C1018.22 3170.35 1018.57 3169.82 1019.27 3169.4C1019.98 3168.97 1020.85 3168.76 1021.9 3168.76C1022.02 3168.76 1022.15 3168.76 1022.31 3168.77C1022.47 3168.77 1022.64 3168.79 1022.83 3168.81C1023.89 3167.14 1024.96 3165.84 1026.05 3164.9C1027.15 3163.97 1028.16 3163.5 1029.1 3163.5Z" fill="black"/>
<path d="M1032.48 3164.76C1033.09 3164.36 1033.75 3164.06 1034.44 3163.84C1035.15 3163.61 1035.84 3163.5 1036.51 3163.5C1036.6 3163.5 1036.69 3163.51 1036.78 3163.52C1036.89 3163.52 1037.04 3163.52 1037.23 3163.54L1034.37 3177H1031.78L1034.39 3164.78C1033.57 3165.11 1032.95 3165.62 1032.52 3166.29C1032.08 3166.96 1031.87 3167.77 1031.87 3168.7C1031.87 3168.93 1031.88 3169.13 1031.9 3169.3C1031.94 3169.46 1031.99 3169.63 1032.07 3169.78C1032.09 3169.83 1032.1 3169.87 1032.1 3169.89C1032.11 3169.9 1032.12 3169.91 1032.12 3169.93C1031.45 3169.93 1030.96 3169.79 1030.64 3169.51C1030.34 3169.22 1030.19 3168.78 1030.19 3168.18C1030.19 3167.58 1030.39 3166.98 1030.79 3166.38C1031.2 3165.78 1031.76 3165.24 1032.48 3164.76Z" fill="black"/>
<path d="M69.4964 35H64.6004L69.2244 13.376L74.2564 12.696L72.5904 20.55H72.8624C74.1544 20.55 75.2764 19.9267 76.2284 18.68C77.2031 17.4333 77.6904 16.0847 77.6904 14.634C77.6904 13.5233 77.3617 12.6507 76.7044 12.016C76.0471 11.3813 75.1291 11.064 73.9504 11.064C71.1397 11.064 68.9071 11.812 67.2524 13.308C65.5977 14.7813 64.7704 16.7873 64.7704 19.326C64.7704 19.7567 64.7931 20.1307 64.8384 20.448C64.9064 20.7653 65.0084 21.0713 65.1444 21.366C65.1897 21.4567 65.2124 21.5247 65.2124 21.57C65.2351 21.5927 65.2464 21.6153 65.2464 21.638C63.9771 21.638 63.0477 21.3773 62.4584 20.856C61.8917 20.312 61.6084 19.4733 61.6084 18.34C61.6084 17.2067 61.9824 16.0733 62.7304 14.94C63.5011 13.8067 64.5664 12.7867 65.9264 11.88C67.0824 11.132 68.3177 10.554 69.6324 10.146C70.9697 9.71533 72.2731 9.5 73.5424 9.5C75.9224 9.5 77.8037 9.99867 79.1864 10.996C80.5691 11.9933 81.2604 13.308 81.2604 14.94C81.2604 16.028 80.9204 17.1047 80.2404 18.17C79.5831 19.2353 78.6991 20.0967 77.5884 20.754C78.3817 20.9807 78.9711 21.3773 79.3564 21.944C79.7417 22.488 79.9344 23.2247 79.9344 24.154C79.9344 24.6753 79.8777 25.276 79.7644 25.956C79.6511 26.6133 79.4017 27.622 79.0164 28.982C78.6991 30.138 78.4951 30.9653 78.4044 31.464C78.3137 31.9627 78.2684 32.3933 78.2684 32.756C78.2684 33.2773 78.3817 33.742 78.6084 34.15C78.8577 34.558 79.1864 34.8413 79.5944 35C78.9371 35.1813 78.3137 35.3173 77.7244 35.408C77.1577 35.5213 76.6591 35.578 76.2284 35.578C75.3444 35.578 74.6757 35.3853 74.2224 35C73.7917 34.6373 73.5764 34.0707 73.5764 33.3C73.5764 32.9147 73.6331 32.45 73.7464 31.906C73.8597 31.3393 74.0864 30.41 74.4264 29.118C74.8117 27.7127 75.0611 26.6927 75.1744 26.058C75.3104 25.4007 75.3784 24.834 75.3784 24.358C75.3784 23.5873 75.2084 23.0093 74.8684 22.624C74.5284 22.2387 74.0184 22.046 73.3384 22.046C73.2477 22.046 73.1457 22.0573 73.0324 22.08C72.9417 22.08 72.6697 22.114 72.2164 22.182L69.4964 35Z" fill="white"/>
<path d="M94.3023 20.958C94.3023 22.8393 93.5317 24.4827 91.9903 25.888C90.449 27.2707 88.613 28.0187 86.4823 28.132C86.4597 28.5173 86.437 28.812 86.4143 29.016C86.4143 29.1973 86.4143 29.356 86.4143 29.492C86.4143 30.5347 86.5843 31.2713 86.9243 31.702C87.287 32.1327 87.933 32.348 88.8623 32.348C89.9277 32.348 90.9023 32.11 91.7863 31.634C92.693 31.1353 93.7243 30.2287 94.8803 28.914H96.0363C94.7217 31.0447 93.2937 32.6313 91.7523 33.674C90.211 34.694 88.5223 35.204 86.6863 35.204C84.941 35.204 83.615 34.7507 82.7083 33.844C81.8243 32.9373 81.3823 31.5887 81.3823 29.798C81.3823 28.506 81.5863 27.1347 81.9943 25.684C82.4023 24.2333 82.9463 22.9413 83.6263 21.808C84.465 20.448 85.4623 19.428 86.6183 18.748C87.797 18.0453 89.1117 17.694 90.5623 17.694C91.809 17.694 92.7383 17.966 93.3503 18.51C93.985 19.0313 94.3023 19.8473 94.3023 20.958ZM90.8343 19.496C90.0637 19.496 89.2817 20.1873 88.4883 21.57C87.7177 22.93 87.1397 24.5733 86.7543 26.5C88.069 26.4093 89.2137 25.8087 90.1883 24.698C91.1857 23.5647 91.6843 22.2953 91.6843 20.89C91.6843 20.414 91.6163 20.0627 91.4803 19.836C91.3443 19.6093 91.129 19.496 90.8343 19.496Z" fill="white"/>
<path d="M96.0964 18H97.2184L98.2383 13.308L103.27 12.628L102.114 18H104.154L103.882 19.36H101.842L99.6664 29.56C99.621 29.764 99.587 29.9567 99.5644 30.138C99.5417 30.2967 99.5304 30.4667 99.5304 30.648C99.5304 31.1013 99.6324 31.43 99.8364 31.634C100.063 31.8153 100.426 31.906 100.924 31.906C101.559 31.906 102.16 31.634 102.726 31.09C103.293 30.5233 103.712 29.798 103.984 28.914H105.412C104.687 30.9767 103.712 32.5407 102.488 33.606C101.264 34.6713 99.859 35.204 98.2724 35.204C97.139 35.204 96.2437 34.8527 95.5864 34.15C94.9517 33.4247 94.6343 32.416 94.6343 31.124C94.6343 30.8293 94.657 30.5007 94.7024 30.138C94.7477 29.7527 94.8157 29.3447 94.9064 28.914L96.9464 19.36H95.8244L96.0964 18Z" fill="white"/>
<path d="M107.575 35H102.679L106.283 18H111.179L110.737 20.108C111.734 19.2693 112.516 18.714 113.083 18.442C113.672 18.1473 114.261 18 114.851 18C115.553 18 116.12 18.2493 116.551 18.748C116.981 19.224 117.197 19.8247 117.197 20.55C117.197 21.2527 116.97 21.842 116.517 22.318C116.063 22.794 115.474 23.032 114.749 23.032C114.363 23.032 114.057 22.9413 113.831 22.76C113.627 22.5787 113.479 22.2047 113.389 21.638C113.321 21.2753 113.241 21.0487 113.151 20.958C113.06 20.8447 112.935 20.788 112.777 20.788C112.391 20.788 112.029 20.8673 111.689 21.026C111.349 21.1847 110.884 21.536 110.295 22.08L107.575 35Z" fill="white"/>
<path d="M116.178 29.764C116.178 28.472 116.382 27.1007 116.79 25.65C117.221 24.1993 117.799 22.9073 118.524 21.774C119.363 20.4367 120.372 19.428 121.55 18.748C122.729 18.0453 124.044 17.694 125.494 17.694C126.945 17.694 128.033 18.1473 128.758 19.054C129.484 19.9607 129.846 21.3207 129.846 23.134C129.892 23.1567 129.937 23.1793 129.982 23.202C130.05 23.202 130.13 23.202 130.22 23.202C130.923 23.202 131.762 23.0093 132.736 22.624C133.711 22.2387 134.618 21.7513 135.456 21.162L135.762 22.08C135.128 22.76 134.278 23.3493 133.212 23.848C132.17 24.3467 131.014 24.698 129.744 24.902C129.472 27.962 128.588 30.4327 127.092 32.314C125.596 34.1953 123.772 35.136 121.618 35.136C119.85 35.136 118.502 34.6827 117.572 33.776C116.643 32.8693 116.178 31.532 116.178 29.764ZM125.766 19.768C124.678 19.768 123.647 20.8673 122.672 23.066C121.72 25.2647 121.244 27.35 121.244 29.322C121.244 30.3873 121.358 31.1127 121.584 31.498C121.834 31.8833 122.298 32.076 122.978 32.076C123.817 32.076 124.61 31.396 125.358 30.036C126.129 28.676 126.65 26.9987 126.922 25.004C126.605 24.936 126.367 24.7887 126.208 24.562C126.072 24.3127 126.004 23.984 126.004 23.576C126.004 23.1453 126.095 22.7713 126.276 22.454C126.458 22.1367 126.718 21.8987 127.058 21.74C127.013 21.0147 126.888 20.5047 126.684 20.21C126.503 19.9153 126.197 19.768 125.766 19.768Z" fill="white"/>
</g>
</svg>
