<svg width="110" height="26" viewBox="0 0 110 26" fill="none" xmlns="http://www.w3.org/2000/svg">
<path d="M5.83945 25H0.439453V0.879997H13.7595C19.6995 0.879997 23.0835 3.508 23.0835 8.116C23.0835 12.04 20.8155 14.38 16.2795 14.812V15.1C18.4395 15.676 19.2675 16.828 20.1675 18.52L23.6595 25H17.3955L14.0835 18.736C13.1115 16.864 12.2115 16.252 9.40345 16.252H5.83945V25ZM5.83945 5.74V12.184H13.7235C16.2795 12.184 17.4315 11.464 17.4315 8.944C17.4315 6.568 16.2795 5.74 13.7235 5.74H5.83945Z" fill="white"/>
<path d="M34.9412 25.36C28.9292 25.36 24.8252 22.408 24.8252 16C24.8252 10.24 28.8932 6.604 34.8332 6.604C40.7372 6.604 44.6612 9.7 44.6612 15.352C44.6612 16 44.5892 16.468 44.5172 17.08H29.8292C29.9732 19.852 31.2692 21.04 34.7612 21.04C37.9652 21.04 39.0812 20.212 39.0812 18.664V18.304H44.4812V18.7C44.4812 22.624 40.6652 25.36 34.9412 25.36ZM34.7252 10.816C31.5212 10.816 30.1532 11.896 29.9012 14.236H39.4772C39.3332 11.86 37.8932 10.816 34.7252 10.816Z" fill="white"/>
<path d="M59.6592 25H55.1952C50.9832 25 48.4272 23.02 48.4272 18.484V11.428H45.5832V6.964H48.4272V3.472H53.8272V6.964H59.6592V11.428H53.8272V17.872C53.8272 19.672 54.5112 20.14 56.4192 20.14H59.6592V25Z" fill="white"/>
<path d="M67.0816 25H61.6816V6.964H66.6856V11.752H67.0096C67.5136 8.836 69.4216 6.604 73.0576 6.604C77.0896 6.604 78.7456 9.376 78.7456 12.904V15.892H73.3456V14.02C73.3456 12.04 72.5536 11.176 70.3576 11.176C67.9456 11.176 67.0816 12.292 67.0816 14.56V25Z" fill="white"/>
<path d="M90.3132 25.36C84.1572 25.36 80.0172 21.688 80.0172 16C80.0172 10.24 84.1572 6.604 90.3132 6.604C96.4692 6.604 100.609 10.24 100.609 16C100.609 21.688 96.4692 25.36 90.3132 25.36ZM90.3132 20.572C93.9492 20.572 95.2452 19.168 95.2452 16C95.2452 12.832 93.9492 11.356 90.3132 11.356C86.6412 11.356 85.3812 12.832 85.3812 16C85.3812 19.168 86.6412 20.572 90.3132 20.572Z" fill="white"/>
<path d="M109.402 25H102.454V18.7H109.402V25Z" fill="white"/>
</svg>
