<svg width="136" height="43" viewBox="0 0 136 43" fill="none" xmlns="http://www.w3.org/2000/svg">
<circle cx="20.5" cy="20.5" r="20.5" fill="white" fill-opacity="0.2"/>
<path d="M69.4954 35H64.5994L69.2234 13.376L74.2554 12.696L72.5894 20.55H72.8614C74.1534 20.55 75.2754 19.9267 76.2274 18.68C77.2021 17.4333 77.6894 16.0847 77.6894 14.634C77.6894 13.5233 77.3608 12.6507 76.7034 12.016C76.0461 11.3813 75.1281 11.064 73.9494 11.064C71.1388 11.064 68.9061 11.812 67.2514 13.308C65.5968 14.7813 64.7694 16.7873 64.7694 19.326C64.7694 19.7567 64.7921 20.1307 64.8374 20.448C64.9054 20.7653 65.0074 21.0713 65.1434 21.366C65.1888 21.4567 65.2114 21.5247 65.2114 21.57C65.2341 21.5927 65.2454 21.6153 65.2454 21.638C63.9761 21.638 63.0468 21.3773 62.4574 20.856C61.8908 20.312 61.6074 19.4733 61.6074 18.34C61.6074 17.2067 61.9814 16.0733 62.7294 14.94C63.5001 13.8067 64.5654 12.7867 65.9254 11.88C67.0814 11.132 68.3168 10.554 69.6314 10.146C70.9688 9.71533 72.2721 9.5 73.5414 9.5C75.9214 9.5 77.8028 9.99867 79.1854 10.996C80.5681 11.9933 81.2594 13.308 81.2594 14.94C81.2594 16.028 80.9194 17.1047 80.2394 18.17C79.5821 19.2353 78.6981 20.0967 77.5874 20.754C78.3808 20.9807 78.9701 21.3773 79.3554 21.944C79.7408 22.488 79.9334 23.2247 79.9334 24.154C79.9334 24.6753 79.8768 25.276 79.7634 25.956C79.6501 26.6133 79.4008 27.622 79.0154 28.982C78.6981 30.138 78.4941 30.9653 78.4034 31.464C78.3128 31.9627 78.2674 32.3933 78.2674 32.756C78.2674 33.2773 78.3808 33.742 78.6074 34.15C78.8568 34.558 79.1854 34.8413 79.5934 35C78.9361 35.1813 78.3128 35.3173 77.7234 35.408C77.1568 35.5213 76.6581 35.578 76.2274 35.578C75.3434 35.578 74.6748 35.3853 74.2214 35C73.7908 34.6373 73.5754 34.0707 73.5754 33.3C73.5754 32.9147 73.6321 32.45 73.7454 31.906C73.8588 31.3393 74.0854 30.41 74.4254 29.118C74.8108 27.7127 75.0601 26.6927 75.1734 26.058C75.3094 25.4007 75.3774 24.834 75.3774 24.358C75.3774 23.5873 75.2074 23.0093 74.8674 22.624C74.5274 22.2387 74.0174 22.046 73.3374 22.046C73.2468 22.046 73.1448 22.0573 73.0314 22.08C72.9408 22.08 72.6688 22.114 72.2154 22.182L69.4954 35Z" fill="white"/>
<path d="M94.3013 20.958C94.3013 22.8393 93.5307 24.4827 91.9893 25.888C90.448 27.2707 88.612 28.0187 86.4813 28.132C86.4587 28.5173 86.436 28.812 86.4133 29.016C86.4133 29.1973 86.4133 29.356 86.4133 29.492C86.4133 30.5347 86.5833 31.2713 86.9233 31.702C87.286 32.1327 87.932 32.348 88.8613 32.348C89.9267 32.348 90.9013 32.11 91.7853 31.634C92.692 31.1353 93.7233 30.2287 94.8793 28.914H96.0353C94.7207 31.0447 93.2927 32.6313 91.7513 33.674C90.21 34.694 88.5213 35.204 86.6853 35.204C84.94 35.204 83.614 34.7507 82.7073 33.844C81.8233 32.9373 81.3813 31.5887 81.3813 29.798C81.3813 28.506 81.5853 27.1347 81.9933 25.684C82.4013 24.2333 82.9453 22.9413 83.6253 21.808C84.464 20.448 85.4613 19.428 86.6173 18.748C87.796 18.0453 89.1107 17.694 90.5613 17.694C91.808 17.694 92.7373 17.966 93.3493 18.51C93.984 19.0313 94.3013 19.8473 94.3013 20.958ZM90.8333 19.496C90.0627 19.496 89.2807 20.1873 88.4873 21.57C87.7167 22.93 87.1387 24.5733 86.7533 26.5C88.068 26.4093 89.2127 25.8087 90.1873 24.698C91.1847 23.5647 91.6833 22.2953 91.6833 20.89C91.6833 20.414 91.6153 20.0627 91.4793 19.836C91.3433 19.6093 91.128 19.496 90.8333 19.496Z" fill="white"/>
<path d="M96.0954 18H97.2174L98.2374 13.308L103.269 12.628L102.113 18H104.153L103.881 19.36H101.841L99.6654 29.56C99.62 29.764 99.586 29.9567 99.5634 30.138C99.5407 30.2967 99.5294 30.4667 99.5294 30.648C99.5294 31.1013 99.6314 31.43 99.8354 31.634C100.062 31.8153 100.425 31.906 100.923 31.906C101.558 31.906 102.159 31.634 102.725 31.09C103.292 30.5233 103.711 29.798 103.983 28.914H105.411C104.686 30.9767 103.711 32.5407 102.487 33.606C101.263 34.6713 99.858 35.204 98.2714 35.204C97.138 35.204 96.2427 34.8527 95.5854 34.15C94.9507 33.4247 94.6334 32.416 94.6334 31.124C94.6334 30.8293 94.656 30.5007 94.7014 30.138C94.7467 29.7527 94.8147 29.3447 94.9054 28.914L96.9454 19.36H95.8234L96.0954 18Z" fill="white"/>
<path d="M107.574 35H102.678L106.282 18H111.178L110.736 20.108C111.733 19.2693 112.515 18.714 113.082 18.442C113.671 18.1473 114.26 18 114.85 18C115.552 18 116.119 18.2493 116.55 18.748C116.98 19.224 117.196 19.8247 117.196 20.55C117.196 21.2527 116.969 21.842 116.516 22.318C116.062 22.794 115.473 23.032 114.748 23.032C114.362 23.032 114.056 22.9413 113.83 22.76C113.626 22.5787 113.478 22.2047 113.388 21.638C113.32 21.2753 113.24 21.0487 113.15 20.958C113.059 20.8447 112.934 20.788 112.776 20.788C112.39 20.788 112.028 20.8673 111.688 21.026C111.348 21.1847 110.883 21.536 110.294 22.08L107.574 35Z" fill="white"/>
<path d="M116.177 29.764C116.177 28.472 116.381 27.1007 116.789 25.65C117.22 24.1993 117.798 22.9073 118.523 21.774C119.362 20.4367 120.371 19.428 121.549 18.748C122.728 18.0453 124.043 17.694 125.493 17.694C126.944 17.694 128.032 18.1473 128.757 19.054C129.483 19.9607 129.845 21.3207 129.845 23.134C129.891 23.1567 129.936 23.1793 129.981 23.202C130.049 23.202 130.129 23.202 130.219 23.202C130.922 23.202 131.761 23.0093 132.735 22.624C133.71 22.2387 134.617 21.7513 135.455 21.162L135.761 22.08C135.127 22.76 134.277 23.3493 133.211 23.848C132.169 24.3467 131.013 24.698 129.743 24.902C129.471 27.962 128.587 30.4327 127.091 32.314C125.595 34.1953 123.771 35.136 121.617 35.136C119.849 35.136 118.501 34.6827 117.571 33.776C116.642 32.8693 116.177 31.532 116.177 29.764ZM125.765 19.768C124.677 19.768 123.646 20.8673 122.671 23.066C121.719 25.2647 121.243 27.35 121.243 29.322C121.243 30.3873 121.357 31.1127 121.583 31.498C121.833 31.8833 122.297 32.076 122.977 32.076C123.816 32.076 124.609 31.396 125.357 30.036C126.128 28.676 126.649 26.9987 126.921 25.004C126.604 24.936 126.366 24.7887 126.207 24.562C126.071 24.3127 126.003 23.984 126.003 23.576C126.003 23.1453 126.094 22.7713 126.275 22.454C126.457 22.1367 126.717 21.8987 127.057 21.74C127.012 21.0147 126.887 20.5047 126.683 20.21C126.502 19.9153 126.196 19.768 125.765 19.768Z" fill="white"/>
<path d="M28.2656 21.2C30.4434 22.9111 36.0123 25.3067 40.8656 21.2" stroke="#FF481F" stroke-width="4" stroke-linecap="round"/>
<path d="M41.0019 11H28.5981C22.7449 11 18 15.7449 18 21.5981V24.7027C18 28.8413 21.355 32.1963 25.4935 32.1963V39L36.2 32.1963H41.0019C46.8551 32.1963 51.6 27.4513 51.6 21.5981C51.6 15.7449 46.855 11 41.0019 11Z" stroke="#FF481F" stroke-width="4"/>
</svg>
