<svg width="138" height="52" viewBox="0 0 138 52" fill="none" xmlns="http://www.w3.org/2000/svg">
<mask id="mask0_2557_199" style="mask-type:alpha" maskUnits="userSpaceOnUse" x="0" y="0" width="138" height="52">
<rect width="138" height="52" fill="#D9D9D9"/>
</mask>
<g mask="url(#mask0_2557_199)">
<circle cx="26" cy="26" r="26" fill="#FF640F"/>
<path d="M184.495 8776H179.599L184.223 8754.38L189.255 8753.7L187.589 8761.55H187.861C189.153 8761.55 190.275 8760.93 191.227 8759.68C192.202 8758.43 192.689 8757.08 192.689 8755.63C192.689 8754.52 192.361 8753.65 191.703 8753.02C191.046 8752.38 190.128 8752.06 188.949 8752.06C186.139 8752.06 183.906 8752.81 182.251 8754.31C180.597 8755.78 179.769 8757.79 179.769 8760.33C179.769 8760.76 179.792 8761.13 179.837 8761.45C179.905 8761.77 180.007 8762.07 180.143 8762.37C180.189 8762.46 180.211 8762.53 180.211 8762.57C180.234 8762.59 180.245 8762.62 180.245 8762.64C178.976 8762.64 178.047 8762.38 177.457 8761.86C176.891 8761.31 176.607 8760.47 176.607 8759.34C176.607 8758.21 176.981 8757.07 177.729 8755.94C178.5 8754.81 179.565 8753.79 180.925 8752.88C182.081 8752.13 183.317 8751.55 184.631 8751.15C185.969 8750.72 187.272 8750.5 188.541 8750.5C190.921 8750.5 192.803 8751 194.185 8752C195.568 8752.99 196.259 8754.31 196.259 8755.94C196.259 8757.03 195.919 8758.1 195.239 8759.17C194.582 8760.24 193.698 8761.1 192.587 8761.75C193.381 8761.98 193.97 8762.38 194.355 8762.94C194.741 8763.49 194.933 8764.22 194.933 8765.15C194.933 8765.68 194.877 8766.28 194.763 8766.96C194.65 8767.61 194.401 8768.62 194.015 8769.98C193.698 8771.14 193.494 8771.96 193.403 8772.46C193.313 8772.96 193.267 8773.39 193.267 8773.76C193.267 8774.28 193.381 8774.74 193.607 8775.15C193.857 8775.56 194.185 8775.84 194.593 8776C193.936 8776.18 193.313 8776.32 192.723 8776.41C192.157 8776.52 191.658 8776.58 191.227 8776.58C190.343 8776.58 189.675 8776.39 189.221 8776C188.791 8775.64 188.575 8775.07 188.575 8774.3C188.575 8773.91 188.632 8773.45 188.745 8772.91C188.859 8772.34 189.085 8771.41 189.425 8770.12C189.811 8768.71 190.06 8767.69 190.173 8767.06C190.309 8766.4 190.377 8765.83 190.377 8765.36C190.377 8764.59 190.207 8764.01 189.867 8763.62C189.527 8763.24 189.017 8763.05 188.337 8763.05C188.247 8763.05 188.145 8763.06 188.031 8763.08C187.941 8763.08 187.669 8763.11 187.215 8763.18L184.495 8776Z" fill="white"/>
<path d="M209.301 8761.96C209.301 8763.84 208.531 8765.48 206.989 8766.89C205.448 8768.27 203.612 8769.02 201.481 8769.13C201.459 8769.52 201.436 8769.81 201.413 8770.02C201.413 8770.2 201.413 8770.36 201.413 8770.49C201.413 8771.54 201.583 8772.27 201.923 8772.7C202.286 8773.13 202.932 8773.35 203.861 8773.35C204.927 8773.35 205.901 8773.11 206.785 8772.63C207.692 8772.13 208.723 8771.23 209.879 8769.91H211.035C209.721 8772.04 208.293 8773.63 206.751 8774.67C205.21 8775.69 203.521 8776.2 201.685 8776.2C199.94 8776.2 198.614 8775.75 197.707 8774.84C196.823 8773.94 196.381 8772.59 196.381 8770.8C196.381 8769.51 196.585 8768.13 196.993 8766.68C197.401 8765.23 197.945 8763.94 198.625 8762.81C199.464 8761.45 200.461 8760.43 201.617 8759.75C202.796 8759.04 204.111 8758.69 205.561 8758.69C206.808 8758.69 207.737 8758.97 208.349 8759.51C208.984 8760.03 209.301 8760.85 209.301 8761.96ZM205.833 8760.5C205.063 8760.5 204.281 8761.19 203.487 8762.57C202.717 8763.93 202.139 8765.57 201.753 8767.5C203.068 8767.41 204.213 8766.81 205.187 8765.7C206.185 8764.56 206.683 8763.29 206.683 8761.89C206.683 8761.41 206.615 8761.06 206.479 8760.84C206.343 8760.61 206.128 8760.5 205.833 8760.5Z" fill="white"/>
<path d="M211.095 8759H212.217L213.237 8754.31L218.269 8753.63L217.113 8759H219.153L218.881 8760.36H216.841L214.665 8770.56C214.62 8770.76 214.586 8770.96 214.563 8771.14C214.541 8771.3 214.529 8771.47 214.529 8771.65C214.529 8772.1 214.631 8772.43 214.835 8772.63C215.062 8772.82 215.425 8772.91 215.923 8772.91C216.558 8772.91 217.159 8772.63 217.725 8772.09C218.292 8771.52 218.711 8770.8 218.983 8769.91H220.411C219.686 8771.98 218.711 8773.54 217.487 8774.61C216.263 8775.67 214.858 8776.2 213.271 8776.2C212.138 8776.2 211.243 8775.85 210.585 8775.15C209.951 8774.42 209.633 8773.42 209.633 8772.12C209.633 8771.83 209.656 8771.5 209.701 8771.14C209.747 8770.75 209.815 8770.34 209.905 8769.91L211.945 8760.36H210.823L211.095 8759Z" fill="white"/>
<path d="M222.574 8776H217.678L221.282 8759H226.178L225.736 8761.11C226.733 8760.27 227.515 8759.71 228.082 8759.44C228.671 8759.15 229.26 8759 229.85 8759C230.552 8759 231.119 8759.25 231.55 8759.75C231.98 8760.22 232.196 8760.82 232.196 8761.55C232.196 8762.25 231.969 8762.84 231.516 8763.32C231.062 8763.79 230.473 8764.03 229.748 8764.03C229.363 8764.03 229.057 8763.94 228.83 8763.76C228.626 8763.58 228.479 8763.2 228.388 8762.64C228.32 8762.28 228.24 8762.05 228.15 8761.96C228.059 8761.84 227.934 8761.79 227.776 8761.79C227.391 8761.79 227.028 8761.87 226.688 8762.03C226.348 8762.18 225.883 8762.54 225.294 8763.08L222.574 8776Z" fill="white"/>
<path d="M231.177 8770.76C231.177 8769.47 231.381 8768.1 231.789 8766.65C232.22 8765.2 232.798 8763.91 233.523 8762.77C234.362 8761.44 235.371 8760.43 236.549 8759.75C237.728 8759.04 239.043 8758.69 240.493 8758.69C241.944 8758.69 243.032 8759.15 243.757 8760.05C244.483 8760.96 244.845 8762.32 244.845 8764.13C244.891 8764.16 244.936 8764.18 244.981 8764.2C245.049 8764.2 245.129 8764.2 245.219 8764.2C245.922 8764.2 246.761 8764.01 247.735 8763.62C248.71 8763.24 249.617 8762.75 250.455 8762.16L250.761 8763.08C250.127 8763.76 249.277 8764.35 248.211 8764.85C247.169 8765.35 246.013 8765.7 244.743 8765.9C244.471 8768.96 243.587 8771.43 242.091 8773.31C240.595 8775.2 238.771 8776.14 236.617 8776.14C234.849 8776.14 233.501 8775.68 232.571 8774.78C231.642 8773.87 231.177 8772.53 231.177 8770.76ZM240.765 8760.77C239.677 8760.77 238.646 8761.87 237.671 8764.07C236.719 8766.26 236.243 8768.35 236.243 8770.32C236.243 8771.39 236.357 8772.11 236.583 8772.5C236.833 8772.88 237.297 8773.08 237.977 8773.08C238.816 8773.08 239.609 8772.4 240.357 8771.04C241.128 8769.68 241.649 8768 241.921 8766C241.604 8765.94 241.366 8765.79 241.207 8765.56C241.071 8765.31 241.003 8764.98 241.003 8764.58C241.003 8764.15 241.094 8763.77 241.275 8763.45C241.457 8763.14 241.717 8762.9 242.057 8762.74C242.012 8762.01 241.887 8761.5 241.683 8761.21C241.502 8760.92 241.196 8760.77 240.765 8760.77Z" fill="white"/>
<path d="M69.4954 35H64.5994L69.2234 13.376L74.2554 12.696L72.5894 20.55H72.8614C74.1534 20.55 75.2754 19.9267 76.2274 18.68C77.2021 17.4333 77.6894 16.0847 77.6894 14.634C77.6894 13.5233 77.3608 12.6507 76.7034 12.016C76.0461 11.3813 75.1281 11.064 73.9494 11.064C71.1388 11.064 68.9061 11.812 67.2514 13.308C65.5968 14.7813 64.7694 16.7873 64.7694 19.326C64.7694 19.7567 64.7921 20.1307 64.8374 20.448C64.9054 20.7653 65.0074 21.0713 65.1434 21.366C65.1888 21.4567 65.2114 21.5247 65.2114 21.57C65.2341 21.5927 65.2454 21.6153 65.2454 21.638C63.9761 21.638 63.0468 21.3773 62.4574 20.856C61.8908 20.312 61.6074 19.4733 61.6074 18.34C61.6074 17.2067 61.9814 16.0733 62.7294 14.94C63.5001 13.8067 64.5654 12.7867 65.9254 11.88C67.0814 11.132 68.3168 10.554 69.6314 10.146C70.9688 9.71533 72.2721 9.5 73.5414 9.5C75.9214 9.5 77.8028 9.99867 79.1854 10.996C80.5681 11.9933 81.2594 13.308 81.2594 14.94C81.2594 16.028 80.9194 17.1047 80.2394 18.17C79.5821 19.2353 78.6981 20.0967 77.5874 20.754C78.3808 20.9807 78.9701 21.3773 79.3554 21.944C79.7408 22.488 79.9334 23.2247 79.9334 24.154C79.9334 24.6753 79.8768 25.276 79.7634 25.956C79.6501 26.6133 79.4008 27.622 79.0154 28.982C78.6981 30.138 78.4941 30.9653 78.4034 31.464C78.3128 31.9627 78.2674 32.3933 78.2674 32.756C78.2674 33.2773 78.3808 33.742 78.6074 34.15C78.8568 34.558 79.1854 34.8413 79.5934 35C78.9361 35.1813 78.3128 35.3173 77.7234 35.408C77.1568 35.5213 76.6581 35.578 76.2274 35.578C75.3434 35.578 74.6748 35.3853 74.2214 35C73.7908 34.6373 73.5754 34.0707 73.5754 33.3C73.5754 32.9147 73.6321 32.45 73.7454 31.906C73.8588 31.3393 74.0854 30.41 74.4254 29.118C74.8108 27.7127 75.0601 26.6927 75.1734 26.058C75.3094 25.4007 75.3774 24.834 75.3774 24.358C75.3774 23.5873 75.2074 23.0093 74.8674 22.624C74.5274 22.2387 74.0174 22.046 73.3374 22.046C73.2468 22.046 73.1448 22.0573 73.0314 22.08C72.9408 22.08 72.6688 22.114 72.2154 22.182L69.4954 35Z" fill="white"/>
<path d="M94.3013 20.958C94.3013 22.8393 93.5307 24.4827 91.9893 25.888C90.448 27.2707 88.612 28.0187 86.4813 28.132C86.4587 28.5173 86.436 28.812 86.4133 29.016C86.4133 29.1973 86.4133 29.356 86.4133 29.492C86.4133 30.5347 86.5833 31.2713 86.9233 31.702C87.286 32.1327 87.932 32.348 88.8613 32.348C89.9267 32.348 90.9013 32.11 91.7853 31.634C92.692 31.1353 93.7233 30.2287 94.8793 28.914H96.0353C94.7207 31.0447 93.2927 32.6313 91.7513 33.674C90.21 34.694 88.5213 35.204 86.6853 35.204C84.94 35.204 83.614 34.7507 82.7073 33.844C81.8233 32.9373 81.3813 31.5887 81.3813 29.798C81.3813 28.506 81.5853 27.1347 81.9933 25.684C82.4013 24.2333 82.9453 22.9413 83.6253 21.808C84.464 20.448 85.4613 19.428 86.6173 18.748C87.796 18.0453 89.1107 17.694 90.5613 17.694C91.808 17.694 92.7373 17.966 93.3493 18.51C93.984 19.0313 94.3013 19.8473 94.3013 20.958ZM90.8333 19.496C90.0627 19.496 89.2807 20.1873 88.4873 21.57C87.7167 22.93 87.1387 24.5733 86.7533 26.5C88.068 26.4093 89.2127 25.8087 90.1873 24.698C91.1847 23.5647 91.6833 22.2953 91.6833 20.89C91.6833 20.414 91.6153 20.0627 91.4793 19.836C91.3433 19.6093 91.128 19.496 90.8333 19.496Z" fill="white"/>
<path d="M96.0954 18H97.2174L98.2374 13.308L103.269 12.628L102.113 18H104.153L103.881 19.36H101.841L99.6654 29.56C99.62 29.764 99.586 29.9567 99.5634 30.138C99.5407 30.2967 99.5294 30.4667 99.5294 30.648C99.5294 31.1013 99.6314 31.43 99.8354 31.634C100.062 31.8153 100.425 31.906 100.923 31.906C101.558 31.906 102.159 31.634 102.725 31.09C103.292 30.5233 103.711 29.798 103.983 28.914H105.411C104.686 30.9767 103.711 32.5407 102.487 33.606C101.263 34.6713 99.858 35.204 98.2714 35.204C97.138 35.204 96.2427 34.8527 95.5854 34.15C94.9507 33.4247 94.6334 32.416 94.6334 31.124C94.6334 30.8293 94.656 30.5007 94.7014 30.138C94.7467 29.7527 94.8147 29.3447 94.9054 28.914L96.9454 19.36H95.8234L96.0954 18Z" fill="white"/>
<path d="M107.574 35H102.678L106.282 18H111.178L110.736 20.108C111.733 19.2693 112.515 18.714 113.082 18.442C113.671 18.1473 114.26 18 114.85 18C115.552 18 116.119 18.2493 116.55 18.748C116.98 19.224 117.196 19.8247 117.196 20.55C117.196 21.2527 116.969 21.842 116.516 22.318C116.062 22.794 115.473 23.032 114.748 23.032C114.362 23.032 114.056 22.9413 113.83 22.76C113.626 22.5787 113.478 22.2047 113.388 21.638C113.32 21.2753 113.24 21.0487 113.15 20.958C113.059 20.8447 112.934 20.788 112.776 20.788C112.39 20.788 112.028 20.8673 111.688 21.026C111.348 21.1847 110.883 21.536 110.294 22.08L107.574 35Z" fill="white"/>
<path d="M116.177 29.764C116.177 28.472 116.381 27.1007 116.789 25.65C117.22 24.1993 117.798 22.9073 118.523 21.774C119.362 20.4367 120.371 19.428 121.549 18.748C122.728 18.0453 124.043 17.694 125.493 17.694C126.944 17.694 128.032 18.1473 128.757 19.054C129.483 19.9607 129.845 21.3207 129.845 23.134C129.891 23.1567 129.936 23.1793 129.981 23.202C130.049 23.202 130.129 23.202 130.219 23.202C130.922 23.202 131.761 23.0093 132.735 22.624C133.71 22.2387 134.617 21.7513 135.455 21.162L135.761 22.08C135.127 22.76 134.277 23.3493 133.211 23.848C132.169 24.3467 131.013 24.698 129.743 24.902C129.471 27.962 128.587 30.4327 127.091 32.314C125.595 34.1953 123.771 35.136 121.617 35.136C119.849 35.136 118.501 34.6827 117.571 33.776C116.642 32.8693 116.177 31.532 116.177 29.764ZM125.765 19.768C124.677 19.768 123.646 20.8673 122.671 23.066C121.719 25.2647 121.243 27.35 121.243 29.322C121.243 30.3873 121.357 31.1127 121.583 31.498C121.833 31.8833 122.297 32.076 122.977 32.076C123.816 32.076 124.609 31.396 125.357 30.036C126.128 28.676 126.649 26.9987 126.921 25.004C126.604 24.936 126.366 24.7887 126.207 24.562C126.071 24.3127 126.003 23.984 126.003 23.576C126.003 23.1453 126.094 22.7713 126.275 22.454C126.457 22.1367 126.717 21.8987 127.057 21.74C127.012 21.0147 126.887 20.5047 126.683 20.21C126.502 19.9153 126.196 19.768 125.765 19.768Z" fill="white"/>
<path d="M28.2656 21.2C30.4434 22.9111 36.0123 25.3067 40.8656 21.2" stroke="white" stroke-width="4" stroke-linecap="round"/>
<path d="M41.0019 11H28.5981C22.7449 11 18 15.7449 18 21.5981V24.7027C18 28.8413 21.355 32.1963 25.4935 32.1963V39L36.2 32.1963H41.0019C46.8551 32.1963 51.6 27.4513 51.6 21.5981C51.6 15.7449 46.855 11 41.0019 11Z" stroke="white" stroke-width="4"/>
</g>
</svg>
