<svg width="120" height="35" viewBox="0 0 120 35" fill="none" xmlns="http://www.w3.org/2000/svg">
<path d="M53.4963 26H48.6003L53.2243 4.376L58.2563 3.696L56.5903 11.55H56.8623C58.1543 11.55 59.2763 10.9267 60.2283 9.68C61.2029 8.43333 61.6903 7.08467 61.6903 5.634C61.6903 4.52333 61.3616 3.65067 60.7043 3.016C60.0469 2.38133 59.1289 2.064 57.9503 2.064C55.1396 2.064 52.9069 2.812 51.2523 4.308C49.5976 5.78133 48.7703 7.78733 48.7703 10.326C48.7703 10.7567 48.7929 11.1307 48.8383 11.448C48.9063 11.7653 49.0083 12.0713 49.1443 12.366C49.1896 12.4567 49.2123 12.5247 49.2123 12.57C49.2349 12.5927 49.2463 12.6153 49.2463 12.638C47.9769 12.638 47.0476 12.3773 46.4583 11.856C45.8916 11.312 45.6083 10.4733 45.6083 9.34C45.6083 8.20667 45.9823 7.07333 46.7303 5.94C47.5009 4.80667 48.5663 3.78667 49.9263 2.88C51.0823 2.132 52.3176 1.554 53.6323 1.146C54.9696 0.715334 56.2729 0.5 57.5423 0.5C59.9223 0.5 61.8036 0.998667 63.1863 1.996C64.5689 2.99333 65.2603 4.308 65.2603 5.94C65.2603 7.028 64.9203 8.10467 64.2403 9.17C63.5829 10.2353 62.6989 11.0967 61.5883 11.754C62.3816 11.9807 62.9709 12.3773 63.3563 12.944C63.7416 13.488 63.9343 14.2247 63.9343 15.154C63.9343 15.6753 63.8776 16.276 63.7643 16.956C63.6509 17.6133 63.4016 18.622 63.0163 19.982C62.6989 21.138 62.4949 21.9653 62.4043 22.464C62.3136 22.9627 62.2683 23.3933 62.2683 23.756C62.2683 24.2773 62.3816 24.742 62.6083 25.15C62.8576 25.558 63.1863 25.8413 63.5943 26C62.9369 26.1813 62.3136 26.3173 61.7243 26.408C61.1576 26.5213 60.6589 26.578 60.2283 26.578C59.3443 26.578 58.6756 26.3853 58.2223 26C57.7916 25.6373 57.5763 25.0707 57.5763 24.3C57.5763 23.9147 57.6329 23.45 57.7463 22.906C57.8596 22.3393 58.0863 21.41 58.4263 20.118C58.8116 18.7127 59.0609 17.6927 59.1743 17.058C59.3103 16.4007 59.3783 15.834 59.3783 15.358C59.3783 14.5873 59.2083 14.0093 58.8683 13.624C58.5283 13.2387 58.0183 13.046 57.3383 13.046C57.2476 13.046 57.1456 13.0573 57.0323 13.08C56.9416 13.08 56.6696 13.114 56.2163 13.182L53.4963 26Z" fill="white"/>
<path d="M78.3022 11.958C78.3022 13.8393 77.5315 15.4827 75.9902 16.888C74.4489 18.2707 72.6129 19.0187 70.4822 19.132C70.4595 19.5173 70.4369 19.812 70.4142 20.016C70.4142 20.1973 70.4142 20.356 70.4142 20.492C70.4142 21.5347 70.5842 22.2713 70.9242 22.702C71.2869 23.1327 71.9329 23.348 72.8622 23.348C73.9275 23.348 74.9022 23.11 75.7862 22.634C76.6929 22.1353 77.7242 21.2287 78.8802 19.914H80.0362C78.7215 22.0447 77.2935 23.6313 75.7522 24.674C74.2109 25.694 72.5222 26.204 70.6862 26.204C68.9409 26.204 67.6149 25.7507 66.7082 24.844C65.8242 23.9373 65.3822 22.5887 65.3822 20.798C65.3822 19.506 65.5862 18.1347 65.9942 16.684C66.4022 15.2333 66.9462 13.9413 67.6262 12.808C68.4649 11.448 69.4622 10.428 70.6182 9.748C71.7969 9.04533 73.1115 8.694 74.5622 8.694C75.8089 8.694 76.7382 8.966 77.3502 9.51C77.9849 10.0313 78.3022 10.8473 78.3022 11.958ZM74.8342 10.496C74.0635 10.496 73.2815 11.1873 72.4882 12.57C71.7175 13.93 71.1395 15.5733 70.7542 17.5C72.0689 17.4093 73.2135 16.8087 74.1882 15.698C75.1855 14.5647 75.6842 13.2953 75.6842 11.89C75.6842 11.414 75.6162 11.0627 75.4802 10.836C75.3442 10.6093 75.1289 10.496 74.8342 10.496Z" fill="white"/>
<path d="M80.0962 9H81.2182L82.2382 4.308L87.2702 3.628L86.1142 9H88.1542L87.8822 10.36H85.8422L83.6662 20.56C83.6209 20.764 83.5869 20.9567 83.5642 21.138C83.5416 21.2967 83.5302 21.4667 83.5302 21.648C83.5302 22.1013 83.6322 22.43 83.8362 22.634C84.0629 22.8153 84.4256 22.906 84.9242 22.906C85.5589 22.906 86.1596 22.634 86.7262 22.09C87.2929 21.5233 87.7122 20.798 87.9842 19.914H89.4122C88.6869 21.9767 87.7122 23.5407 86.4882 24.606C85.2642 25.6713 83.8589 26.204 82.2722 26.204C81.1389 26.204 80.2436 25.8527 79.5862 25.15C78.9516 24.4247 78.6342 23.416 78.6342 22.124C78.6342 21.8293 78.6569 21.5007 78.7022 21.138C78.7476 20.7527 78.8156 20.3447 78.9062 19.914L80.9462 10.36H79.8242L80.0962 9Z" fill="white"/>
<path d="M91.5747 26H86.6787L90.2827 9H95.1787L94.7367 11.108C95.734 10.2693 96.516 9.714 97.0827 9.442C97.672 9.14734 98.2614 9 98.8507 9C99.5534 9 100.12 9.24933 100.551 9.748C100.981 10.224 101.197 10.8247 101.197 11.55C101.197 12.2527 100.97 12.842 100.517 13.318C100.063 13.794 99.474 14.032 98.7487 14.032C98.3633 14.032 98.0574 13.9413 97.8307 13.76C97.6267 13.5787 97.4794 13.2047 97.3887 12.638C97.3207 12.2753 97.2414 12.0487 97.1507 11.958C97.06 11.8447 96.9354 11.788 96.7767 11.788C96.3913 11.788 96.0287 11.8673 95.6887 12.026C95.3487 12.1847 94.884 12.536 94.2947 13.08L91.5747 26Z" fill="white"/>
<path d="M100.178 20.764C100.178 19.472 100.382 18.1007 100.79 16.65C101.221 15.1993 101.799 13.9073 102.524 12.774C103.363 11.4367 104.372 10.428 105.55 9.748C106.729 9.04533 108.044 8.694 109.494 8.694C110.945 8.694 112.033 9.14734 112.758 10.054C113.484 10.9607 113.846 12.3207 113.846 14.134C113.892 14.1567 113.937 14.1793 113.982 14.202C114.05 14.202 114.13 14.202 114.22 14.202C114.923 14.202 115.762 14.0093 116.736 13.624C117.711 13.2387 118.618 12.7513 119.456 12.162L119.762 13.08C119.128 13.76 118.278 14.3493 117.212 14.848C116.17 15.3467 115.014 15.698 113.744 15.902C113.472 18.962 112.588 21.4327 111.092 23.314C109.596 25.1953 107.772 26.136 105.618 26.136C103.85 26.136 102.502 25.6827 101.572 24.776C100.643 23.8693 100.178 22.532 100.178 20.764ZM109.766 10.768C108.678 10.768 107.647 11.8673 106.672 14.066C105.72 16.2647 105.244 18.35 105.244 20.322C105.244 21.3873 105.358 22.1127 105.584 22.498C105.834 22.8833 106.298 23.076 106.978 23.076C107.817 23.076 108.61 22.396 109.358 21.036C110.129 19.676 110.65 17.9987 110.922 16.004C110.605 15.936 110.367 15.7887 110.208 15.562C110.072 15.3127 110.004 14.984 110.004 14.576C110.004 14.1453 110.095 13.7713 110.276 13.454C110.458 13.1367 110.718 12.8987 111.058 12.74C111.013 12.0147 110.888 11.5047 110.684 11.21C110.503 10.9153 110.197 10.768 109.766 10.768Z" fill="white"/>
<path d="M12.2666 13.2C14.4444 14.9111 20.0133 17.3067 24.8666 13.2" stroke="#E4E80A" stroke-width="4" stroke-linecap="round"/>
<path d="M25.0019 3H12.5981C6.74494 3 2 7.74494 2 13.5981V16.7027C2 20.8413 5.35496 24.1963 9.49353 24.1963V31L20.2 24.1963H25.0019C30.8551 24.1963 35.6 19.4513 35.6 13.5981C35.6 7.74495 30.855 3 25.0019 3Z" stroke="#E4E80A" stroke-width="4"/>
</svg>
