<svg width="120" height="34" viewBox="0 0 120 34" fill="none" xmlns="http://www.w3.org/2000/svg">
<path d="M53.4964 26H48.6004L53.2244 4.376L58.2564 3.696L56.5904 11.55H56.8624C58.1544 11.55 59.2764 10.9267 60.2284 9.68C61.2031 8.43333 61.6904 7.08467 61.6904 5.634C61.6904 4.52333 61.3617 3.65067 60.7044 3.016C60.0471 2.38133 59.1291 2.064 57.9504 2.064C55.1397 2.064 52.9071 2.812 51.2524 4.308C49.5977 5.78133 48.7704 7.78733 48.7704 10.326C48.7704 10.7567 48.7931 11.1307 48.8384 11.448C48.9064 11.7653 49.0084 12.0713 49.1444 12.366C49.1897 12.4567 49.2124 12.5247 49.2124 12.57C49.2351 12.5927 49.2464 12.6153 49.2464 12.638C47.9771 12.638 47.0477 12.3773 46.4584 11.856C45.8917 11.312 45.6084 10.4733 45.6084 9.34C45.6084 8.20667 45.9824 7.07333 46.7304 5.94C47.5011 4.80667 48.5664 3.78667 49.9264 2.88C51.0824 2.132 52.3177 1.554 53.6324 1.146C54.9697 0.715334 56.2731 0.5 57.5424 0.5C59.9224 0.5 61.8037 0.998667 63.1864 1.996C64.5691 2.99333 65.2604 4.308 65.2604 5.94C65.2604 7.028 64.9204 8.10467 64.2404 9.17C63.5831 10.2353 62.6991 11.0967 61.5884 11.754C62.3817 11.9807 62.9711 12.3773 63.3564 12.944C63.7417 13.488 63.9344 14.2247 63.9344 15.154C63.9344 15.6753 63.8777 16.276 63.7644 16.956C63.6511 17.6133 63.4017 18.622 63.0164 19.982C62.6991 21.138 62.4951 21.9653 62.4044 22.464C62.3137 22.9627 62.2684 23.3933 62.2684 23.756C62.2684 24.2773 62.3817 24.742 62.6084 25.15C62.8577 25.558 63.1864 25.8413 63.5944 26C62.9371 26.1813 62.3137 26.3173 61.7244 26.408C61.1577 26.5213 60.6591 26.578 60.2284 26.578C59.3444 26.578 58.6757 26.3853 58.2224 26C57.7917 25.6373 57.5764 25.0707 57.5764 24.3C57.5764 23.9147 57.6331 23.45 57.7464 22.906C57.8597 22.3393 58.0864 21.41 58.4264 20.118C58.8117 18.7127 59.0611 17.6927 59.1744 17.058C59.3104 16.4007 59.3784 15.834 59.3784 15.358C59.3784 14.5873 59.2084 14.0093 58.8684 13.624C58.5284 13.2387 58.0184 13.046 57.3384 13.046C57.2477 13.046 57.1457 13.0573 57.0324 13.08C56.9417 13.08 56.6697 13.114 56.2164 13.182L53.4964 26Z" fill="black"/>
<path d="M78.3023 11.958C78.3023 13.8393 77.5317 15.4827 75.9903 16.888C74.449 18.2707 72.613 19.0187 70.4823 19.132C70.4597 19.5173 70.437 19.812 70.4143 20.016C70.4143 20.1973 70.4143 20.356 70.4143 20.492C70.4143 21.5347 70.5843 22.2713 70.9243 22.702C71.287 23.1327 71.933 23.348 72.8623 23.348C73.9277 23.348 74.9023 23.11 75.7863 22.634C76.693 22.1353 77.7243 21.2287 78.8803 19.914H80.0363C78.7217 22.0447 77.2937 23.6313 75.7523 24.674C74.211 25.694 72.5223 26.204 70.6863 26.204C68.941 26.204 67.615 25.7507 66.7083 24.844C65.8243 23.9373 65.3823 22.5887 65.3823 20.798C65.3823 19.506 65.5863 18.1347 65.9943 16.684C66.4023 15.2333 66.9463 13.9413 67.6263 12.808C68.465 11.448 69.4623 10.428 70.6183 9.748C71.797 9.04533 73.1117 8.694 74.5623 8.694C75.809 8.694 76.7383 8.966 77.3503 9.51C77.985 10.0313 78.3023 10.8473 78.3023 11.958ZM74.8343 10.496C74.0637 10.496 73.2817 11.1873 72.4883 12.57C71.7177 13.93 71.1397 15.5733 70.7543 17.5C72.069 17.4093 73.2137 16.8087 74.1883 15.698C75.1857 14.5647 75.6843 13.2953 75.6843 11.89C75.6843 11.414 75.6163 11.0627 75.4803 10.836C75.3443 10.6093 75.129 10.496 74.8343 10.496Z" fill="black"/>
<path d="M80.0964 9H81.2184L82.2383 4.308L87.2704 3.628L86.1144 9H88.1544L87.8824 10.36H85.8424L83.6664 20.56C83.621 20.764 83.587 20.9567 83.5644 21.138C83.5417 21.2967 83.5304 21.4667 83.5304 21.648C83.5304 22.1013 83.6324 22.43 83.8364 22.634C84.063 22.8153 84.4257 22.906 84.9244 22.906C85.559 22.906 86.1597 22.634 86.7264 22.09C87.293 21.5233 87.7124 20.798 87.9844 19.914H89.4124C88.687 21.9767 87.7123 23.5407 86.4883 24.606C85.2644 25.6713 83.859 26.204 82.2724 26.204C81.139 26.204 80.2437 25.8527 79.5864 25.15C78.9517 24.4247 78.6343 23.416 78.6343 22.124C78.6343 21.8293 78.657 21.5007 78.7024 21.138C78.7477 20.7527 78.8157 20.3447 78.9064 19.914L80.9464 10.36H79.8244L80.0964 9Z" fill="black"/>
<path d="M91.5748 26H86.6788L90.2828 9H95.1788L94.7368 11.108C95.7341 10.2693 96.5161 9.714 97.0828 9.442C97.6721 9.14734 98.2615 9 98.8508 9C99.5535 9 100.12 9.24933 100.551 9.748C100.981 10.224 101.197 10.8247 101.197 11.55C101.197 12.2527 100.97 12.842 100.517 13.318C100.063 13.794 99.4741 14.032 98.7488 14.032C98.3635 14.032 98.0575 13.9413 97.8308 13.76C97.6268 13.5787 97.4795 13.2047 97.3888 12.638C97.3208 12.2753 97.2415 12.0487 97.1508 11.958C97.0601 11.8447 96.9355 11.788 96.7768 11.788C96.3915 11.788 96.0288 11.8673 95.6888 12.026C95.3488 12.1847 94.8841 12.536 94.2948 13.08L91.5748 26Z" fill="black"/>
<path d="M100.178 20.764C100.178 19.472 100.382 18.1007 100.79 16.65C101.221 15.1993 101.799 13.9073 102.524 12.774C103.363 11.4367 104.372 10.428 105.55 9.748C106.729 9.04533 108.044 8.694 109.494 8.694C110.945 8.694 112.033 9.14734 112.758 10.054C113.484 10.9607 113.846 12.3207 113.846 14.134C113.892 14.1567 113.937 14.1793 113.982 14.202C114.05 14.202 114.13 14.202 114.22 14.202C114.923 14.202 115.762 14.0093 116.736 13.624C117.711 13.2387 118.618 12.7513 119.456 12.162L119.762 13.08C119.128 13.76 118.278 14.3493 117.212 14.848C116.17 15.3467 115.014 15.698 113.744 15.902C113.472 18.962 112.588 21.4327 111.092 23.314C109.596 25.1953 107.772 26.136 105.618 26.136C103.85 26.136 102.502 25.6827 101.572 24.776C100.643 23.8693 100.178 22.532 100.178 20.764ZM109.766 10.768C108.678 10.768 107.647 11.8673 106.672 14.066C105.72 16.2647 105.244 18.35 105.244 20.322C105.244 21.3873 105.358 22.1127 105.584 22.498C105.834 22.8833 106.298 23.076 106.978 23.076C107.817 23.076 108.61 22.396 109.358 21.036C110.129 19.676 110.65 17.9987 110.922 16.004C110.605 15.936 110.367 15.7887 110.208 15.562C110.072 15.3127 110.004 14.984 110.004 14.576C110.004 14.1453 110.095 13.7713 110.276 13.454C110.458 13.1367 110.718 12.8987 111.058 12.74C111.013 12.0147 110.888 11.5047 110.684 11.21C110.503 10.9153 110.197 10.768 109.766 10.768Z" fill="black"/>
<path d="M12.2666 12.2C14.4444 13.9111 20.0133 16.3067 24.8666 12.2" stroke="#FF481F" stroke-width="4" stroke-linecap="round"/>
<path d="M25.0019 2H12.5981C6.74494 2 2 6.74494 2 12.5981V15.7027C2 19.8413 5.35496 23.1963 9.49353 23.1963V30L20.2 23.1963H25.0019C30.8551 23.1963 35.6 18.4513 35.6 12.5981C35.6 6.74495 30.855 2 25.0019 2Z" stroke="#FF481F" stroke-width="4"/>
</svg>
