<svg width="120" height="34" viewBox="0 0 120 34" fill="none" xmlns="http://www.w3.org/2000/svg">
<path d="M53.4954 26H48.5994L53.2234 4.376L58.2554 3.696L56.5894 11.55H56.8614C58.1534 11.55 59.2754 10.9267 60.2274 9.68C61.2021 8.43333 61.6894 7.08467 61.6894 5.634C61.6894 4.52333 61.3608 3.65067 60.7034 3.016C60.0461 2.38133 59.1281 2.064 57.9494 2.064C55.1388 2.064 52.9061 2.812 51.2514 4.308C49.5968 5.78133 48.7694 7.78733 48.7694 10.326C48.7694 10.7567 48.7921 11.1307 48.8374 11.448C48.9054 11.7653 49.0074 12.0713 49.1434 12.366C49.1888 12.4567 49.2114 12.5247 49.2114 12.57C49.2341 12.5927 49.2454 12.6153 49.2454 12.638C47.9761 12.638 47.0468 12.3773 46.4574 11.856C45.8908 11.312 45.6074 10.4733 45.6074 9.34C45.6074 8.20667 45.9814 7.07333 46.7294 5.94C47.5001 4.80667 48.5654 3.78667 49.9254 2.88C51.0814 2.132 52.3168 1.554 53.6314 1.146C54.9688 0.715334 56.2721 0.5 57.5414 0.5C59.9214 0.5 61.8028 0.998667 63.1854 1.996C64.5681 2.99333 65.2594 4.308 65.2594 5.94C65.2594 7.028 64.9194 8.10467 64.2394 9.17C63.5821 10.2353 62.6981 11.0967 61.5874 11.754C62.3808 11.9807 62.9701 12.3773 63.3554 12.944C63.7408 13.488 63.9334 14.2247 63.9334 15.154C63.9334 15.6753 63.8768 16.276 63.7634 16.956C63.6501 17.6133 63.4008 18.622 63.0154 19.982C62.6981 21.138 62.4941 21.9653 62.4034 22.464C62.3128 22.9627 62.2674 23.3933 62.2674 23.756C62.2674 24.2773 62.3808 24.742 62.6074 25.15C62.8568 25.558 63.1854 25.8413 63.5934 26C62.9361 26.1813 62.3128 26.3173 61.7234 26.408C61.1568 26.5213 60.6581 26.578 60.2274 26.578C59.3434 26.578 58.6748 26.3853 58.2214 26C57.7908 25.6373 57.5754 25.0707 57.5754 24.3C57.5754 23.9147 57.6321 23.45 57.7454 22.906C57.8588 22.3393 58.0854 21.41 58.4254 20.118C58.8108 18.7127 59.0601 17.6927 59.1734 17.058C59.3094 16.4007 59.3774 15.834 59.3774 15.358C59.3774 14.5873 59.2074 14.0093 58.8674 13.624C58.5274 13.2387 58.0174 13.046 57.3374 13.046C57.2468 13.046 57.1448 13.0573 57.0314 13.08C56.9408 13.08 56.6688 13.114 56.2154 13.182L53.4954 26Z" fill="black"/>
<path d="M78.3013 11.958C78.3013 13.8393 77.5307 15.4827 75.9893 16.888C74.448 18.2707 72.612 19.0187 70.4813 19.132C70.4587 19.5173 70.436 19.812 70.4133 20.016C70.4133 20.1973 70.4133 20.356 70.4133 20.492C70.4133 21.5347 70.5833 22.2713 70.9233 22.702C71.286 23.1327 71.932 23.348 72.8613 23.348C73.9267 23.348 74.9013 23.11 75.7853 22.634C76.692 22.1353 77.7233 21.2287 78.8793 19.914H80.0353C78.7207 22.0447 77.2927 23.6313 75.7513 24.674C74.21 25.694 72.5213 26.204 70.6853 26.204C68.94 26.204 67.614 25.7507 66.7073 24.844C65.8233 23.9373 65.3813 22.5887 65.3813 20.798C65.3813 19.506 65.5853 18.1347 65.9933 16.684C66.4013 15.2333 66.9453 13.9413 67.6253 12.808C68.464 11.448 69.4613 10.428 70.6173 9.748C71.796 9.04533 73.1107 8.694 74.5613 8.694C75.808 8.694 76.7373 8.966 77.3493 9.51C77.984 10.0313 78.3013 10.8473 78.3013 11.958ZM74.8333 10.496C74.0627 10.496 73.2807 11.1873 72.4873 12.57C71.7167 13.93 71.1387 15.5733 70.7533 17.5C72.068 17.4093 73.2127 16.8087 74.1873 15.698C75.1847 14.5647 75.6833 13.2953 75.6833 11.89C75.6833 11.414 75.6153 11.0627 75.4793 10.836C75.3433 10.6093 75.128 10.496 74.8333 10.496Z" fill="black"/>
<path d="M80.0954 9H81.2174L82.2374 4.308L87.2694 3.628L86.1134 9H88.1534L87.8814 10.36H85.8414L83.6654 20.56C83.62 20.764 83.586 20.9567 83.5634 21.138C83.5407 21.2967 83.5294 21.4667 83.5294 21.648C83.5294 22.1013 83.6314 22.43 83.8354 22.634C84.062 22.8153 84.4247 22.906 84.9234 22.906C85.558 22.906 86.1587 22.634 86.7254 22.09C87.292 21.5233 87.7114 20.798 87.9834 19.914H89.4114C88.686 21.9767 87.7114 23.5407 86.4874 24.606C85.2634 25.6713 83.858 26.204 82.2714 26.204C81.138 26.204 80.2427 25.8527 79.5854 25.15C78.9507 24.4247 78.6334 23.416 78.6334 22.124C78.6334 21.8293 78.656 21.5007 78.7014 21.138C78.7467 20.7527 78.8147 20.3447 78.9054 19.914L80.9454 10.36H79.8234L80.0954 9Z" fill="black"/>
<path d="M91.5738 26H86.6778L90.2818 9H95.1778L94.7358 11.108C95.7332 10.2693 96.5152 9.714 97.0818 9.442C97.6712 9.14734 98.2605 9 98.8498 9C99.5525 9 100.119 9.24933 100.55 9.748C100.98 10.224 101.196 10.8247 101.196 11.55C101.196 12.2527 100.969 12.842 100.516 13.318C100.062 13.794 99.4732 14.032 98.7478 14.032C98.3625 14.032 98.0565 13.9413 97.8298 13.76C97.6258 13.5787 97.4785 13.2047 97.3878 12.638C97.3198 12.2753 97.2405 12.0487 97.1498 11.958C97.0592 11.8447 96.9345 11.788 96.7758 11.788C96.3905 11.788 96.0278 11.8673 95.6878 12.026C95.3478 12.1847 94.8832 12.536 94.2938 13.08L91.5738 26Z" fill="black"/>
<path d="M100.177 20.764C100.177 19.472 100.381 18.1007 100.789 16.65C101.22 15.1993 101.798 13.9073 102.523 12.774C103.362 11.4367 104.371 10.428 105.549 9.748C106.728 9.04533 108.043 8.694 109.493 8.694C110.944 8.694 112.032 9.14734 112.757 10.054C113.483 10.9607 113.845 12.3207 113.845 14.134C113.891 14.1567 113.936 14.1793 113.981 14.202C114.049 14.202 114.129 14.202 114.219 14.202C114.922 14.202 115.761 14.0093 116.735 13.624C117.71 13.2387 118.617 12.7513 119.455 12.162L119.761 13.08C119.127 13.76 118.277 14.3493 117.211 14.848C116.169 15.3467 115.013 15.698 113.743 15.902C113.471 18.962 112.587 21.4327 111.091 23.314C109.595 25.1953 107.771 26.136 105.617 26.136C103.849 26.136 102.501 25.6827 101.571 24.776C100.642 23.8693 100.177 22.532 100.177 20.764ZM109.765 10.768C108.677 10.768 107.646 11.8673 106.671 14.066C105.719 16.2647 105.243 18.35 105.243 20.322C105.243 21.3873 105.357 22.1127 105.583 22.498C105.833 22.8833 106.297 23.076 106.977 23.076C107.816 23.076 108.609 22.396 109.357 21.036C110.128 19.676 110.649 17.9987 110.921 16.004C110.604 15.936 110.366 15.7887 110.207 15.562C110.071 15.3127 110.003 14.984 110.003 14.576C110.003 14.1453 110.094 13.7713 110.275 13.454C110.457 13.1367 110.717 12.8987 111.057 12.74C111.012 12.0147 110.887 11.5047 110.683 11.21C110.502 10.9153 110.196 10.768 109.765 10.768Z" fill="black"/>
<path d="M25.0019 2H12.5981C6.74494 2 2 6.74494 2 12.5981V15.7027C2 19.8413 5.35496 23.1963 9.49353 23.1963V30L20.2 23.1963H25.0019C30.8551 23.1963 35.6 18.4513 35.6 12.5981C35.6 6.74495 30.855 2 25.0019 2Z" fill="url(#paint0_linear_589_711)" stroke="url(#paint1_linear_589_711)" stroke-width="4"/>
<path d="M12.2656 12.2C14.4434 13.9111 20.0123 16.3067 24.8656 12.2" stroke="white" stroke-width="4" stroke-linecap="round"/>
<defs>
<linearGradient id="paint0_linear_589_711" x1="18.8" y1="2" x2="18.8" y2="30" gradientUnits="userSpaceOnUse">
<stop stop-color="#FF2897"/>
<stop offset="1" stop-color="#FFCC91"/>
</linearGradient>
<linearGradient id="paint1_linear_589_711" x1="18.8" y1="2" x2="18.8" y2="30" gradientUnits="userSpaceOnUse">
<stop stop-color="#FF2897"/>
<stop offset="1" stop-color="#FFCC91"/>
</linearGradient>
</defs>
</svg>
