<svg width="227" height="411" viewBox="0 0 227 411" fill="none" xmlns="http://www.w3.org/2000/svg">
<ellipse cx="40.7955" cy="215.56" rx="35" ry="27" transform="rotate(15 40.7955 215.56)" fill="white"/>
<path d="M52.0607 219.656C51.1647 219.656 50.4607 219.4 49.9487 218.888C49.4474 218.376 49.1967 217.56 49.1967 216.44C49.1967 215.49 49.3674 214.424 49.7087 213.24C50.0501 212.056 50.5461 211.042 51.1967 210.2C51.8581 209.357 52.6367 208.936 53.5327 208.936C53.8527 208.936 54.1301 208.978 54.3647 209.064C53.8954 209.341 53.4421 209.912 53.0047 210.776C52.5781 211.64 52.2314 212.605 51.9647 213.672C51.6981 214.738 51.5647 215.682 51.5647 216.504C51.5647 217.08 51.6394 217.533 51.7887 217.864C51.9381 218.194 52.1727 218.36 52.4927 218.36C53.0154 218.36 53.5327 217.986 54.0447 217.24C54.5674 216.482 54.9941 215.533 55.3247 214.392C55.6661 213.25 55.8367 212.152 55.8367 211.096C55.8367 210.434 55.7781 209.906 55.6607 209.512C55.5541 209.106 55.3514 208.802 55.0527 208.6C54.7541 208.397 54.3327 208.296 53.7887 208.296C52.9674 208.296 52.2047 208.466 51.5007 208.808C50.7967 209.138 50.2314 209.618 49.8047 210.248C49.3887 210.866 49.1807 211.586 49.1807 212.408C49.1807 212.696 49.2074 212.909 49.2607 213.048C49.3141 213.176 49.3407 213.25 49.3407 213.272C48.8074 213.272 48.4021 213.165 48.1247 212.952C47.8581 212.738 47.7247 212.397 47.7247 211.928C47.7247 211.192 48.0234 210.488 48.6207 209.816C49.2287 209.144 50.0287 208.6 51.0207 208.184C52.0234 207.768 53.0741 207.56 54.1727 207.56C55.5061 207.56 56.4714 207.922 57.0687 208.648C57.6661 209.373 57.9647 210.376 57.9647 211.656C57.9647 212.797 57.7514 213.986 57.3247 215.224C56.8981 216.461 56.2367 217.512 55.3407 218.376C54.4554 219.229 53.3621 219.656 52.0607 219.656Z" fill="black"/>
<path d="M42.1809 219.848C41.2103 219.848 40.4743 219.581 39.9729 219.048C39.4823 218.514 39.2369 217.842 39.2369 217.032C39.2369 216.456 39.3543 215.88 39.5889 215.304C39.8343 214.717 40.1809 214.205 40.6289 213.768C41.0769 213.33 41.5996 213.037 42.1969 212.888C41.8663 212.653 41.6209 212.37 41.4609 212.04C41.3009 211.698 41.2209 211.341 41.2209 210.968C41.2209 210.413 41.3703 209.869 41.6689 209.336C41.9783 208.802 42.3996 208.37 42.9329 208.04C43.4769 207.698 44.0743 207.528 44.7249 207.528C45.3969 207.528 45.9463 207.704 46.3729 208.056C46.7996 208.408 47.0129 208.898 47.0129 209.528C47.0129 209.997 46.8956 210.392 46.6609 210.712C46.4263 211.032 46.1489 211.192 45.8289 211.192C45.5409 211.192 45.2903 211.048 45.0769 210.76C45.2689 210.696 45.4343 210.52 45.5729 210.232C45.7116 209.944 45.7809 209.656 45.7809 209.368C45.7809 209.058 45.6956 208.834 45.5249 208.696C45.3543 208.546 45.1463 208.472 44.9009 208.472C44.5916 208.472 44.3089 208.584 44.0529 208.808C43.8076 209.021 43.6156 209.304 43.4769 209.656C43.3383 209.997 43.2689 210.354 43.2689 210.728C43.2689 211.24 43.4023 211.693 43.6689 212.088C43.9356 212.472 44.3409 212.733 44.8849 212.872C44.3409 212.989 43.8503 213.256 43.4129 213.672C42.9756 214.088 42.6343 214.573 42.3889 215.128C42.1436 215.672 42.0209 216.194 42.0209 216.696C42.0209 217.176 42.1436 217.565 42.3889 217.864C42.6449 218.162 43.0289 218.312 43.5409 218.312C44.0743 218.312 44.6289 218.168 45.2049 217.88C45.7916 217.581 46.2236 217.181 46.5009 216.68L46.8689 216.84C46.4529 217.757 45.8129 218.488 44.9489 219.032C44.0849 219.576 43.1623 219.848 42.1809 219.848Z" fill="black"/>
<path d="M32.9199 219.848C32.2479 219.848 31.6559 219.73 31.1439 219.496C30.6319 219.261 30.2373 218.936 29.9599 218.52C29.6826 218.093 29.5439 217.602 29.5439 217.048C29.5439 216.578 29.6399 216.152 29.8319 215.768C30.0346 215.384 30.3013 215.08 30.6319 214.856C30.9733 214.632 31.3466 214.52 31.7519 214.52C32.1253 214.52 32.4399 214.616 32.6959 214.808C32.9519 214.989 33.1119 215.245 33.1759 215.576C32.6213 215.576 32.1786 215.725 31.8479 216.024C31.5173 216.312 31.3519 216.706 31.3519 217.208C31.3519 217.666 31.4906 218.034 31.7679 218.312C32.0453 218.589 32.4133 218.728 32.8719 218.728C33.4373 218.728 33.9013 218.541 34.2639 218.168C34.6373 217.784 34.8239 217.304 34.8239 216.728C34.8239 216.226 34.6853 215.752 34.4079 215.304C34.1306 214.856 33.7146 214.312 33.1599 213.672C32.5839 213.01 32.1466 212.445 31.8479 211.976C31.5599 211.496 31.4159 210.973 31.4159 210.408C31.4159 209.853 31.5706 209.357 31.8799 208.92C32.1893 208.472 32.6159 208.12 33.1599 207.864C33.7039 207.608 34.3173 207.48 34.9999 207.48C35.8639 207.48 36.5519 207.682 37.0639 208.088C37.5866 208.493 37.8479 209.037 37.8479 209.72C37.8479 210.168 37.7359 210.53 37.5119 210.808C37.2879 211.085 36.9946 211.224 36.6319 211.224C36.2266 211.224 35.9013 211.058 35.6559 210.728C35.8586 210.578 36.0186 210.381 36.1359 210.136C36.2533 209.89 36.3119 209.634 36.3119 209.368C36.3119 209.026 36.2106 208.754 36.0079 208.552C35.8053 208.349 35.5279 208.248 35.1759 208.248C34.7493 208.248 34.3973 208.402 34.1199 208.712C33.8533 209.01 33.7199 209.394 33.7199 209.864C33.7199 210.29 33.8426 210.69 34.0879 211.064C34.3333 211.426 34.7173 211.896 35.2399 212.472C35.6666 212.93 36.0079 213.325 36.2639 213.656C36.5306 213.986 36.7546 214.37 36.9359 214.808C37.1279 215.234 37.2239 215.698 37.2239 216.2C37.2239 216.882 37.0319 217.501 36.6479 218.056C36.2746 218.61 35.7573 219.048 35.0959 219.368C34.4453 219.688 33.7199 219.848 32.9199 219.848Z" fill="black"/>
<ellipse cx="164.767" cy="52.1666" rx="53.3015" ry="39.7247" transform="rotate(-15 164.767 52.1666)" fill="white"/>
<path d="M194.634 46.856H196.938L196.73 47.848C197.093 47.528 197.418 47.2827 197.706 47.112C198.005 46.9413 198.325 46.856 198.666 46.856C199.008 46.856 199.274 46.9733 199.466 47.208C199.669 47.4427 199.77 47.7253 199.77 48.056C199.77 48.3653 199.669 48.6373 199.466 48.872C199.264 49.1067 198.981 49.224 198.618 49.224C198.384 49.224 198.224 49.1707 198.138 49.064C198.064 48.9467 198.005 48.7813 197.962 48.568C197.93 48.4293 197.898 48.328 197.866 48.264C197.834 48.2 197.776 48.168 197.69 48.168C197.466 48.168 197.274 48.216 197.114 48.312C196.965 48.3973 196.768 48.552 196.522 48.776L195.242 54.856H192.938L194.634 46.856Z" fill="black"/>
<path d="M188.694 54.952C187.904 54.952 187.291 54.7493 186.854 54.344C186.416 53.928 186.198 53.2827 186.198 52.408C186.198 51.672 186.342 50.8613 186.63 49.976C186.918 49.0907 187.387 48.328 188.038 47.688C188.688 47.0373 189.515 46.712 190.518 46.712C191.691 46.712 192.278 47.224 192.278 48.248C192.278 48.8453 192.107 49.3947 191.766 49.896C191.424 50.3973 190.971 50.8027 190.406 51.112C189.84 51.4107 189.238 51.5813 188.598 51.624C188.576 51.944 188.566 52.1573 188.566 52.264C188.566 52.7867 188.656 53.144 188.838 53.336C189.019 53.5173 189.312 53.608 189.718 53.608C190.294 53.608 190.784 53.4747 191.19 53.208C191.606 52.9413 192.059 52.536 192.55 51.992H193.094C191.91 53.9653 190.443 54.952 188.694 54.952ZM188.726 50.856C189.12 50.8347 189.494 50.696 189.846 50.44C190.208 50.184 190.496 49.8587 190.71 49.464C190.934 49.0693 191.046 48.6533 191.046 48.216C191.046 47.7787 190.912 47.56 190.646 47.56C190.262 47.56 189.883 47.896 189.51 48.568C189.147 49.24 188.886 50.0027 188.726 50.856Z" fill="black"/>
<path d="M182.724 54.952C182.212 54.952 181.796 54.792 181.476 54.472C181.167 54.152 181.012 53.672 181.012 53.032C181.012 52.7653 181.055 52.4187 181.14 51.992L182.1 47.496H181.572L181.7 46.856H182.228L182.708 44.648L185.076 44.328L184.532 46.856H185.492L185.364 47.496H184.404L183.38 52.296C183.338 52.456 183.316 52.6267 183.316 52.808C183.316 53.0213 183.364 53.176 183.46 53.272C183.567 53.3573 183.738 53.4 183.972 53.4C184.282 53.4 184.57 53.272 184.836 53.016C185.103 52.7493 185.295 52.408 185.412 51.992H186.084C185.69 53.144 185.183 53.928 184.564 54.344C183.946 54.7493 183.332 54.952 182.724 54.952Z" fill="black"/>
<path d="M178.547 45.992C178.195 45.992 177.896 45.8693 177.651 45.624C177.405 45.3787 177.283 45.08 177.283 44.728C177.283 44.376 177.405 44.0773 177.651 43.832C177.896 43.576 178.195 43.448 178.547 43.448C178.899 43.448 179.197 43.576 179.443 43.832C179.699 44.0773 179.827 44.376 179.827 44.728C179.827 45.08 179.699 45.3787 179.443 45.624C179.197 45.8693 178.899 45.992 178.547 45.992ZM177.459 54.952C176.947 54.952 176.531 54.792 176.211 54.472C175.901 54.152 175.747 53.672 175.747 53.032C175.747 52.7653 175.789 52.4187 175.875 51.992L176.963 46.856H179.267L178.115 52.296C178.072 52.456 178.051 52.6267 178.051 52.808C178.051 53.0213 178.099 53.176 178.195 53.272C178.301 53.3573 178.472 53.4 178.707 53.4C179.016 53.4 179.304 53.272 179.571 53.016C179.837 52.7493 180.029 52.408 180.147 51.992H180.819C180.424 53.144 179.917 53.928 179.299 54.344C178.68 54.7493 178.067 54.952 177.459 54.952Z" fill="black"/>
<path d="M169.947 46.856H172.251L172.043 47.848C172.406 47.528 172.731 47.2827 173.019 47.112C173.318 46.9413 173.638 46.856 173.979 46.856C174.32 46.856 174.587 46.9733 174.779 47.208C174.982 47.4427 175.083 47.7253 175.083 48.056C175.083 48.3653 174.982 48.6373 174.779 48.872C174.576 49.1067 174.294 49.224 173.931 49.224C173.696 49.224 173.536 49.1707 173.451 49.064C173.376 48.9467 173.318 48.7813 173.275 48.568C173.243 48.4293 173.211 48.328 173.179 48.264C173.147 48.2 173.088 48.168 173.003 48.168C172.779 48.168 172.587 48.216 172.427 48.312C172.278 48.3973 172.08 48.552 171.835 48.776L170.555 54.856H168.251L169.947 46.856Z" fill="black"/>
<path d="M156.436 43.928C155.679 44.216 155.092 44.664 154.676 45.272C154.26 45.8693 154.052 46.6053 154.052 47.48C154.052 47.8747 154.09 48.152 154.164 48.312C154.239 48.4613 154.276 48.5467 154.276 48.568C153.7 48.568 153.268 48.4507 152.98 48.216C152.703 47.9707 152.564 47.5707 152.564 47.016C152.564 46.3333 152.842 45.672 153.396 45.032C153.962 44.3813 154.682 43.8587 155.556 43.464C156.431 43.0587 157.306 42.856 158.18 42.856C158.33 42.856 158.543 42.8667 158.82 42.888L158.964 52.728L162.324 42.936H164.356L164.5 52.728L167.86 42.936H168.98L164.532 54.856H162.228L162.036 46.712L158.996 54.856H156.692L156.436 43.928Z" fill="black"/>
<path d="M144.824 43.992C144.109 44.28 143.554 44.7227 143.16 45.32C142.776 45.9067 142.584 46.6267 142.584 47.48C142.584 47.8747 142.621 48.152 142.696 48.312C142.77 48.4613 142.808 48.5467 142.808 48.568C142.232 48.568 141.8 48.4507 141.512 48.216C141.234 47.9707 141.096 47.5707 141.096 47.016C141.096 46.3333 141.373 45.672 141.928 45.032C142.493 44.3813 143.213 43.8587 144.088 43.464C144.962 43.0587 145.837 42.856 146.712 42.856C146.861 42.856 147.074 42.8667 147.352 42.888L144.808 54.856H142.504L144.824 43.992Z" fill="black"/>
<path d="M132.8 56.68C132.405 56.68 132.059 56.648 131.76 56.584C131.461 56.52 131.2 56.3653 130.976 56.12C130.763 55.8747 130.656 55.496 130.656 54.984C130.656 54.2693 130.869 53.3093 131.296 52.104C131.733 50.8987 132.304 49.688 133.008 48.472C132.475 48.504 132.053 48.584 131.744 48.712C131.435 48.84 131.232 49.0373 131.136 49.304C131.179 49.304 131.221 49.3573 131.264 49.464C131.317 49.5707 131.344 49.6827 131.344 49.8C131.344 49.992 131.259 50.1467 131.088 50.264C130.917 50.3707 130.704 50.424 130.448 50.424C130.149 50.424 129.909 50.344 129.728 50.184C129.547 50.024 129.456 49.7947 129.456 49.496C129.456 49.1333 129.595 48.8027 129.872 48.504C130.16 48.2053 130.555 47.9707 131.056 47.8C131.557 47.6187 132.112 47.528 132.72 47.528C132.944 47.528 133.221 47.544 133.552 47.576C134.427 46.1893 135.349 45.0587 136.32 44.184C137.301 43.2987 138.235 42.856 139.12 42.856C139.632 42.856 140.053 42.9307 140.384 43.08L137.872 54.856H135.568L136.8 49.048C136.405 48.8667 136.043 48.7333 135.712 48.648C135.381 48.5627 135.029 48.504 134.656 48.472C134.048 49.784 133.547 51.128 133.152 52.504C132.768 53.8693 132.576 54.9627 132.576 55.784C132.576 56.1893 132.651 56.488 132.8 56.68ZM137.872 43.992C137.413 44.2373 136.933 44.696 136.432 45.368C135.941 46.0293 135.461 46.8347 134.992 47.784C135.76 47.9333 136.411 48.12 136.944 48.344L137.872 43.992Z" fill="black"/>
<ellipse cx="158.347" cy="363.01" rx="48.6243" ry="36.2388" transform="rotate(15 158.347 363.01)" fill="white"/>
<path d="M174.209 366.517C173.43 366.517 172.822 366.314 172.385 365.909C171.947 365.493 171.729 364.848 171.729 363.973C171.729 363.237 171.873 362.426 172.161 361.541C172.449 360.656 172.918 359.893 173.569 359.253C174.219 358.602 175.046 358.277 176.049 358.277C177.222 358.277 177.809 358.789 177.809 359.813C177.809 360.41 177.638 360.96 177.297 361.461C176.955 361.962 176.502 362.368 175.937 362.677C175.371 362.976 174.769 363.146 174.129 363.189C174.107 363.424 174.097 363.584 174.097 363.669C174.097 364.554 174.427 364.997 175.089 364.997C175.387 364.997 175.707 364.917 176.049 364.757C176.39 364.597 176.699 364.394 176.977 364.149C176.689 365.728 175.766 366.517 174.209 366.517ZM174.241 362.421C174.646 362.41 175.025 362.277 175.377 362.021C175.739 361.765 176.027 361.44 176.241 361.045C176.465 360.64 176.577 360.218 176.577 359.781C176.577 359.344 176.443 359.125 176.177 359.125C175.803 359.125 175.43 359.466 175.057 360.149C174.694 360.821 174.422 361.578 174.241 362.421Z" fill="black"/>
<path d="M168.271 366.517C167.759 366.517 167.343 366.357 167.023 366.037C166.714 365.717 166.559 365.237 166.559 364.597C166.559 364.33 166.602 363.984 166.687 363.557L168.399 355.541L170.767 355.221L168.927 363.861C168.884 364.021 168.863 364.192 168.863 364.373C168.863 364.586 168.911 364.741 169.007 364.837C169.114 364.922 169.284 364.965 169.519 364.965C169.828 364.965 170.116 364.837 170.383 364.581C170.65 364.314 170.842 363.973 170.959 363.557H171.631C171.236 364.709 170.73 365.493 170.111 365.909C169.492 366.314 168.879 366.517 168.271 366.517Z" fill="black"/>
<path d="M161.834 366.517C161.045 366.517 160.432 366.314 159.994 365.909C159.557 365.493 159.338 364.848 159.338 363.973C159.338 363.237 159.482 362.426 159.77 361.541C160.069 360.656 160.538 359.893 161.178 359.253C161.829 358.602 162.65 358.277 163.642 358.277C164.282 358.277 164.736 358.416 165.002 358.693C165.28 358.97 165.418 359.322 165.418 359.749C165.418 360.122 165.338 360.41 165.178 360.613C165.018 360.816 164.816 360.917 164.57 360.917C164.389 360.917 164.202 360.853 164.01 360.725C164.138 360.373 164.202 360.058 164.202 359.781C164.202 359.578 164.165 359.418 164.09 359.301C164.016 359.184 163.904 359.125 163.754 359.125C163.434 359.125 163.114 359.386 162.794 359.909C162.474 360.432 162.213 361.066 162.01 361.813C161.808 362.56 161.706 363.232 161.706 363.829C161.706 364.352 161.797 364.709 161.978 364.901C162.16 365.082 162.453 365.173 162.858 365.173C163.434 365.173 163.925 365.04 164.33 364.773C164.746 364.506 165.2 364.101 165.69 363.557H166.234C165.05 365.53 163.584 366.517 161.834 366.517Z" fill="black"/>
<path d="M156.953 357.557C156.601 357.557 156.302 357.434 156.057 357.189C155.811 356.944 155.689 356.645 155.689 356.293C155.689 355.941 155.811 355.642 156.057 355.397C156.302 355.141 156.601 355.013 156.953 355.013C157.305 355.013 157.603 355.141 157.849 355.397C158.105 355.642 158.233 355.941 158.233 356.293C158.233 356.645 158.105 356.944 157.849 357.189C157.603 357.434 157.305 357.557 156.953 357.557ZM155.865 366.517C155.353 366.517 154.937 366.357 154.617 366.037C154.307 365.717 154.153 365.237 154.153 364.597C154.153 364.33 154.195 363.984 154.281 363.557L155.369 358.421H157.673L156.521 363.861C156.478 364.021 156.457 364.192 156.457 364.373C156.457 364.586 156.505 364.741 156.601 364.837C156.707 364.922 156.878 364.965 157.113 364.965C157.422 364.965 157.71 364.837 157.977 364.581C158.243 364.314 158.435 363.973 158.553 363.557H159.225C158.83 364.709 158.323 365.493 157.705 365.909C157.086 366.314 156.473 366.517 155.865 366.517Z" fill="black"/>
<path d="M150.599 366.517C150.087 366.517 149.671 366.357 149.351 366.037C149.042 365.717 148.887 365.237 148.887 364.597C148.887 364.33 148.93 363.984 149.015 363.557L149.975 359.061H149.447L149.575 358.421H150.103L150.583 356.213L152.951 355.893L152.407 358.421H153.367L153.239 359.061H152.279L151.255 363.861C151.213 364.021 151.191 364.192 151.191 364.373C151.191 364.586 151.239 364.741 151.335 364.837C151.442 364.922 151.613 364.965 151.847 364.965C152.157 364.965 152.445 364.837 152.711 364.581C152.978 364.314 153.17 363.973 153.287 363.557H153.959C153.565 364.709 153.058 365.493 152.439 365.909C151.821 366.314 151.207 366.517 150.599 366.517Z" fill="black"/>
<path d="M143.088 358.421H145.392L145.184 359.413C145.546 359.093 145.872 358.848 146.16 358.677C146.458 358.506 146.778 358.421 147.12 358.421C147.461 358.421 147.728 358.538 147.92 358.773C148.122 359.008 148.224 359.29 148.224 359.621C148.224 359.93 148.122 360.202 147.92 360.437C147.717 360.672 147.434 360.789 147.072 360.789C146.837 360.789 146.677 360.736 146.592 360.629C146.517 360.512 146.458 360.346 146.416 360.133C146.384 359.994 146.352 359.893 146.32 359.829C146.288 359.765 146.229 359.733 146.144 359.733C145.92 359.733 145.728 359.781 145.568 359.877C145.418 359.962 145.221 360.117 144.976 360.341L143.696 366.421H141.392L143.088 358.421Z" fill="black"/>
<path d="M133.8 368.245C133.405 368.245 133.059 368.213 132.76 368.149C132.461 368.085 132.2 367.93 131.976 367.685C131.763 367.44 131.656 367.061 131.656 366.549C131.656 365.834 131.869 364.874 132.296 363.669C132.733 362.464 133.304 361.253 134.008 360.037C133.475 360.069 133.053 360.149 132.744 360.277C132.435 360.405 132.232 360.602 132.136 360.869C132.179 360.869 132.221 360.922 132.264 361.029C132.317 361.136 132.344 361.248 132.344 361.365C132.344 361.557 132.259 361.712 132.088 361.829C131.917 361.936 131.704 361.989 131.448 361.989C131.149 361.989 130.909 361.909 130.728 361.749C130.547 361.589 130.456 361.36 130.456 361.061C130.456 360.698 130.595 360.368 130.872 360.069C131.16 359.77 131.555 359.536 132.056 359.365C132.557 359.184 133.112 359.093 133.72 359.093C133.944 359.093 134.221 359.109 134.552 359.141C135.427 357.754 136.349 356.624 137.32 355.749C138.301 354.864 139.235 354.421 140.12 354.421C140.632 354.421 141.053 354.496 141.384 354.645L138.872 366.421H136.568L137.8 360.613C137.405 360.432 137.043 360.298 136.712 360.213C136.381 360.128 136.029 360.069 135.656 360.037C135.048 361.349 134.547 362.693 134.152 364.069C133.768 365.434 133.576 366.528 133.576 367.349C133.576 367.754 133.651 368.053 133.8 368.245ZM138.872 355.557C138.413 355.802 137.933 356.261 137.432 356.933C136.941 357.594 136.461 358.4 135.992 359.349C136.76 359.498 137.411 359.685 137.944 359.909L138.872 355.557Z" fill="black"/>
</svg>
