<svg width="205" height="403" viewBox="0 0 205 403" fill="none" xmlns="http://www.w3.org/2000/svg">
<ellipse cx="139.988" cy="208.298" rx="56.1874" ry="41.4012" transform="rotate(-15 139.988 208.298)" fill="white" fill-opacity="0.2"/>
<path d="M107.947 211.717C106.741 211.717 105.856 211.413 105.291 210.805C104.725 210.197 104.443 209.189 104.443 207.781C104.443 206.661 104.629 205.456 105.003 204.165C105.387 202.874 105.995 201.77 106.827 200.853C107.669 199.925 108.736 199.461 110.027 199.461C110.827 199.461 111.472 199.637 111.963 199.989C112.453 200.341 112.699 200.88 112.699 201.605C112.699 202.064 112.608 202.426 112.427 202.693C112.245 202.949 111.963 203.077 111.579 203.077C111.195 203.077 110.891 202.938 110.667 202.661C110.859 202.565 111.029 202.373 111.179 202.085C111.328 201.797 111.403 201.498 111.403 201.189C111.403 200.901 111.323 200.666 111.163 200.485C111.013 200.304 110.768 200.213 110.427 200.213C109.861 200.213 109.323 200.602 108.811 201.381C108.299 202.149 107.883 203.12 107.563 204.293C107.253 205.466 107.099 206.597 107.099 207.685C107.099 208.496 107.237 209.114 107.515 209.541C107.792 209.968 108.293 210.181 109.019 210.181C109.648 210.181 110.229 210.042 110.763 209.765C111.296 209.488 111.755 209.093 112.139 208.581L112.507 208.741C112.24 209.413 111.845 209.973 111.323 210.421C110.8 210.869 110.24 211.2 109.643 211.413C109.045 211.616 108.48 211.717 107.947 211.717ZM115.428 211.525C114.639 211.525 114.015 211.322 113.556 210.917C113.097 210.512 112.868 209.872 112.868 208.997C112.868 208.272 113.017 207.466 113.316 206.581C113.615 205.696 114.095 204.933 114.756 204.293C115.417 203.642 116.249 203.317 117.252 203.317C118.617 203.317 119.3 204.17 119.3 205.877V205.893C119.332 205.904 119.391 205.909 119.476 205.909C119.828 205.909 120.233 205.818 120.692 205.637C121.151 205.445 121.567 205.216 121.94 204.949L122.084 205.381C121.775 205.712 121.369 205.994 120.868 206.229C120.377 206.453 119.839 206.613 119.252 206.709C119.167 207.68 118.948 208.528 118.596 209.253C118.244 209.978 117.791 210.538 117.236 210.933C116.681 211.328 116.079 211.525 115.428 211.525ZM116.068 210.085C116.324 210.085 116.58 209.941 116.836 209.653C117.092 209.354 117.316 208.954 117.508 208.453C117.7 207.941 117.839 207.376 117.924 206.757C117.636 206.693 117.492 206.469 117.492 206.085C117.492 205.648 117.657 205.36 117.988 205.221C117.967 204.869 117.913 204.629 117.828 204.501C117.743 204.362 117.593 204.293 117.38 204.293C117.028 204.293 116.687 204.549 116.356 205.061C116.025 205.573 115.759 206.186 115.556 206.901C115.353 207.616 115.252 208.245 115.252 208.789C115.252 209.301 115.311 209.648 115.428 209.829C115.545 210 115.759 210.085 116.068 210.085ZM122.211 203.461H124.515L124.307 204.453C124.67 204.133 124.995 203.888 125.283 203.717C125.582 203.546 125.902 203.461 126.243 203.461C126.584 203.461 126.851 203.578 127.043 203.813C127.246 204.048 127.347 204.33 127.347 204.661C127.347 204.97 127.246 205.242 127.043 205.477C126.84 205.712 126.558 205.829 126.195 205.829C125.96 205.829 125.8 205.776 125.715 205.669C125.64 205.552 125.582 205.386 125.539 205.173C125.507 205.034 125.475 204.933 125.443 204.869C125.411 204.805 125.352 204.773 125.267 204.773C125.043 204.773 124.851 204.821 124.691 204.917C124.542 205.002 124.344 205.157 124.099 205.381L122.819 211.461H120.515L122.211 203.461ZM129.227 203.461H131.531L131.323 204.453C131.685 204.133 132.011 203.888 132.299 203.717C132.597 203.546 132.917 203.461 133.259 203.461C133.6 203.461 133.867 203.578 134.059 203.813C134.261 204.048 134.363 204.33 134.363 204.661C134.363 204.97 134.261 205.242 134.059 205.477C133.856 205.712 133.573 205.829 133.211 205.829C132.976 205.829 132.816 205.776 132.731 205.669C132.656 205.552 132.597 205.386 132.555 205.173C132.523 205.034 132.491 204.933 132.459 204.869C132.427 204.805 132.368 204.773 132.283 204.773C132.059 204.773 131.867 204.821 131.707 204.917C131.557 205.002 131.36 205.157 131.115 205.381L129.835 211.461H127.531L129.227 203.461ZM137.442 211.557C136.653 211.557 136.04 211.354 135.602 210.949C135.165 210.533 134.946 209.888 134.946 209.013C134.946 208.277 135.09 207.466 135.378 206.581C135.666 205.696 136.136 204.933 136.786 204.293C137.437 203.642 138.264 203.317 139.266 203.317C140.44 203.317 141.026 203.829 141.026 204.853C141.026 205.45 140.856 206 140.514 206.501C140.173 207.002 139.72 207.408 139.154 207.717C138.589 208.016 137.986 208.186 137.346 208.229C137.325 208.549 137.314 208.762 137.314 208.869C137.314 209.392 137.405 209.749 137.586 209.941C137.768 210.122 138.061 210.213 138.466 210.213C139.042 210.213 139.533 210.08 139.938 209.813C140.354 209.546 140.808 209.141 141.298 208.597H141.842C140.658 210.57 139.192 211.557 137.442 211.557ZM137.474 207.461C137.869 207.44 138.242 207.301 138.594 207.045C138.957 206.789 139.245 206.464 139.458 206.069C139.682 205.674 139.794 205.258 139.794 204.821C139.794 204.384 139.661 204.165 139.394 204.165C139.01 204.165 138.632 204.501 138.258 205.173C137.896 205.845 137.634 206.608 137.474 207.461ZM144.583 211.557C143.794 211.557 143.18 211.354 142.743 210.949C142.306 210.533 142.087 209.888 142.087 209.013C142.087 208.277 142.231 207.466 142.519 206.581C142.818 205.696 143.287 204.933 143.927 204.293C144.578 203.642 145.399 203.317 146.391 203.317C147.031 203.317 147.484 203.456 147.751 203.733C148.028 204.01 148.167 204.362 148.167 204.789C148.167 205.162 148.087 205.45 147.927 205.653C147.767 205.856 147.564 205.957 147.319 205.957C147.138 205.957 146.951 205.893 146.759 205.765C146.887 205.413 146.951 205.098 146.951 204.821C146.951 204.618 146.914 204.458 146.839 204.341C146.764 204.224 146.652 204.165 146.503 204.165C146.183 204.165 145.863 204.426 145.543 204.949C145.223 205.472 144.962 206.106 144.759 206.853C144.556 207.6 144.455 208.272 144.455 208.869C144.455 209.392 144.546 209.749 144.727 209.941C144.908 210.122 145.202 210.213 145.607 210.213C146.183 210.213 146.674 210.08 147.079 209.813C147.495 209.546 147.948 209.141 148.439 208.597H148.983C147.799 210.57 146.332 211.557 144.583 211.557ZM151.02 211.557C150.508 211.557 150.092 211.397 149.772 211.077C149.462 210.757 149.308 210.277 149.308 209.637C149.308 209.37 149.35 209.024 149.436 208.597L150.396 204.101H149.868L149.996 203.461H150.524L151.004 201.253L153.372 200.933L152.828 203.461H153.788L153.66 204.101H152.7L151.676 208.901C151.633 209.061 151.612 209.232 151.612 209.413C151.612 209.626 151.66 209.781 151.756 209.877C151.862 209.962 152.033 210.005 152.268 210.005C152.577 210.005 152.865 209.877 153.132 209.621C153.398 209.354 153.59 209.013 153.708 208.597H154.38C153.985 209.749 153.478 210.533 152.86 210.949C152.241 211.354 151.628 211.557 151.02 211.557ZM157.373 202.597C157.021 202.597 156.723 202.474 156.477 202.229C156.232 201.984 156.109 201.685 156.109 201.333C156.109 200.981 156.232 200.682 156.477 200.437C156.723 200.181 157.021 200.053 157.373 200.053C157.725 200.053 158.024 200.181 158.269 200.437C158.525 200.682 158.653 200.981 158.653 201.333C158.653 201.685 158.525 201.984 158.269 202.229C158.024 202.474 157.725 202.597 157.373 202.597ZM156.285 211.557C155.773 211.557 155.357 211.397 155.037 211.077C154.728 210.757 154.573 210.277 154.573 209.637C154.573 209.37 154.616 209.024 154.701 208.597L155.789 203.461H158.093L156.941 208.901C156.899 209.061 156.877 209.232 156.877 209.413C156.877 209.626 156.925 209.781 157.021 209.877C157.128 209.962 157.299 210.005 157.533 210.005C157.843 210.005 158.131 209.877 158.397 209.621C158.664 209.354 158.856 209.013 158.973 208.597H159.645C159.251 209.749 158.744 210.533 158.125 210.949C157.507 211.354 156.893 211.557 156.285 211.557ZM162.303 211.525C161.514 211.525 160.89 211.322 160.431 210.917C159.972 210.512 159.743 209.872 159.743 208.997C159.743 208.272 159.892 207.466 160.191 206.581C160.49 205.696 160.97 204.933 161.631 204.293C162.292 203.642 163.124 203.317 164.127 203.317C165.492 203.317 166.175 204.17 166.175 205.877V205.893C166.207 205.904 166.266 205.909 166.351 205.909C166.703 205.909 167.108 205.818 167.567 205.637C168.026 205.445 168.442 205.216 168.815 204.949L168.959 205.381C168.65 205.712 168.244 205.994 167.743 206.229C167.252 206.453 166.714 206.613 166.127 206.709C166.042 207.68 165.823 208.528 165.471 209.253C165.119 209.978 164.666 210.538 164.111 210.933C163.556 211.328 162.954 211.525 162.303 211.525ZM162.943 210.085C163.199 210.085 163.455 209.941 163.711 209.653C163.967 209.354 164.191 208.954 164.383 208.453C164.575 207.941 164.714 207.376 164.799 206.757C164.511 206.693 164.367 206.469 164.367 206.085C164.367 205.648 164.532 205.36 164.863 205.221C164.842 204.869 164.788 204.629 164.703 204.501C164.618 204.362 164.468 204.293 164.255 204.293C163.903 204.293 163.562 204.549 163.231 205.061C162.9 205.573 162.634 206.186 162.431 206.901C162.228 207.616 162.127 208.245 162.127 208.789C162.127 209.301 162.186 209.648 162.303 209.829C162.42 210 162.634 210.085 162.943 210.085ZM173.502 211.557C172.937 211.557 172.526 211.386 172.27 211.045C172.014 210.704 171.886 210.272 171.886 209.749C171.886 209.525 171.913 209.274 171.966 208.997C172.019 208.709 172.073 208.432 172.126 208.165C172.19 207.898 172.233 207.728 172.254 207.653C172.339 207.28 172.419 206.912 172.494 206.549C172.569 206.186 172.606 205.893 172.606 205.669C172.606 205.125 172.414 204.853 172.03 204.853C171.753 204.853 171.507 204.992 171.294 205.269C171.081 205.536 170.91 205.888 170.782 206.325L169.694 211.461H167.39L169.086 203.461H171.39L171.214 204.293C171.747 203.696 172.371 203.397 173.086 203.397C173.63 203.397 174.062 203.546 174.382 203.845C174.702 204.144 174.862 204.597 174.862 205.205C174.862 205.514 174.825 205.861 174.75 206.245C174.675 206.618 174.569 207.077 174.43 207.621C174.345 207.952 174.265 208.277 174.19 208.597C174.126 208.906 174.094 209.152 174.094 209.333C174.094 209.546 174.142 209.712 174.238 209.829C174.334 209.946 174.499 210.005 174.734 210.005C174.99 210.005 175.166 209.973 175.262 209.909C175.198 210.453 175.001 210.864 174.67 211.141C174.35 211.418 173.961 211.557 173.502 211.557Z" fill="white"/>
<ellipse cx="38.5674" cy="31.2775" rx="34.2969" ry="24.3205" transform="rotate(11.8727 38.5674 31.2775)" fill="white" fill-opacity="0.2"/>
<path d="M28.8561 34.2419C28.4294 34.2419 28.0561 34.1512 27.7361 33.9699C27.4267 33.7992 27.2721 33.4952 27.2721 33.0579C27.2721 32.7805 27.3414 32.4712 27.4801 32.1299C27.6721 32.3432 27.8481 32.4925 28.0081 32.5779C28.1787 32.6632 28.3601 32.7059 28.5521 32.7059C29.0854 32.7059 29.4801 32.4072 29.7361 31.8099C30.0027 31.2125 30.1361 30.5512 30.1361 29.8259C30.1361 28.4712 29.6294 27.7939 28.6161 27.7939C28.3281 27.7939 28.0827 27.8099 27.8801 27.8419L26.5681 33.9699H24.2641L26.4401 23.7939L28.8081 23.4739L28.0561 27.0259H28.1521C28.5574 27.0259 28.9361 26.8979 29.2881 26.6419C29.6401 26.3752 29.9227 26.0445 30.1361 25.6499C30.3494 25.2445 30.4561 24.8392 30.4561 24.4339C30.4561 23.9432 30.2801 23.5325 29.9281 23.2019C29.5867 22.8712 29.0587 22.7059 28.3441 22.7059C27.6934 22.7059 27.0587 22.8552 26.4401 23.1539C25.8214 23.4419 25.3147 23.8792 24.9201 24.4659C24.5361 25.0525 24.3441 25.7619 24.3441 26.5939C24.3441 26.9885 24.3814 27.2659 24.4561 27.4259C24.5307 27.5752 24.5681 27.6605 24.5681 27.6819C24.0027 27.6819 23.5761 27.5699 23.2881 27.3459C23.0001 27.1112 22.8561 26.7325 22.8561 26.2099C22.8561 25.4845 23.1281 24.7965 23.6721 24.1459C24.2161 23.4952 24.9361 22.9725 25.8321 22.5779C26.7281 22.1725 27.6721 21.9699 28.6641 21.9699C29.4107 21.9699 30.0401 22.0872 30.5521 22.3219C31.0641 22.5565 31.4427 22.8659 31.6881 23.2499C31.9441 23.6339 32.0721 24.0552 32.0721 24.5139C32.0721 25.0045 31.9334 25.4792 31.6561 25.9379C31.3787 26.3965 30.9841 26.7699 30.4721 27.0579C31.1121 27.1752 31.5867 27.4739 31.8961 27.9539C32.2054 28.4232 32.3601 28.9832 32.3601 29.6339C32.3601 30.2419 32.2427 30.9032 32.0081 31.6179C31.7841 32.3325 31.4054 32.9512 30.8721 33.4739C30.3494 33.9859 29.6774 34.2419 28.8561 34.2419ZM35.4981 34.0659C34.9861 34.0659 34.5701 33.9059 34.2501 33.5859C33.9407 33.2659 33.7861 32.7859 33.7861 32.1459C33.7861 31.8792 33.8287 31.5325 33.9141 31.1059L35.6261 23.0899L37.9941 22.7699L36.1541 31.4099C36.1114 31.5699 36.0901 31.7405 36.0901 31.9219C36.0901 32.1352 36.1381 32.2899 36.2341 32.3859C36.3407 32.4712 36.5114 32.5139 36.7461 32.5139C37.0554 32.5139 37.3434 32.3859 37.6101 32.1299C37.8767 31.8632 38.0687 31.5219 38.1861 31.1059H38.8581C38.4634 32.2579 37.9567 33.0419 37.3381 33.4579C36.7194 33.8632 36.1061 34.0659 35.4981 34.0659ZM41.5157 34.0339C40.7264 34.0339 40.1024 33.8312 39.6437 33.4259C39.185 33.0205 38.9557 32.3805 38.9557 31.5059C38.9557 30.7805 39.105 29.9752 39.4037 29.0899C39.7024 28.2045 40.1824 27.4419 40.8437 26.8019C41.505 26.1512 42.337 25.8259 43.3397 25.8259C44.705 25.8259 45.3877 26.6792 45.3877 28.3859V28.4019C45.4197 28.4125 45.4784 28.4179 45.5637 28.4179C45.9157 28.4179 46.321 28.3272 46.7797 28.1459C47.2384 27.9539 47.6544 27.7245 48.0277 27.4579L48.1717 27.8899C47.8624 28.2205 47.457 28.5032 46.9557 28.7379C46.465 28.9619 45.9264 29.1219 45.3397 29.2179C45.2544 30.1885 45.0357 31.0365 44.6837 31.7619C44.3317 32.4872 43.8784 33.0472 43.3237 33.4419C42.769 33.8365 42.1664 34.0339 41.5157 34.0339ZM42.1557 32.5939C42.4117 32.5939 42.6677 32.4499 42.9237 32.1619C43.1797 31.8632 43.4037 31.4632 43.5957 30.9619C43.7877 30.4499 43.9264 29.8845 44.0117 29.2659C43.7237 29.2019 43.5797 28.9779 43.5797 28.5939C43.5797 28.1565 43.745 27.8685 44.0757 27.7299C44.0544 27.3779 44.001 27.1379 43.9157 27.0099C43.8304 26.8712 43.681 26.8019 43.4677 26.8019C43.1157 26.8019 42.7744 27.0579 42.4437 27.5699C42.113 28.0819 41.8464 28.6952 41.6437 29.4099C41.441 30.1245 41.3397 30.7539 41.3397 31.2979C41.3397 31.8099 41.3984 32.1565 41.5157 32.3379C41.633 32.5085 41.8464 32.5939 42.1557 32.5939ZM50.0269 37.9699C49.5256 37.9699 49.0829 37.8045 48.6989 37.4739C48.3256 37.1539 48.1389 36.7432 48.1389 36.2419C48.1389 35.7725 48.2563 35.3885 48.4909 35.0899C48.7256 34.7912 49.0296 34.5565 49.4029 34.3859C49.7763 34.2152 50.2776 34.0339 50.9069 33.8419L51.0509 33.1699C50.4963 33.7672 49.8563 34.0659 49.1309 34.0659C48.5229 34.0659 48.0163 33.8579 47.6109 33.4419C47.2056 33.0259 47.0029 32.3752 47.0029 31.4899C47.0029 30.7005 47.1576 29.8739 47.4669 29.0099C47.7869 28.1352 48.2563 27.3992 48.8749 26.8019C49.5043 26.1939 50.2509 25.8899 51.1149 25.8899C51.5523 25.8899 51.8776 25.9645 52.0909 26.1139C52.3043 26.2632 52.4109 26.4605 52.4109 26.7059V26.7379L52.5709 25.9699H54.8909L52.9389 35.2499C52.7256 36.2739 52.3469 36.9832 51.8029 37.3779C51.2696 37.7725 50.6776 37.9699 50.0269 37.9699ZM50.1709 32.5139C50.4163 32.5139 50.6616 32.4125 50.9069 32.2099C51.1629 31.9965 51.3443 31.6979 51.4509 31.3139L52.2669 27.4419C52.1816 27.0685 51.9629 26.8819 51.6109 26.8819C51.1843 26.8819 50.8003 27.1325 50.4589 27.6339C50.1176 28.1245 49.8509 28.7219 49.6589 29.4259C49.4669 30.1192 49.3709 30.7325 49.3709 31.2659C49.3709 31.7992 49.4456 32.1405 49.5949 32.2899C49.7549 32.4392 49.9469 32.5139 50.1709 32.5139ZM49.6589 36.5459C49.8509 36.5459 50.0323 36.4445 50.2029 36.2419C50.3736 36.0499 50.5069 35.7352 50.6029 35.2979L50.7949 34.3539C50.2296 34.5459 49.7923 34.7699 49.4829 35.0259C49.1736 35.2819 49.0189 35.6125 49.0189 36.0179C49.0189 36.1459 49.0829 36.2632 49.2109 36.3699C49.3389 36.4872 49.4883 36.5459 49.6589 36.5459Z" fill="white"/>
<ellipse cx="49.5911" cy="373.278" rx="34.2969" ry="24.3205" transform="rotate(8.72992 49.5911 373.278)" fill="white" fill-opacity="0.2"/>
<path d="M39.3675 365.794L41.7355 365.474L40.5995 370.818C41.1115 370.775 41.5808 370.551 42.0075 370.146C42.4448 369.741 42.7862 369.239 43.0315 368.642C43.2768 368.045 43.3995 367.458 43.3995 366.882C43.3995 366.242 43.2342 365.719 42.9035 365.314C42.5728 364.909 42.0768 364.706 41.4155 364.706C40.1142 364.706 39.0955 365.047 38.3595 365.73C37.6342 366.413 37.2715 367.367 37.2715 368.594C37.2715 368.989 37.3088 369.266 37.3835 369.426C37.4582 369.575 37.4955 369.661 37.4955 369.682C36.9195 369.682 36.4875 369.565 36.1995 369.33C35.9222 369.085 35.7835 368.685 35.7835 368.13C35.7835 367.447 36.0608 366.786 36.6155 366.146C37.1808 365.495 37.9008 364.973 38.7755 364.578C39.6502 364.173 40.5248 363.97 41.3995 363.97C42.2422 363.97 42.9462 364.114 43.5115 364.402C44.0768 364.69 44.4928 365.074 44.7595 365.554C45.0368 366.023 45.1755 366.546 45.1755 367.122C45.1755 367.815 44.9835 368.493 44.5995 369.154C44.2262 369.815 43.6875 370.359 42.9835 370.786C42.2795 371.202 41.4688 371.41 40.5515 371.41H40.4715L39.4955 375.97H37.1915L39.3675 365.794ZM54.5314 376.066C53.678 376.066 53.0914 375.863 52.7714 375.458C52.462 375.053 52.3074 374.546 52.3074 373.938C52.3074 373.49 52.4247 373.127 52.6594 372.85C52.894 372.562 53.1607 372.418 53.4594 372.418C54.014 372.418 54.2914 372.642 54.2914 373.09C54.2914 373.282 54.2167 373.453 54.0674 373.602C53.918 373.741 53.7367 373.81 53.5234 373.81C53.2994 373.81 53.1554 373.741 53.0914 373.602C53.0914 373.986 53.166 374.285 53.3154 374.498C53.4754 374.701 53.71 374.802 54.0194 374.802C54.382 374.802 54.638 374.695 54.7874 374.482C54.9474 374.258 55.0274 373.869 55.0274 373.314C55.0274 372.994 54.9954 372.589 54.9314 372.098C54.8247 371.074 54.7394 370.029 54.6754 368.962C53.918 370.125 53.022 370.861 51.9874 371.17C51.9234 372.151 51.7154 373.01 51.3634 373.746C51.0114 374.482 50.558 375.047 50.0034 375.442C49.4594 375.837 48.8567 376.034 48.1954 376.034C47.406 376.034 46.782 375.831 46.3234 375.426C45.8647 375.021 45.6354 374.381 45.6354 373.506C45.6354 372.77 45.7794 371.965 46.0674 371.09C46.3554 370.205 46.8247 369.442 47.4754 368.802C48.126 368.151 48.958 367.826 49.9714 367.826C51.326 367.826 52.0087 368.663 52.0194 370.338C52.8087 370.295 53.678 369.447 54.6274 367.794L56.9954 367.474C57.0487 368.839 57.1394 370.317 57.2674 371.906C57.3207 372.546 57.3474 373.01 57.3474 373.298C57.3474 373.511 57.3314 373.709 57.2994 373.89C57.6194 373.709 57.998 373.447 58.4354 373.106H59.1074C58.5207 373.789 57.7794 374.413 56.8834 374.978C56.6167 375.362 56.2754 375.639 55.8594 375.81C55.454 375.981 55.0114 376.066 54.5314 376.066ZM48.8354 374.594C49.23 374.594 49.598 374.279 49.9394 373.65C50.2807 373.01 50.5154 372.221 50.6434 371.282C50.3874 371.186 50.2594 370.946 50.2594 370.562C50.2594 370.146 50.4087 369.869 50.7074 369.73C50.686 369.389 50.6274 369.149 50.5314 369.01C50.446 368.871 50.302 368.802 50.0994 368.802C49.7474 368.802 49.4114 369.058 49.0914 369.57C48.7714 370.071 48.51 370.685 48.3074 371.41C48.1154 372.125 48.0194 372.754 48.0194 373.298C48.0194 373.81 48.078 374.157 48.1954 374.338C48.3127 374.509 48.526 374.594 48.8354 374.594ZM60.9415 376.066C60.3975 376.066 59.9922 375.901 59.7255 375.57C59.4695 375.239 59.3415 374.802 59.3415 374.258C59.3415 373.981 59.3735 373.698 59.4375 373.41L60.4615 368.61H59.9335L60.0615 367.97H60.5895L61.0695 365.762L63.4375 365.442C63.3415 365.847 63.2882 366.087 63.2775 366.162C63.2028 366.461 63.0748 367.063 62.8935 367.97H63.8535L63.7255 368.61H62.7655L61.7415 373.41C61.6882 373.645 61.6615 373.831 61.6615 373.97C61.6615 374.354 61.8482 374.546 62.2215 374.546C62.4135 374.546 62.5522 374.53 62.6375 374.498C62.4242 375.117 62.1735 375.533 61.8855 375.746C61.5975 375.959 61.2828 376.066 60.9415 376.066Z" fill="white"/>
</svg>
