<svg width="227" height="411" viewBox="0 0 227 411" fill="none" xmlns="http://www.w3.org/2000/svg">
<ellipse cx="40.7959" cy="215.56" rx="35" ry="27" transform="rotate(15 40.7959 215.56)" fill="white" fill-opacity="0.2"/>
<path d="M31.92 218.848C31.248 218.848 30.656 218.73 30.144 218.496C29.632 218.261 29.2373 217.936 28.96 217.52C28.6827 217.093 28.544 216.602 28.544 216.048C28.544 215.578 28.64 215.152 28.832 214.768C29.0347 214.384 29.3013 214.08 29.632 213.856C29.9733 213.632 30.3467 213.52 30.752 213.52C31.1253 213.52 31.44 213.616 31.696 213.808C31.952 213.989 32.112 214.245 32.176 214.576C31.6213 214.576 31.1787 214.725 30.848 215.024C30.5173 215.312 30.352 215.706 30.352 216.208C30.352 216.666 30.4907 217.034 30.768 217.312C31.0453 217.589 31.4133 217.728 31.872 217.728C32.4373 217.728 32.9013 217.541 33.264 217.168C33.6373 216.784 33.824 216.304 33.824 215.728C33.824 215.226 33.6853 214.752 33.408 214.304C33.1307 213.856 32.7147 213.312 32.16 212.672C31.584 212.01 31.1467 211.445 30.848 210.976C30.56 210.496 30.416 209.973 30.416 209.408C30.416 208.853 30.5707 208.357 30.88 207.92C31.1893 207.472 31.616 207.12 32.16 206.864C32.704 206.608 33.3173 206.48 34 206.48C34.864 206.48 35.552 206.682 36.064 207.088C36.5867 207.493 36.848 208.037 36.848 208.72C36.848 209.168 36.736 209.53 36.512 209.808C36.288 210.085 35.9947 210.224 35.632 210.224C35.2267 210.224 34.9013 210.058 34.656 209.728C34.8587 209.578 35.0187 209.381 35.136 209.136C35.2533 208.89 35.312 208.634 35.312 208.368C35.312 208.026 35.2107 207.754 35.008 207.552C34.8053 207.349 34.528 207.248 34.176 207.248C33.7493 207.248 33.3973 207.402 33.12 207.712C32.8533 208.01 32.72 208.394 32.72 208.864C32.72 209.29 32.8427 209.69 33.088 210.064C33.3333 210.426 33.7173 210.896 34.24 211.472C34.6667 211.93 35.008 212.325 35.264 212.656C35.5307 212.986 35.7547 213.37 35.936 213.808C36.128 214.234 36.224 214.698 36.224 215.2C36.224 215.882 36.032 216.501 35.648 217.056C35.2747 217.61 34.7573 218.048 34.096 218.368C33.4453 218.688 32.72 218.848 31.92 218.848ZM41.181 218.848C40.2103 218.848 39.4743 218.581 38.973 218.048C38.4823 217.514 38.237 216.842 38.237 216.032C38.237 215.456 38.3543 214.88 38.589 214.304C38.8343 213.717 39.181 213.205 39.629 212.768C40.077 212.33 40.5997 212.037 41.197 211.888C40.8663 211.653 40.621 211.37 40.461 211.04C40.301 210.698 40.221 210.341 40.221 209.968C40.221 209.413 40.3703 208.869 40.669 208.336C40.9783 207.802 41.3997 207.37 41.933 207.04C42.477 206.698 43.0743 206.528 43.725 206.528C44.397 206.528 44.9463 206.704 45.373 207.056C45.7997 207.408 46.013 207.898 46.013 208.528C46.013 208.997 45.8957 209.392 45.661 209.712C45.4263 210.032 45.149 210.192 44.829 210.192C44.541 210.192 44.2903 210.048 44.077 209.76C44.269 209.696 44.4343 209.52 44.573 209.232C44.7117 208.944 44.781 208.656 44.781 208.368C44.781 208.058 44.6957 207.834 44.525 207.696C44.3543 207.546 44.1463 207.472 43.901 207.472C43.5917 207.472 43.309 207.584 43.053 207.808C42.8077 208.021 42.6157 208.304 42.477 208.656C42.3383 208.997 42.269 209.354 42.269 209.728C42.269 210.24 42.4023 210.693 42.669 211.088C42.9357 211.472 43.341 211.733 43.885 211.872C43.341 211.989 42.8503 212.256 42.413 212.672C41.9757 213.088 41.6343 213.573 41.389 214.128C41.1437 214.672 41.021 215.194 41.021 215.696C41.021 216.176 41.1437 216.565 41.389 216.864C41.645 217.162 42.029 217.312 42.541 217.312C43.0743 217.312 43.629 217.168 44.205 216.88C44.7917 216.581 45.2237 216.181 45.501 215.68L45.869 215.84C45.453 216.757 44.813 217.488 43.949 218.032C43.085 218.576 42.1623 218.848 41.181 218.848ZM51.0608 218.656C50.1648 218.656 49.4608 218.4 48.9488 217.888C48.4474 217.376 48.1968 216.56 48.1968 215.44C48.1968 214.49 48.3674 213.424 48.7088 212.24C49.0501 211.056 49.5461 210.042 50.1968 209.2C50.8581 208.357 51.6368 207.936 52.5328 207.936C52.8528 207.936 53.1301 207.978 53.3648 208.064C52.8954 208.341 52.4421 208.912 52.0048 209.776C51.5781 210.64 51.2314 211.605 50.9648 212.672C50.6981 213.738 50.5648 214.682 50.5648 215.504C50.5648 216.08 50.6394 216.533 50.7888 216.864C50.9381 217.194 51.1728 217.36 51.4928 217.36C52.0154 217.36 52.5328 216.986 53.0448 216.24C53.5674 215.482 53.9941 214.533 54.3248 213.392C54.6661 212.25 54.8368 211.152 54.8368 210.096C54.8368 209.434 54.7781 208.906 54.6608 208.512C54.5541 208.106 54.3514 207.802 54.0528 207.6C53.7541 207.397 53.3328 207.296 52.7888 207.296C51.9674 207.296 51.2048 207.466 50.5008 207.808C49.7968 208.138 49.2314 208.618 48.8048 209.248C48.3888 209.866 48.1808 210.586 48.1808 211.408C48.1808 211.696 48.2074 211.909 48.2608 212.048C48.3141 212.176 48.3408 212.25 48.3408 212.272C47.8074 212.272 47.4021 212.165 47.1248 211.952C46.8581 211.738 46.7248 211.397 46.7248 210.928C46.7248 210.192 47.0234 209.488 47.6208 208.816C48.2288 208.144 49.0288 207.6 50.0208 207.184C51.0234 206.768 52.0741 206.56 53.1728 206.56C54.5061 206.56 55.4714 206.922 56.0688 207.648C56.6661 208.373 56.9648 209.376 56.9648 210.656C56.9648 211.797 56.7514 212.986 56.3248 214.224C55.8981 215.461 55.2368 216.512 54.3408 217.376C53.4554 218.229 52.3621 218.656 51.0608 218.656Z" fill="white"/>
<ellipse cx="164.767" cy="52.1666" rx="53.3015" ry="39.7247" transform="rotate(-15 164.767 52.1666)" fill="white" fill-opacity="0.2"/>
<path d="M132.801 55.68C132.406 55.68 132.059 55.648 131.761 55.584C131.462 55.52 131.201 55.3653 130.977 55.12C130.763 54.8747 130.657 54.496 130.657 53.984C130.657 53.2693 130.87 52.3093 131.297 51.104C131.734 49.8987 132.305 48.688 133.009 47.472C132.475 47.504 132.054 47.584 131.745 47.712C131.435 47.84 131.233 48.0373 131.137 48.304C131.179 48.304 131.222 48.3573 131.265 48.464C131.318 48.5707 131.345 48.6827 131.345 48.8C131.345 48.992 131.259 49.1467 131.089 49.264C130.918 49.3707 130.705 49.424 130.449 49.424C130.15 49.424 129.91 49.344 129.729 49.184C129.547 49.024 129.457 48.7947 129.457 48.496C129.457 48.1333 129.595 47.8027 129.873 47.504C130.161 47.2053 130.555 46.9707 131.057 46.8C131.558 46.6187 132.113 46.528 132.721 46.528C132.945 46.528 133.222 46.544 133.553 46.576C134.427 45.1893 135.35 44.0587 136.321 43.184C137.302 42.2987 138.235 41.856 139.121 41.856C139.633 41.856 140.054 41.9307 140.385 42.08L137.873 53.856H135.569L136.801 48.048C136.406 47.8667 136.043 47.7333 135.713 47.648C135.382 47.5627 135.03 47.504 134.657 47.472C134.049 48.784 133.547 50.128 133.153 51.504C132.769 52.8693 132.577 53.9627 132.577 54.784C132.577 55.1893 132.651 55.488 132.801 55.68ZM137.873 42.992C137.414 43.2373 136.934 43.696 136.433 44.368C135.942 45.0293 135.462 45.8347 134.993 46.784C135.761 46.9333 136.411 47.12 136.945 47.344L137.873 42.992ZM144.824 42.992C144.109 43.28 143.555 43.7227 143.16 44.32C142.776 44.9067 142.584 45.6267 142.584 46.48C142.584 46.8747 142.621 47.152 142.696 47.312C142.771 47.4613 142.808 47.5467 142.808 47.568C142.232 47.568 141.8 47.4507 141.512 47.216C141.235 46.9707 141.096 46.5707 141.096 46.016C141.096 45.3333 141.373 44.672 141.928 44.032C142.493 43.3813 143.213 42.8587 144.088 42.464C144.963 42.0587 145.837 41.856 146.712 41.856C146.861 41.856 147.075 41.8667 147.352 41.888L144.808 53.856H142.504L144.824 42.992ZM156.437 42.928C155.679 43.216 155.093 43.664 154.677 44.272C154.261 44.8693 154.053 45.6053 154.053 46.48C154.053 46.8747 154.09 47.152 154.165 47.312C154.239 47.4613 154.277 47.5467 154.277 47.568C153.701 47.568 153.269 47.4507 152.981 47.216C152.703 46.9707 152.565 46.5707 152.565 46.016C152.565 45.3333 152.842 44.672 153.397 44.032C153.962 43.3813 154.682 42.8587 155.557 42.464C156.431 42.0587 157.306 41.856 158.181 41.856C158.33 41.856 158.543 41.8667 158.821 41.888L158.965 51.728L162.325 41.936H164.357L164.501 51.728L167.861 41.936H168.981L164.533 53.856H162.229L162.037 45.712L158.997 53.856H156.693L156.437 42.928ZM169.947 45.856H172.251L172.043 46.848C172.406 46.528 172.731 46.2827 173.019 46.112C173.318 45.9413 173.638 45.856 173.979 45.856C174.321 45.856 174.587 45.9733 174.779 46.208C174.982 46.4427 175.083 46.7253 175.083 47.056C175.083 47.3653 174.982 47.6373 174.779 47.872C174.577 48.1067 174.294 48.224 173.931 48.224C173.697 48.224 173.537 48.1707 173.451 48.064C173.377 47.9467 173.318 47.7813 173.275 47.568C173.243 47.4293 173.211 47.328 173.179 47.264C173.147 47.2 173.089 47.168 173.003 47.168C172.779 47.168 172.587 47.216 172.427 47.312C172.278 47.3973 172.081 47.552 171.835 47.776L170.555 53.856H168.251L169.947 45.856ZM178.547 44.992C178.195 44.992 177.896 44.8693 177.651 44.624C177.406 44.3787 177.283 44.08 177.283 43.728C177.283 43.376 177.406 43.0773 177.651 42.832C177.896 42.576 178.195 42.448 178.547 42.448C178.899 42.448 179.198 42.576 179.443 42.832C179.699 43.0773 179.827 43.376 179.827 43.728C179.827 44.08 179.699 44.3787 179.443 44.624C179.198 44.8693 178.899 44.992 178.547 44.992ZM177.459 53.952C176.947 53.952 176.531 53.792 176.211 53.472C175.902 53.152 175.747 52.672 175.747 52.032C175.747 51.7653 175.79 51.4187 175.875 50.992L176.963 45.856H179.267L178.115 51.296C178.072 51.456 178.051 51.6267 178.051 51.808C178.051 52.0213 178.099 52.176 178.195 52.272C178.302 52.3573 178.472 52.4 178.707 52.4C179.016 52.4 179.304 52.272 179.571 52.016C179.838 51.7493 180.03 51.408 180.147 50.992H180.819C180.424 52.144 179.918 52.928 179.299 53.344C178.68 53.7493 178.067 53.952 177.459 53.952ZM182.725 53.952C182.213 53.952 181.797 53.792 181.477 53.472C181.167 53.152 181.013 52.672 181.013 52.032C181.013 51.7653 181.055 51.4187 181.141 50.992L182.101 46.496H181.573L181.701 45.856H182.229L182.709 43.648L185.077 43.328L184.533 45.856H185.493L185.365 46.496H184.405L183.381 51.296C183.338 51.456 183.317 51.6267 183.317 51.808C183.317 52.0213 183.365 52.176 183.461 52.272C183.567 52.3573 183.738 52.4 183.973 52.4C184.282 52.4 184.57 52.272 184.837 52.016C185.103 51.7493 185.295 51.408 185.413 50.992H186.085C185.69 52.144 185.183 52.928 184.565 53.344C183.946 53.7493 183.333 53.952 182.725 53.952ZM188.694 53.952C187.905 53.952 187.292 53.7493 186.854 53.344C186.417 52.928 186.198 52.2827 186.198 51.408C186.198 50.672 186.342 49.8613 186.63 48.976C186.918 48.0907 187.388 47.328 188.038 46.688C188.689 46.0373 189.516 45.712 190.518 45.712C191.692 45.712 192.278 46.224 192.278 47.248C192.278 47.8453 192.108 48.3947 191.766 48.896C191.425 49.3973 190.972 49.8027 190.406 50.112C189.841 50.4107 189.238 50.5813 188.598 50.624C188.577 50.944 188.566 51.1573 188.566 51.264C188.566 51.7867 188.657 52.144 188.838 52.336C189.02 52.5173 189.313 52.608 189.718 52.608C190.294 52.608 190.785 52.4747 191.19 52.208C191.606 51.9413 192.06 51.536 192.55 50.992H193.094C191.91 52.9653 190.444 53.952 188.694 53.952ZM188.726 49.856C189.121 49.8347 189.494 49.696 189.846 49.44C190.209 49.184 190.497 48.8587 190.71 48.464C190.934 48.0693 191.046 47.6533 191.046 47.216C191.046 46.7787 190.913 46.56 190.646 46.56C190.262 46.56 189.884 46.896 189.51 47.568C189.148 48.24 188.886 49.0027 188.726 49.856ZM194.635 45.856H196.939L196.731 46.848C197.094 46.528 197.419 46.2827 197.707 46.112C198.006 45.9413 198.326 45.856 198.667 45.856C199.008 45.856 199.275 45.9733 199.467 46.208C199.67 46.4427 199.771 46.7253 199.771 47.056C199.771 47.3653 199.67 47.6373 199.467 47.872C199.264 48.1067 198.982 48.224 198.619 48.224C198.384 48.224 198.224 48.1707 198.139 48.064C198.064 47.9467 198.006 47.7813 197.963 47.568C197.931 47.4293 197.899 47.328 197.867 47.264C197.835 47.2 197.776 47.168 197.691 47.168C197.467 47.168 197.275 47.216 197.115 47.312C196.966 47.3973 196.768 47.552 196.523 47.776L195.243 53.856H192.939L194.635 45.856Z" fill="white"/>
<ellipse cx="158.346" cy="363.01" rx="48.6243" ry="36.2388" transform="rotate(15 158.346 363.01)" fill="white" fill-opacity="0.2"/>
<path d="M135.801 367.245C135.406 367.245 135.059 367.213 134.761 367.149C134.462 367.085 134.201 366.93 133.977 366.685C133.763 366.44 133.657 366.061 133.657 365.549C133.657 364.834 133.87 363.874 134.297 362.669C134.734 361.464 135.305 360.253 136.009 359.037C135.475 359.069 135.054 359.149 134.745 359.277C134.435 359.405 134.233 359.602 134.137 359.869C134.179 359.869 134.222 359.922 134.265 360.029C134.318 360.136 134.345 360.248 134.345 360.365C134.345 360.557 134.259 360.712 134.089 360.829C133.918 360.936 133.705 360.989 133.449 360.989C133.15 360.989 132.91 360.909 132.729 360.749C132.547 360.589 132.457 360.36 132.457 360.061C132.457 359.698 132.595 359.368 132.873 359.069C133.161 358.77 133.555 358.536 134.057 358.365C134.558 358.184 135.113 358.093 135.721 358.093C135.945 358.093 136.222 358.109 136.553 358.141C137.427 356.754 138.35 355.624 139.321 354.749C140.302 353.864 141.235 353.421 142.121 353.421C142.633 353.421 143.054 353.496 143.385 353.645L140.873 365.421H138.569L139.801 359.613C139.406 359.432 139.043 359.298 138.713 359.213C138.382 359.128 138.03 359.069 137.657 359.037C137.049 360.349 136.547 361.693 136.153 363.069C135.769 364.434 135.577 365.528 135.577 366.349C135.577 366.754 135.651 367.053 135.801 367.245ZM140.873 354.557C140.414 354.802 139.934 355.261 139.433 355.933C138.942 356.594 138.462 357.4 137.993 358.349C138.761 358.498 139.411 358.685 139.945 358.909L140.873 354.557ZM145.088 357.421H147.392L147.184 358.413C147.547 358.093 147.872 357.848 148.16 357.677C148.459 357.506 148.779 357.421 149.12 357.421C149.461 357.421 149.728 357.538 149.92 357.773C150.123 358.008 150.224 358.29 150.224 358.621C150.224 358.93 150.123 359.202 149.92 359.437C149.717 359.672 149.435 359.789 149.072 359.789C148.837 359.789 148.677 359.736 148.592 359.629C148.517 359.512 148.459 359.346 148.416 359.133C148.384 358.994 148.352 358.893 148.32 358.829C148.288 358.765 148.229 358.733 148.144 358.733C147.92 358.733 147.728 358.781 147.568 358.877C147.419 358.962 147.221 359.117 146.976 359.341L145.696 365.421H143.392L145.088 357.421ZM152.6 365.517C152.088 365.517 151.672 365.357 151.352 365.037C151.042 364.717 150.888 364.237 150.888 363.597C150.888 363.33 150.93 362.984 151.016 362.557L151.976 358.061H151.448L151.576 357.421H152.104L152.584 355.213L154.952 354.893L154.408 357.421H155.368L155.24 358.061H154.28L153.256 362.861C153.213 363.021 153.192 363.192 153.192 363.373C153.192 363.586 153.24 363.741 153.336 363.837C153.442 363.922 153.613 363.965 153.848 363.965C154.157 363.965 154.445 363.837 154.712 363.581C154.978 363.314 155.17 362.973 155.288 362.557H155.96C155.565 363.709 155.058 364.493 154.44 364.909C153.821 365.314 153.208 365.517 152.6 365.517ZM158.953 356.557C158.601 356.557 158.303 356.434 158.057 356.189C157.812 355.944 157.689 355.645 157.689 355.293C157.689 354.941 157.812 354.642 158.057 354.397C158.303 354.141 158.601 354.013 158.953 354.013C159.305 354.013 159.604 354.141 159.849 354.397C160.105 354.642 160.233 354.941 160.233 355.293C160.233 355.645 160.105 355.944 159.849 356.189C159.604 356.434 159.305 356.557 158.953 356.557ZM157.865 365.517C157.353 365.517 156.937 365.357 156.617 365.037C156.308 364.717 156.153 364.237 156.153 363.597C156.153 363.33 156.196 362.984 156.281 362.557L157.369 357.421H159.673L158.521 362.861C158.479 363.021 158.457 363.192 158.457 363.373C158.457 363.586 158.505 363.741 158.601 363.837C158.708 363.922 158.879 363.965 159.113 363.965C159.423 363.965 159.711 363.837 159.977 363.581C160.244 363.314 160.436 362.973 160.553 362.557H161.225C160.831 363.709 160.324 364.493 159.705 364.909C159.087 365.314 158.473 365.517 157.865 365.517ZM163.835 365.517C163.046 365.517 162.432 365.314 161.995 364.909C161.558 364.493 161.339 363.848 161.339 362.973C161.339 362.237 161.483 361.426 161.771 360.541C162.07 359.656 162.539 358.893 163.179 358.253C163.83 357.602 164.651 357.277 165.643 357.277C166.283 357.277 166.736 357.416 167.003 357.693C167.28 357.97 167.419 358.322 167.419 358.749C167.419 359.122 167.339 359.41 167.179 359.613C167.019 359.816 166.816 359.917 166.571 359.917C166.39 359.917 166.203 359.853 166.011 359.725C166.139 359.373 166.203 359.058 166.203 358.781C166.203 358.578 166.166 358.418 166.091 358.301C166.016 358.184 165.904 358.125 165.755 358.125C165.435 358.125 165.115 358.386 164.795 358.909C164.475 359.432 164.214 360.066 164.011 360.813C163.808 361.56 163.707 362.232 163.707 362.829C163.707 363.352 163.798 363.709 163.979 363.901C164.16 364.082 164.454 364.173 164.859 364.173C165.435 364.173 165.926 364.04 166.331 363.773C166.747 363.506 167.2 363.101 167.691 362.557H168.235C167.051 364.53 165.584 365.517 163.835 365.517ZM170.272 365.517C169.76 365.517 169.344 365.357 169.024 365.037C168.714 364.717 168.559 364.237 168.559 363.597C168.559 363.33 168.602 362.984 168.688 362.557L170.4 354.541L172.768 354.221L170.928 362.861C170.885 363.021 170.864 363.192 170.864 363.373C170.864 363.586 170.912 363.741 171.008 363.837C171.114 363.922 171.285 363.965 171.52 363.965C171.829 363.965 172.117 363.837 172.384 363.581C172.65 363.314 172.842 362.973 172.96 362.557H173.632C173.237 363.709 172.73 364.493 172.112 364.909C171.493 365.314 170.88 365.517 170.272 365.517ZM176.209 365.517C175.43 365.517 174.822 365.314 174.385 364.909C173.948 364.493 173.729 363.848 173.729 362.973C173.729 362.237 173.873 361.426 174.161 360.541C174.449 359.656 174.918 358.893 175.569 358.253C176.22 357.602 177.046 357.277 178.049 357.277C179.222 357.277 179.809 357.789 179.809 358.813C179.809 359.41 179.638 359.96 179.297 360.461C178.956 360.962 178.502 361.368 177.937 361.677C177.372 361.976 176.769 362.146 176.129 362.189C176.108 362.424 176.097 362.584 176.097 362.669C176.097 363.554 176.428 363.997 177.089 363.997C177.388 363.997 177.708 363.917 178.049 363.757C178.39 363.597 178.7 363.394 178.977 363.149C178.689 364.728 177.766 365.517 176.209 365.517ZM176.241 361.421C176.646 361.41 177.025 361.277 177.377 361.021C177.74 360.765 178.028 360.44 178.241 360.045C178.465 359.64 178.577 359.218 178.577 358.781C178.577 358.344 178.444 358.125 178.177 358.125C177.804 358.125 177.43 358.466 177.057 359.149C176.694 359.821 176.422 360.578 176.241 361.421Z" fill="white"/>
</svg>
