<svg width="205" height="403" viewBox="0 0 205 403" fill="none" xmlns="http://www.w3.org/2000/svg">
<ellipse cx="139.988" cy="208.298" rx="56.1874" ry="41.4012" transform="rotate(-15 139.988 208.298)" fill="white"/>
<path d="M173.503 212.557C172.938 212.557 172.527 212.386 172.271 212.045C172.015 211.704 171.887 211.272 171.887 210.749C171.887 210.525 171.914 210.274 171.967 209.997C172.02 209.709 172.074 209.432 172.127 209.165C172.191 208.898 172.234 208.728 172.255 208.653C172.34 208.28 172.42 207.912 172.495 207.549C172.57 207.186 172.607 206.893 172.607 206.669C172.607 206.125 172.415 205.853 172.031 205.853C171.754 205.853 171.508 205.992 171.295 206.269C171.082 206.536 170.911 206.888 170.783 207.325L169.695 212.461H167.391L169.087 204.461H171.391L171.215 205.293C171.748 204.696 172.372 204.397 173.087 204.397C173.631 204.397 174.063 204.546 174.383 204.845C174.703 205.144 174.863 205.597 174.863 206.205C174.863 206.514 174.826 206.861 174.751 207.245C174.676 207.618 174.57 208.077 174.431 208.621C174.346 208.952 174.266 209.277 174.191 209.597C174.127 209.906 174.095 210.152 174.095 210.333C174.095 210.546 174.143 210.712 174.239 210.829C174.335 210.946 174.5 211.005 174.735 211.005C174.991 211.005 175.167 210.973 175.263 210.909C175.199 211.453 175.002 211.864 174.671 212.141C174.351 212.418 173.962 212.557 173.503 212.557Z" fill="black"/>
<path d="M162.304 212.525C161.514 212.525 160.89 212.322 160.432 211.917C159.973 211.512 159.744 210.872 159.744 209.997C159.744 209.272 159.893 208.466 160.192 207.581C160.49 206.696 160.97 205.933 161.632 205.293C162.293 204.642 163.125 204.317 164.128 204.317C165.493 204.317 166.176 205.17 166.176 206.877V206.893C166.208 206.904 166.266 206.909 166.352 206.909C166.704 206.909 167.109 206.818 167.568 206.637C168.026 206.445 168.442 206.216 168.816 205.949L168.96 206.381C168.65 206.712 168.245 206.994 167.744 207.229C167.253 207.453 166.714 207.613 166.128 207.709C166.042 208.68 165.824 209.528 165.472 210.253C165.12 210.978 164.666 211.538 164.112 211.933C163.557 212.328 162.954 212.525 162.304 212.525ZM162.944 211.085C163.2 211.085 163.456 210.941 163.712 210.653C163.968 210.354 164.192 209.954 164.384 209.453C164.576 208.941 164.714 208.376 164.8 207.757C164.512 207.693 164.368 207.469 164.368 207.085C164.368 206.648 164.533 206.36 164.864 206.221C164.842 205.869 164.789 205.629 164.704 205.501C164.618 205.362 164.469 205.293 164.256 205.293C163.904 205.293 163.562 205.549 163.232 206.061C162.901 206.573 162.634 207.186 162.432 207.901C162.229 208.616 162.128 209.245 162.128 209.789C162.128 210.301 162.186 210.648 162.304 210.829C162.421 211 162.634 211.085 162.944 211.085Z" fill="black"/>
<path d="M157.374 203.597C157.022 203.597 156.724 203.474 156.478 203.229C156.233 202.984 156.11 202.685 156.11 202.333C156.11 201.981 156.233 201.682 156.478 201.437C156.724 201.181 157.022 201.053 157.374 201.053C157.726 201.053 158.025 201.181 158.27 201.437C158.526 201.682 158.654 201.981 158.654 202.333C158.654 202.685 158.526 202.984 158.27 203.229C158.025 203.474 157.726 203.597 157.374 203.597ZM156.286 212.557C155.774 212.557 155.358 212.397 155.038 212.077C154.729 211.757 154.574 211.277 154.574 210.637C154.574 210.37 154.617 210.024 154.702 209.597L155.79 204.461H158.094L156.942 209.901C156.9 210.061 156.878 210.232 156.878 210.413C156.878 210.626 156.926 210.781 157.022 210.877C157.129 210.962 157.3 211.005 157.534 211.005C157.844 211.005 158.132 210.877 158.398 210.621C158.665 210.354 158.857 210.013 158.974 209.597H159.646C159.252 210.749 158.745 211.533 158.126 211.949C157.508 212.354 156.894 212.557 156.286 212.557Z" fill="black"/>
<path d="M151.021 212.557C150.509 212.557 150.093 212.397 149.773 212.077C149.463 211.757 149.309 211.277 149.309 210.637C149.309 210.37 149.351 210.024 149.437 209.597L150.397 205.101H149.869L149.997 204.461H150.525L151.005 202.253L153.373 201.933L152.829 204.461H153.789L153.661 205.101H152.701L151.677 209.901C151.634 210.061 151.613 210.232 151.613 210.413C151.613 210.626 151.661 210.781 151.757 210.877C151.863 210.962 152.034 211.005 152.269 211.005C152.578 211.005 152.866 210.877 153.133 210.621C153.399 210.354 153.591 210.013 153.709 209.597H154.381C153.986 210.749 153.479 211.533 152.861 211.949C152.242 212.354 151.629 212.557 151.021 212.557Z" fill="black"/>
<path d="M144.584 212.557C143.795 212.557 143.181 212.354 142.744 211.949C142.307 211.533 142.088 210.888 142.088 210.013C142.088 209.277 142.232 208.466 142.52 207.581C142.819 206.696 143.288 205.933 143.928 205.293C144.579 204.642 145.4 204.317 146.392 204.317C147.032 204.317 147.485 204.456 147.752 204.733C148.029 205.01 148.168 205.362 148.168 205.789C148.168 206.162 148.088 206.45 147.928 206.653C147.768 206.856 147.565 206.957 147.32 206.957C147.139 206.957 146.952 206.893 146.76 206.765C146.888 206.413 146.952 206.098 146.952 205.821C146.952 205.618 146.915 205.458 146.84 205.341C146.765 205.224 146.653 205.165 146.504 205.165C146.184 205.165 145.864 205.426 145.544 205.949C145.224 206.472 144.963 207.106 144.76 207.853C144.557 208.6 144.456 209.272 144.456 209.869C144.456 210.392 144.547 210.749 144.728 210.941C144.909 211.122 145.203 211.213 145.608 211.213C146.184 211.213 146.675 211.08 147.08 210.813C147.496 210.546 147.949 210.141 148.44 209.597H148.984C147.8 211.57 146.333 212.557 144.584 212.557Z" fill="black"/>
<path d="M137.443 212.557C136.654 212.557 136.041 212.354 135.603 211.949C135.166 211.533 134.947 210.888 134.947 210.013C134.947 209.277 135.091 208.466 135.379 207.581C135.667 206.696 136.137 205.933 136.787 205.293C137.438 204.642 138.265 204.317 139.267 204.317C140.441 204.317 141.027 204.829 141.027 205.853C141.027 206.45 140.857 207 140.515 207.501C140.174 208.002 139.721 208.408 139.155 208.717C138.59 209.016 137.987 209.186 137.347 209.229C137.326 209.549 137.315 209.762 137.315 209.869C137.315 210.392 137.406 210.749 137.587 210.941C137.769 211.122 138.062 211.213 138.467 211.213C139.043 211.213 139.534 211.08 139.939 210.813C140.355 210.546 140.809 210.141 141.299 209.597H141.843C140.659 211.57 139.193 212.557 137.443 212.557ZM137.475 208.461C137.87 208.44 138.243 208.301 138.595 208.045C138.958 207.789 139.246 207.464 139.459 207.069C139.683 206.674 139.795 206.258 139.795 205.821C139.795 205.384 139.662 205.165 139.395 205.165C139.011 205.165 138.633 205.501 138.259 206.173C137.897 206.845 137.635 207.608 137.475 208.461Z" fill="black"/>
<path d="M129.227 204.461H131.531L131.323 205.453C131.686 205.133 132.011 204.888 132.299 204.717C132.598 204.546 132.918 204.461 133.259 204.461C133.601 204.461 133.867 204.578 134.059 204.813C134.262 205.048 134.363 205.33 134.363 205.661C134.363 205.97 134.262 206.242 134.059 206.477C133.857 206.712 133.574 206.829 133.211 206.829C132.977 206.829 132.817 206.776 132.731 206.669C132.657 206.552 132.598 206.386 132.555 206.173C132.523 206.034 132.491 205.933 132.459 205.869C132.427 205.805 132.369 205.773 132.283 205.773C132.059 205.773 131.867 205.821 131.707 205.917C131.558 206.002 131.361 206.157 131.115 206.381L129.835 212.461H127.531L129.227 204.461Z" fill="black"/>
<path d="M122.212 204.461H124.516L124.308 205.453C124.671 205.133 124.996 204.888 125.284 204.717C125.583 204.546 125.903 204.461 126.244 204.461C126.585 204.461 126.852 204.578 127.044 204.813C127.247 205.048 127.348 205.33 127.348 205.661C127.348 205.97 127.247 206.242 127.044 206.477C126.841 206.712 126.559 206.829 126.196 206.829C125.961 206.829 125.801 206.776 125.716 206.669C125.641 206.552 125.583 206.386 125.54 206.173C125.508 206.034 125.476 205.933 125.444 205.869C125.412 205.805 125.353 205.773 125.268 205.773C125.044 205.773 124.852 205.821 124.692 205.917C124.543 206.002 124.345 206.157 124.1 206.381L122.82 212.461H120.516L122.212 204.461Z" fill="black"/>
<path d="M115.429 212.525C114.639 212.525 114.015 212.322 113.557 211.917C113.098 211.512 112.869 210.872 112.869 209.997C112.869 209.272 113.018 208.466 113.317 207.581C113.615 206.696 114.095 205.933 114.757 205.293C115.418 204.642 116.25 204.317 117.253 204.317C118.618 204.317 119.301 205.17 119.301 206.877V206.893C119.333 206.904 119.391 206.909 119.477 206.909C119.829 206.909 120.234 206.818 120.693 206.637C121.151 206.445 121.567 206.216 121.941 205.949L122.085 206.381C121.775 206.712 121.37 206.994 120.869 207.229C120.378 207.453 119.839 207.613 119.253 207.709C119.167 208.68 118.949 209.528 118.597 210.253C118.245 210.978 117.791 211.538 117.237 211.933C116.682 212.328 116.079 212.525 115.429 212.525ZM116.069 211.085C116.325 211.085 116.581 210.941 116.837 210.653C117.093 210.354 117.317 209.954 117.509 209.453C117.701 208.941 117.839 208.376 117.925 207.757C117.637 207.693 117.493 207.469 117.493 207.085C117.493 206.648 117.658 206.36 117.989 206.221C117.967 205.869 117.914 205.629 117.829 205.501C117.743 205.362 117.594 205.293 117.381 205.293C117.029 205.293 116.687 205.549 116.357 206.061C116.026 206.573 115.759 207.186 115.557 207.901C115.354 208.616 115.253 209.245 115.253 209.789C115.253 210.301 115.311 210.648 115.429 210.829C115.546 211 115.759 211.085 116.069 211.085Z" fill="black"/>
<path d="M107.948 212.717C106.742 212.717 105.857 212.413 105.292 211.805C104.726 211.197 104.444 210.189 104.444 208.781C104.444 207.661 104.63 206.456 105.004 205.165C105.388 203.874 105.996 202.77 106.828 201.853C107.67 200.925 108.737 200.461 110.028 200.461C110.828 200.461 111.473 200.637 111.964 200.989C112.454 201.341 112.7 201.88 112.7 202.605C112.7 203.064 112.609 203.426 112.428 203.693C112.246 203.949 111.964 204.077 111.58 204.077C111.196 204.077 110.892 203.938 110.668 203.661C110.86 203.565 111.03 203.373 111.18 203.085C111.329 202.797 111.404 202.498 111.404 202.189C111.404 201.901 111.324 201.666 111.164 201.485C111.014 201.304 110.769 201.213 110.428 201.213C109.862 201.213 109.324 201.602 108.812 202.381C108.3 203.149 107.884 204.12 107.564 205.293C107.254 206.466 107.1 207.597 107.1 208.685C107.1 209.496 107.238 210.114 107.516 210.541C107.793 210.968 108.294 211.181 109.02 211.181C109.649 211.181 110.23 211.042 110.764 210.765C111.297 210.488 111.756 210.093 112.14 209.581L112.508 209.741C112.241 210.413 111.846 210.973 111.324 211.421C110.801 211.869 110.241 212.2 109.644 212.413C109.046 212.616 108.481 212.717 107.948 212.717Z" fill="black"/>
<ellipse cx="38.5669" cy="31.2775" rx="34.2969" ry="24.3205" transform="rotate(11.8727 38.5669 31.2775)" fill="white"/>
<path d="M52.0272 38.9699C51.5258 38.9699 51.0832 38.8045 50.6992 38.4739C50.3258 38.1539 50.1392 37.7432 50.1392 37.2419C50.1392 36.7725 50.2565 36.3885 50.4912 36.0899C50.7258 35.7912 51.0298 35.5565 51.4032 35.3859C51.7765 35.2152 52.2778 35.0339 52.9072 34.8419L53.0512 34.1699C52.4965 34.7672 51.8565 35.0659 51.1312 35.0659C50.5232 35.0659 50.0165 34.8579 49.6112 34.4419C49.2058 34.0259 49.0032 33.3752 49.0032 32.4899C49.0032 31.7005 49.1578 30.8739 49.4672 30.0099C49.7872 29.1352 50.2565 28.3992 50.8752 27.8019C51.5045 27.1939 52.2512 26.8899 53.1152 26.8899C53.5525 26.8899 53.8778 26.9645 54.0912 27.1139C54.3045 27.2632 54.4112 27.4605 54.4112 27.7059V27.7379L54.5712 26.9699H56.8912L54.9392 36.2499C54.7258 37.2739 54.3472 37.9832 53.8032 38.3779C53.2698 38.7725 52.6778 38.9699 52.0272 38.9699ZM52.1712 33.5139C52.4165 33.5139 52.6618 33.4125 52.9072 33.2099C53.1632 32.9965 53.3445 32.6979 53.4512 32.3139L54.2672 28.4419C54.1818 28.0685 53.9632 27.8819 53.6112 27.8819C53.1845 27.8819 52.8005 28.1325 52.4592 28.6339C52.1178 29.1245 51.8512 29.7219 51.6592 30.4259C51.4672 31.1192 51.3712 31.7325 51.3712 32.2659C51.3712 32.7992 51.4458 33.1405 51.5952 33.2899C51.7552 33.4392 51.9472 33.5139 52.1712 33.5139ZM51.6592 37.5459C51.8512 37.5459 52.0325 37.4445 52.2032 37.2419C52.3738 37.0499 52.5072 36.7352 52.6032 36.2979L52.7952 35.3539C52.2298 35.5459 51.7925 35.7699 51.4832 36.0259C51.1738 36.2819 51.0192 36.6125 51.0192 37.0179C51.0192 37.1459 51.0832 37.2632 51.2112 37.3699C51.3392 37.4872 51.4885 37.5459 51.6592 37.5459Z" fill="black"/>
<path d="M43.5158 35.0339C42.7265 35.0339 42.1025 34.8312 41.6438 34.4259C41.1851 34.0205 40.9558 33.3805 40.9558 32.5059C40.9558 31.7805 41.1051 30.9752 41.4038 30.0899C41.7025 29.2045 42.1825 28.4419 42.8438 27.8019C43.5051 27.1512 44.3371 26.8259 45.3398 26.8259C46.7051 26.8259 47.3878 27.6792 47.3878 29.3859V29.4019C47.4198 29.4125 47.4785 29.4179 47.5638 29.4179C47.9158 29.4179 48.3211 29.3272 48.7798 29.1459C49.2385 28.9539 49.6545 28.7245 50.0278 28.4579L50.1718 28.8899C49.8625 29.2205 49.4571 29.5032 48.9558 29.7379C48.4651 29.9619 47.9265 30.1219 47.3398 30.2179C47.2545 31.1885 47.0358 32.0365 46.6838 32.7619C46.3318 33.4872 45.8785 34.0472 45.3238 34.4419C44.7691 34.8365 44.1665 35.0339 43.5158 35.0339ZM44.1558 33.5939C44.4118 33.5939 44.6678 33.4499 44.9238 33.1619C45.1798 32.8632 45.4038 32.4632 45.5958 31.9619C45.7878 31.4499 45.9265 30.8845 46.0118 30.2659C45.7238 30.2019 45.5798 29.9779 45.5798 29.5939C45.5798 29.1565 45.7451 28.8685 46.0758 28.7299C46.0545 28.3779 46.0011 28.1379 45.9158 28.0099C45.8305 27.8712 45.6811 27.8019 45.4678 27.8019C45.1158 27.8019 44.7745 28.0579 44.4438 28.5699C44.1131 29.0819 43.8465 29.6952 43.6438 30.4099C43.4411 31.1245 43.3398 31.7539 43.3398 32.2979C43.3398 32.8099 43.3985 33.1565 43.5158 33.3379C43.6331 33.5085 43.8465 33.5939 44.1558 33.5939Z" fill="black"/>
<path d="M37.4981 35.0659C36.9861 35.0659 36.5701 34.9059 36.2501 34.5859C35.9408 34.2659 35.7861 33.7859 35.7861 33.1459C35.7861 32.8792 35.8288 32.5325 35.9141 32.1059L37.6261 24.0899L39.9941 23.7699L38.1541 32.4099C38.1115 32.5699 38.0901 32.7405 38.0901 32.9219C38.0901 33.1352 38.1381 33.2899 38.2341 33.3859C38.3408 33.4712 38.5115 33.5139 38.7461 33.5139C39.0555 33.5139 39.3435 33.3859 39.6101 33.1299C39.8768 32.8632 40.0688 32.5219 40.1861 32.1059H40.8581C40.4635 33.2579 39.9568 34.0419 39.3381 34.4579C38.7195 34.8632 38.1061 35.0659 37.4981 35.0659Z" fill="black"/>
<path d="M30.8562 35.2419C30.4295 35.2419 30.0562 35.1512 29.7362 34.9699C29.4269 34.7992 29.2722 34.4952 29.2722 34.0579C29.2722 33.7805 29.3415 33.4712 29.4802 33.1299C29.6722 33.3432 29.8482 33.4925 30.0082 33.5779C30.1789 33.6632 30.3602 33.7059 30.5522 33.7059C31.0855 33.7059 31.4802 33.4072 31.7362 32.8099C32.0029 32.2125 32.1362 31.5512 32.1362 30.8259C32.1362 29.4712 31.6295 28.7939 30.6162 28.7939C30.3282 28.7939 30.0829 28.8099 29.8802 28.8419L28.5682 34.9699H26.2642L28.4402 24.7939L30.8082 24.4739L30.0562 28.0259H30.1522C30.5575 28.0259 30.9362 27.8979 31.2882 27.6419C31.6402 27.3752 31.9229 27.0445 32.1362 26.6499C32.3495 26.2445 32.4562 25.8392 32.4562 25.4339C32.4562 24.9432 32.2802 24.5325 31.9282 24.2019C31.5869 23.8712 31.0589 23.7059 30.3442 23.7059C29.6935 23.7059 29.0589 23.8552 28.4402 24.1539C27.8215 24.4419 27.3149 24.8792 26.9202 25.4659C26.5362 26.0525 26.3442 26.7619 26.3442 27.5939C26.3442 27.9885 26.3815 28.2659 26.4562 28.4259C26.5309 28.5752 26.5682 28.6605 26.5682 28.6819C26.0029 28.6819 25.5762 28.5699 25.2882 28.3459C25.0002 28.1112 24.8562 27.7325 24.8562 27.2099C24.8562 26.4845 25.1282 25.7965 25.6722 25.1459C26.2162 24.4952 26.9362 23.9725 27.8322 23.5779C28.7282 23.1725 29.6722 22.9699 30.6642 22.9699C31.4109 22.9699 32.0402 23.0872 32.5522 23.3219C33.0642 23.5565 33.4429 23.8659 33.6882 24.2499C33.9442 24.6339 34.0722 25.0552 34.0722 25.5139C34.0722 26.0045 33.9335 26.4792 33.6562 26.9379C33.3789 27.3965 32.9842 27.7699 32.4722 28.0579C33.1122 28.1752 33.5869 28.4739 33.8962 28.9539C34.2055 29.4232 34.3602 29.9832 34.3602 30.6339C34.3602 31.2419 34.2429 31.9032 34.0082 32.6179C33.7842 33.3325 33.4055 33.9512 32.8722 34.4739C32.3495 34.9859 31.6775 35.2419 30.8562 35.2419Z" fill="black"/>
<ellipse cx="49.5908" cy="373.278" rx="34.2969" ry="24.3205" transform="rotate(8.72992 49.5908 373.278)" fill="white"/>
<path d="M60.942 377.066C60.398 377.066 59.9927 376.9 59.726 376.57C59.47 376.239 59.342 375.802 59.342 375.258C59.342 374.98 59.374 374.698 59.438 374.41L60.462 369.61H59.934L60.062 368.97H60.59L61.07 366.762L63.438 366.442C63.342 366.847 63.2887 367.087 63.278 367.162C63.2034 367.46 63.0754 368.063 62.894 368.97H63.854L63.726 369.61H62.766L61.742 374.41C61.6887 374.644 61.662 374.831 61.662 374.97C61.662 375.354 61.8487 375.546 62.222 375.546C62.414 375.546 62.5527 375.53 62.638 375.498C62.4247 376.116 62.174 376.532 61.886 376.746C61.598 376.959 61.2834 377.066 60.942 377.066Z" fill="black"/>
<path d="M54.5317 377.066C53.6784 377.066 53.0917 376.863 52.7717 376.458C52.4624 376.052 52.3077 375.546 52.3077 374.938C52.3077 374.49 52.4251 374.127 52.6597 373.85C52.8944 373.562 53.1611 373.418 53.4597 373.418C54.0144 373.418 54.2917 373.642 54.2917 374.09C54.2917 374.282 54.2171 374.452 54.0677 374.602C53.9184 374.74 53.7371 374.81 53.5237 374.81C53.2997 374.81 53.1557 374.74 53.0917 374.602C53.0917 374.986 53.1664 375.284 53.3157 375.498C53.4757 375.7 53.7104 375.802 54.0197 375.802C54.3824 375.802 54.6384 375.695 54.7877 375.482C54.9477 375.258 55.0277 374.868 55.0277 374.314C55.0277 373.994 54.9957 373.588 54.9317 373.098C54.8251 372.074 54.7397 371.028 54.6757 369.962C53.9184 371.124 53.0224 371.86 51.9877 372.17C51.9237 373.151 51.7157 374.01 51.3637 374.746C51.0117 375.482 50.5584 376.047 50.0037 376.442C49.4597 376.836 48.8571 377.034 48.1957 377.034C47.4064 377.034 46.7824 376.831 46.3237 376.426C45.8651 376.02 45.6357 375.38 45.6357 374.506C45.6357 373.77 45.7797 372.964 46.0677 372.09C46.3557 371.204 46.8251 370.442 47.4757 369.802C48.1264 369.151 48.9584 368.826 49.9717 368.826C51.3264 368.826 52.0091 369.663 52.0197 371.338C52.8091 371.295 53.6784 370.447 54.6277 368.794L56.9957 368.474C57.0491 369.839 57.1397 371.316 57.2677 372.906C57.3211 373.546 57.3477 374.01 57.3477 374.298C57.3477 374.511 57.3317 374.708 57.2997 374.89C57.6197 374.708 57.9984 374.447 58.4357 374.106H59.1077C58.5211 374.788 57.7797 375.412 56.8837 375.978C56.6171 376.362 56.2757 376.639 55.8597 376.81C55.4544 376.98 55.0117 377.066 54.5317 377.066ZM48.8357 375.594C49.2304 375.594 49.5984 375.279 49.9397 374.65C50.2811 374.01 50.5157 373.22 50.6437 372.282C50.3877 372.186 50.2597 371.946 50.2597 371.562C50.2597 371.146 50.4091 370.868 50.7077 370.73C50.6864 370.388 50.6277 370.148 50.5317 370.01C50.4464 369.871 50.3024 369.802 50.0997 369.802C49.7477 369.802 49.4117 370.058 49.0917 370.57C48.7717 371.071 48.5104 371.684 48.3077 372.41C48.1157 373.124 48.0197 373.754 48.0197 374.298C48.0197 374.81 48.0784 375.156 48.1957 375.338C48.3131 375.508 48.5264 375.594 48.8357 375.594Z" fill="black"/>
<path d="M39.3679 366.794L41.7359 366.474L40.5999 371.818C41.1119 371.775 41.5813 371.551 42.0079 371.146C42.4453 370.74 42.7866 370.239 43.0319 369.642C43.2773 369.044 43.3999 368.458 43.3999 367.882C43.3999 367.242 43.2346 366.719 42.9039 366.314C42.5733 365.908 42.0773 365.706 41.4159 365.706C40.1146 365.706 39.0959 366.047 38.3599 366.73C37.6346 367.412 37.2719 368.367 37.2719 369.594C37.2719 369.988 37.3093 370.266 37.3839 370.426C37.4586 370.575 37.4959 370.66 37.4959 370.682C36.9199 370.682 36.4879 370.564 36.1999 370.33C35.9226 370.084 35.7839 369.684 35.7839 369.13C35.7839 368.447 36.0613 367.786 36.6159 367.146C37.1813 366.495 37.9013 365.972 38.7759 365.578C39.6506 365.172 40.5253 364.97 41.3999 364.97C42.2426 364.97 42.9466 365.114 43.5119 365.402C44.0773 365.69 44.4933 366.074 44.7599 366.554C45.0373 367.023 45.1759 367.546 45.1759 368.122C45.1759 368.815 44.9839 369.492 44.5999 370.154C44.2266 370.815 43.6879 371.359 42.9839 371.786C42.2799 372.202 41.4693 372.41 40.5519 372.41H40.4719L39.4959 376.97H37.1919L39.3679 366.794Z" fill="black"/>
</svg>
