<svg width="278" height="64" viewBox="0 0 278 64" fill="none" xmlns="http://www.w3.org/2000/svg">
<path d="M258 40C258 42.2091 256.209 44 254 44H22C9.84973 44 0 34.1503 0 22C0 9.84974 9.84973 7.62939e-06 22 7.62939e-06H218C240.091 7.62939e-06 258 17.9086 258 40Z" fill="#FF4BD8"/>
<path d="M224.291 32.818V31.124H225.677C226.667 31.124 227.459 30.97 227.965 29.606L228.339 28.572L224.005 17.242H226.183L229.307 25.91L232.497 17.242H234.631L229.549 30.42C228.823 32.268 227.745 33.038 226.095 33.038C225.413 33.038 224.841 32.95 224.291 32.818Z" fill="white"/>
<path d="M211.495 22.346C211.495 19.31 213.453 16.934 216.577 16.934C218.315 16.934 219.657 17.726 220.339 19.068L220.493 17.242H222.341V27.56C222.341 30.948 220.251 33.104 216.951 33.104C214.025 33.104 212.023 31.454 211.627 28.726H213.695C213.959 30.31 215.147 31.234 216.951 31.234C218.975 31.234 220.295 29.914 220.295 27.868V25.712C219.591 26.966 218.183 27.714 216.489 27.714C213.431 27.714 211.495 25.36 211.495 22.346ZM213.563 22.302C213.563 24.326 214.817 25.91 216.841 25.91C218.931 25.91 220.207 24.414 220.207 22.302C220.207 20.234 218.975 18.738 216.863 18.738C214.795 18.738 213.563 20.322 213.563 22.302Z" fill="white"/>
<path d="M198.689 22.61C198.689 19.288 201.065 16.956 204.299 16.956C207.511 16.956 209.887 19.288 209.887 22.61C209.887 25.932 207.511 28.264 204.299 28.264C201.065 28.264 198.689 25.932 198.689 22.61ZM200.779 22.61C200.779 24.854 202.209 26.416 204.299 26.416C206.367 26.416 207.819 24.854 207.819 22.61C207.819 20.366 206.367 18.804 204.299 18.804C202.209 18.804 200.779 20.366 200.779 22.61Z" fill="white"/>
<path d="M196.349 28H194.281V11.808H196.349V28Z" fill="white"/>
<path d="M180.75 22.61C180.75 19.288 183.126 16.956 186.36 16.956C189.572 16.956 191.948 19.288 191.948 22.61C191.948 25.932 189.572 28.264 186.36 28.264C183.126 28.264 180.75 25.932 180.75 22.61ZM182.84 22.61C182.84 24.854 184.27 26.416 186.36 26.416C188.428 26.416 189.88 24.854 189.88 22.61C189.88 20.366 188.428 18.804 186.36 18.804C184.27 18.804 182.84 20.366 182.84 22.61Z" fill="white"/>
<path d="M170.867 28H168.799V17.242H170.669L170.889 18.892C171.571 17.66 172.935 16.934 174.453 16.934C177.291 16.934 178.589 18.672 178.589 21.422V28H176.521V21.884C176.521 19.706 175.509 18.826 173.925 18.826C171.989 18.826 170.867 20.212 170.867 22.302V28Z" fill="white"/>
<path d="M158.213 27.978H156.145V11.808H158.213V18.892C158.895 17.726 160.193 16.934 161.865 16.934C164.615 16.934 165.935 18.672 165.935 21.422V28H163.867V21.884C163.867 19.706 162.833 18.826 161.293 18.826C159.291 18.826 158.213 20.278 158.213 22.126V27.978Z" fill="white"/>
<path d="M143.689 22.632C143.689 19.266 145.823 16.934 148.969 16.934C151.675 16.934 153.567 18.474 153.941 20.872H151.873C151.521 19.508 150.421 18.782 149.035 18.782C147.077 18.782 145.735 20.278 145.735 22.61C145.735 24.92 146.989 26.416 148.947 26.416C150.421 26.416 151.521 25.646 151.895 24.37H153.963C153.545 26.702 151.543 28.264 148.947 28.264C145.779 28.264 143.689 26.02 143.689 22.632Z" fill="white"/>
<path d="M137.112 28.264C133.944 28.264 131.766 25.976 131.766 22.632C131.766 19.266 133.9 16.934 137.024 16.934C140.082 16.934 142.084 19.046 142.084 22.236V23.006L133.768 23.028C133.922 25.294 135.11 26.548 137.156 26.548C138.762 26.548 139.818 25.888 140.17 24.656H142.106C141.578 26.966 139.774 28.264 137.112 28.264ZM137.024 18.672C135.22 18.672 134.076 19.75 133.812 21.642H140.016C140.016 19.86 138.85 18.672 137.024 18.672Z" fill="white"/>
<path d="M120.668 14.074V12.094H132.394V14.074H127.62V28H125.464V14.074H120.668Z" fill="white"/>
<path d="M108.559 28.264C105.391 28.264 103.213 25.976 103.213 22.632C103.213 19.266 105.347 16.934 108.471 16.934C111.529 16.934 113.531 19.046 113.531 22.236V23.006L105.215 23.028C105.369 25.294 106.557 26.548 108.603 26.548C110.209 26.548 111.265 25.888 111.617 24.656H113.553C113.025 26.966 111.221 28.264 108.559 28.264ZM108.471 18.672C106.667 18.672 105.523 19.75 105.259 21.642H111.463C111.463 19.86 110.297 18.672 108.471 18.672Z" fill="white"/>
<path d="M91.4609 22.632C91.4609 19.266 93.5949 16.934 96.7409 16.934C99.4469 16.934 101.339 18.474 101.713 20.872H99.6449C99.2929 19.508 98.1929 18.782 96.8069 18.782C94.8489 18.782 93.5069 20.278 93.5069 22.61C93.5069 24.92 94.7609 26.416 96.7189 26.416C98.1929 26.416 99.2929 25.646 99.6669 24.37H101.735C101.317 26.702 99.3149 28.264 96.7189 28.264C93.5509 28.264 91.4609 26.02 91.4609 22.632Z" fill="white"/>
<path d="M81.5783 28H79.5103V17.242H81.3803L81.6003 18.892C82.2823 17.66 83.6463 16.934 85.1643 16.934C88.0023 16.934 89.3003 18.672 89.3003 21.422V28H87.2323V21.884C87.2323 19.706 86.2203 18.826 84.6363 18.826C82.7003 18.826 81.5783 20.212 81.5783 22.302V28Z" fill="white"/>
<path d="M70.9045 28.264C68.5945 28.264 67.2305 26.966 67.2305 25.008C67.2305 23.028 68.7045 21.796 71.2345 21.598L74.6225 21.334V21.026C74.6225 19.222 73.5445 18.584 72.0925 18.584C70.3545 18.584 69.3645 19.354 69.3645 20.652H67.5605C67.5605 18.408 69.4085 16.934 72.1805 16.934C74.8425 16.934 76.6465 18.342 76.6465 21.246V28H74.8865L74.6665 26.262C74.1165 27.494 72.6425 28.264 70.9045 28.264ZM71.4985 26.658C73.4565 26.658 74.6445 25.382 74.6445 23.358V22.786L71.8945 23.006C70.0685 23.182 69.3205 23.886 69.3205 24.942C69.3205 26.086 70.1565 26.658 71.4985 26.658Z" fill="white"/>
<path d="M60.0733 28L55.7393 17.242H57.9393L60.2933 23.248C60.6673 24.26 60.9753 25.162 61.1513 25.822C61.3273 25.118 61.6793 24.194 62.0533 23.248L64.4513 17.242H66.6073L62.1193 28H60.0733Z" fill="white"/>
<path d="M48.1801 28.264C45.0561 28.264 43.1641 25.932 43.1641 22.654C43.1641 19.354 45.0781 16.934 48.2681 16.934C49.9181 16.934 51.3041 17.66 52.0301 18.98V11.808H54.0761V28H52.2281L52.0521 26.042C51.3481 27.516 49.8961 28.264 48.1801 28.264ZM48.5981 26.394C50.7101 26.394 52.0081 24.832 52.0081 22.588C52.0081 20.388 50.7101 18.804 48.5981 18.804C46.4861 18.804 45.2541 20.388 45.2541 22.588C45.2541 24.81 46.4861 26.394 48.5981 26.394Z" fill="white"/>
<path d="M30.7215 28H28.4775L34.2855 12.094H36.6835L42.5135 28H40.2475L38.8175 24.04H32.1295L30.7215 28ZM35.2095 15.526L32.7895 22.17H38.1795L35.7375 15.526C35.6275 15.218 35.5175 14.844 35.4735 14.602C35.4295 14.822 35.3195 15.196 35.2095 15.526Z" fill="white"/>
<path d="M278 63.4158L258 54.1931L267 52.7368L268.5 43.9995L278 63.4158Z" fill="#FF4BD8"/>
</svg>
