<svg width="204" height="66" viewBox="0 0 204 66" fill="none" xmlns="http://www.w3.org/2000/svg">
<path d="M19 26C19 23.7909 20.7909 22 23 22H182C194.15 22 204 31.8497 204 44C204 56.1503 194.15 66 182 66H59C36.9086 66 19 48.0914 19 26Z" fill="#00E3B2"/>
<path d="M182.43 51H180.362V41.98H178.25V40.242H180.362V36.876H182.43V40.242H184.542V41.98H182.43V51Z" fill="white"/>
<path d="M166.015 45.61C166.015 42.288 168.391 39.956 171.625 39.956C174.837 39.956 177.213 42.288 177.213 45.61C177.213 48.932 174.837 51.264 171.625 51.264C168.391 51.264 166.015 48.932 166.015 45.61ZM168.105 45.61C168.105 47.854 169.535 49.416 171.625 49.416C173.693 49.416 175.145 47.854 175.145 45.61C175.145 43.366 173.693 41.804 171.625 41.804C169.535 41.804 168.105 43.366 168.105 45.61Z" fill="white"/>
<path d="M163.674 51H161.606V34.808H163.674V51Z" fill="white"/>
<path d="M157.504 37.69C156.756 37.69 156.14 37.074 156.14 36.326C156.14 35.556 156.756 34.962 157.504 34.962C158.252 34.962 158.868 35.556 158.868 36.326C158.868 37.074 158.252 37.69 157.504 37.69ZM156.492 51V40.242H158.56V51H156.492Z" fill="white"/>
<path d="M149.276 45.324H145.25V51H143.094V35.094H149.276C152.4 35.094 154.402 37.14 154.402 40.198C154.402 43.168 152.378 45.324 149.276 45.324ZM148.902 37.03H145.25V43.388H148.814C150.948 43.388 152.136 42.134 152.136 40.176C152.136 38.174 150.926 37.03 148.902 37.03Z" fill="white"/>
<path d="M123.239 45.61C123.239 42.288 125.615 39.956 128.849 39.956C132.061 39.956 134.437 42.288 134.437 45.61C134.437 48.932 132.061 51.264 128.849 51.264C125.615 51.264 123.239 48.932 123.239 45.61ZM125.329 45.61C125.329 47.854 126.759 49.416 128.849 49.416C130.917 49.416 132.369 47.854 132.369 45.61C132.369 43.366 130.917 41.804 128.849 41.804C126.759 41.804 125.329 43.366 125.329 45.61Z" fill="white"/>
<path d="M116.661 51.264C113.493 51.264 111.315 48.976 111.315 45.632C111.315 42.266 113.449 39.934 116.573 39.934C119.631 39.934 121.633 42.046 121.633 45.236V46.006L113.317 46.028C113.471 48.294 114.659 49.548 116.705 49.548C118.311 49.548 119.367 48.888 119.719 47.656H121.655C121.127 49.966 119.323 51.264 116.661 51.264ZM116.573 41.672C114.769 41.672 113.625 42.75 113.361 44.642H119.565C119.565 42.86 118.399 41.672 116.573 41.672Z" fill="white"/>
<path d="M103.14 51.264C100.016 51.264 98.124 48.932 98.124 45.654C98.124 42.354 100.038 39.934 103.228 39.934C104.878 39.934 106.264 40.66 106.99 41.98V34.808H109.036V51H107.188L107.012 49.042C106.308 50.516 104.856 51.264 103.14 51.264ZM103.558 49.394C105.67 49.394 106.968 47.832 106.968 45.588C106.968 43.388 105.67 41.804 103.558 41.804C101.446 41.804 100.214 43.388 100.214 45.588C100.214 47.81 101.446 49.394 103.558 49.394Z" fill="white"/>
<path d="M94.7698 37.69C94.0218 37.69 93.4058 37.074 93.4058 36.326C93.4058 35.556 94.0218 34.962 94.7698 34.962C95.5178 34.962 96.1338 35.556 96.1338 36.326C96.1338 37.074 95.5178 37.69 94.7698 37.69ZM93.7578 51V40.242H95.8258V51H93.7578Z" fill="white"/>
<path d="M83.8151 51L77.7651 35.094H80.0751L83.9471 45.258C84.2991 46.16 84.6071 47.062 84.9371 48.25C85.3111 46.996 85.6851 45.94 85.9491 45.236L89.7991 35.094H92.0431L86.0591 51H83.8151Z" fill="white"/>
<path d="M69.6682 35.094V51H67.5122V35.094H69.6682Z" fill="white"/>
<path d="M53.6058 51H51.3618L57.1698 35.094H59.5678L65.3978 51H63.1318L61.7018 47.04H55.0138L53.6058 51ZM58.0938 38.526L55.6738 45.17H61.0638L58.6218 38.526C58.5118 38.218 58.4018 37.844 58.3578 37.602C58.3138 37.822 58.2038 38.196 58.0938 38.526Z" fill="white"/>
<path d="M0 0L9.25765 20L10.7194 11L19.4898 9.5L0 0Z" fill="#00E3B2"/>
</svg>
