<svg width="29" height="28" viewBox="0 0 29 28" fill="none" xmlns="http://www.w3.org/2000/svg">
<path d="M0 7.38709C4.59355 6.50967 6.83871 2.35484 7.38709 0C7.93548 2.29032 9.25806 6.32258 15.0968 7.38709C9.38709 8.25806 7.8172 12.9355 7.38709 15.6129C6.64516 11.5161 4.48387 8.6129 0 7.38709Z" fill="white"/>
<path d="M16.6455 14.8866C20.3753 14.176 22.1983 10.8109 22.6436 8.90369C23.0888 10.7587 24.1627 14.0245 28.9036 14.8866C24.2675 15.592 22.9928 19.3804 22.6436 21.5488C22.0411 18.2308 20.2863 15.8794 16.6455 14.8866Z" fill="white"/>
<path d="M8.32227 24.3292C10.3835 23.9376 11.3909 22.0834 11.637 21.0325C11.8831 22.0546 12.4765 23.8541 15.0965 24.3292C12.5344 24.7179 11.83 26.8053 11.637 28.0002C11.3041 26.1719 10.3343 24.8762 8.32227 24.3292Z" fill="white"/>
</svg>
